M48
; DRILL file {KiCad (5.99.0-11163-g08fb05e522)} date Fri Nov 19 20:45:53 2021
; FORMAT={-:-/ absolute / inch / decimal}
; #@! TF.CreationDate,2021-11-19T20:45:53+01:00
; #@! TF.GenerationSoftware,Kicad,Pcbnew,(5.99.0-11163-g08fb05e522)
; #@! TF.FileFunction,MixedPlating,1,2
FMAT,2
INCH
; #@! TA.AperFunction,Plated,PTH,ViaDrill
T1C0.0157
; #@! TA.AperFunction,Plated,PTH,ComponentDrill
T2C0.0197
; #@! TA.AperFunction,Plated,PTH,ViaDrill
T3C0.0315
; #@! TA.AperFunction,Plated,PTH,ComponentDrill
T4C0.0394
; #@! TA.AperFunction,Plated,PTH,ComponentDrill
T5C0.0984
; #@! TA.AperFunction,Plated,PTH,ComponentDrill
T6C0.1260
%
G90
G05
T1
X6.05Y-3.9276
T2
X4.8555Y-3.45
X4.8555Y-4.15
X4.8832Y-3.3832
X4.8832Y-3.5168
X4.8832Y-4.0832
X4.8832Y-4.2168
X4.95Y-3.3555
X4.95Y-3.5445
X4.95Y-4.0555
X4.95Y-4.2445
X5.0168Y-3.3832
X5.0168Y-3.5168
X5.0168Y-4.0832
X5.0168Y-4.2168
X5.0445Y-3.45
X5.0445Y-4.15
X7.0305Y-3.45
X7.0305Y-4.15
X7.0582Y-3.3832
X7.0582Y-3.5168
X7.0582Y-4.0832
X7.0582Y-4.2168
X7.125Y-3.3555
X7.125Y-3.5445
X7.125Y-4.0555
X7.125Y-4.2445
X7.1918Y-3.3832
X7.1918Y-3.5168
X7.1918Y-4.0832
X7.1918Y-4.2168
X7.2195Y-3.45
X7.2195Y-4.15
T3
X5.725Y-3.8026
T4
X5.02Y-3.75
X5.02Y-3.85
X5.75Y-4.1976
X5.85Y-4.1976
X5.95Y-4.1976
X6.05Y-4.1976
X6.15Y-4.1976
T5
X6.5606Y-3.4457
X6.6394Y-4.1543
T6
X4.95Y-3.45
X4.95Y-4.15
X7.125Y-3.45
X7.125Y-4.15
T0
M30
