%TF.GenerationSoftware,KiCad,Pcbnew,(5.99.0-11163-g08fb05e522)*%
%TF.CreationDate,2021-11-19T20:45:56+01:00*%
%TF.ProjectId,pumpBoard,70756d70-426f-4617-9264-2e6b69636164,rev?*%
%TF.SameCoordinates,Original*%
%TF.FileFunction,Paste,Top*%
%TF.FilePolarity,Positive*%
%FSLAX46Y46*%
G04 Gerber Fmt 4.6, Leading zero omitted, Abs format (unit mm)*
G04 Created by KiCad (PCBNEW (5.99.0-11163-g08fb05e522)) date 2021-11-19 20:45:56*
%MOMM*%
%LPD*%
G01*
G04 APERTURE LIST*
G04 Aperture macros list*
%AMRoundRect*
0 Rectangle with rounded corners*
0 $1 Rounding radius*
0 $2 $3 $4 $5 $6 $7 $8 $9 X,Y pos of 4 corners*
0 Add a 4 corners polygon primitive as box body*
4,1,4,$2,$3,$4,$5,$6,$7,$8,$9,$2,$3,0*
0 Add four circle primitives for the rounded corners*
1,1,$1+$1,$2,$3*
1,1,$1+$1,$4,$5*
1,1,$1+$1,$6,$7*
1,1,$1+$1,$8,$9*
0 Add four rect primitives between the rounded corners*
20,1,$1+$1,$2,$3,$4,$5,0*
20,1,$1+$1,$4,$5,$6,$7,0*
20,1,$1+$1,$6,$7,$8,$9,0*
20,1,$1+$1,$8,$9,$2,$3,0*%
G04 Aperture macros list end*
%ADD10RoundRect,0.250000X0.400000X0.625000X-0.400000X0.625000X-0.400000X-0.625000X0.400000X-0.625000X0*%
%ADD11RoundRect,0.250000X0.625000X-0.400000X0.625000X0.400000X-0.625000X0.400000X-0.625000X-0.400000X0*%
%ADD12RoundRect,0.250000X-0.625000X0.400000X-0.625000X-0.400000X0.625000X-0.400000X0.625000X0.400000X0*%
%ADD13RoundRect,0.250001X-0.624999X0.462499X-0.624999X-0.462499X0.624999X-0.462499X0.624999X0.462499X0*%
%ADD14RoundRect,0.250000X-0.650000X0.412500X-0.650000X-0.412500X0.650000X-0.412500X0.650000X0.412500X0*%
%ADD15R,1.800000X3.500000*%
%ADD16R,0.900000X0.800000*%
%ADD17RoundRect,0.150000X-0.150000X0.825000X-0.150000X-0.825000X0.150000X-0.825000X0.150000X0.825000X0*%
%ADD18R,0.800000X0.900000*%
G04 APERTURE END LIST*
D10*
%TO.C,R7*%
X145060000Y-86995000D03*
X141960000Y-86995000D03*
%TD*%
D11*
%TO.C,R6*%
X158750000Y-93690000D03*
X158750000Y-90590000D03*
%TD*%
D12*
%TO.C,R8*%
X161290000Y-100050000D03*
X161290000Y-103150000D03*
%TD*%
D11*
%TO.C,R1*%
X156210000Y-93625000D03*
X156210000Y-90525000D03*
%TD*%
%TO.C,R3*%
X151130000Y-93625000D03*
X151130000Y-90525000D03*
%TD*%
D12*
%TO.C,R5*%
X148590000Y-90525000D03*
X148590000Y-93625000D03*
%TD*%
D13*
%TO.C,D1*%
X156210000Y-85507500D03*
X156210000Y-88482500D03*
%TD*%
%TO.C,D2*%
X151130000Y-85507500D03*
X151130000Y-88482500D03*
%TD*%
D14*
%TO.C,C1*%
X157480000Y-97497500D03*
X157480000Y-100622500D03*
%TD*%
D11*
%TO.C,R4*%
X153670000Y-93625000D03*
X153670000Y-90525000D03*
%TD*%
D13*
%TO.C,D3*%
X153670000Y-85507500D03*
X153670000Y-88482500D03*
%TD*%
D15*
%TO.C,D4*%
X132080000Y-99020000D03*
X132080000Y-94020000D03*
%TD*%
D16*
%TO.C,Q2*%
X163465000Y-100650000D03*
X163465000Y-102550000D03*
X165465000Y-101600000D03*
%TD*%
D17*
%TO.C,U1*%
X154940000Y-96585000D03*
X153670000Y-96585000D03*
X152400000Y-96585000D03*
X151130000Y-96585000D03*
X151130000Y-101535000D03*
X152400000Y-101535000D03*
X153670000Y-101535000D03*
X154940000Y-101535000D03*
%TD*%
D12*
%TO.C,R2*%
X147320000Y-100050000D03*
X147320000Y-103150000D03*
%TD*%
D18*
%TO.C,Q1*%
X144460000Y-89170000D03*
X142560000Y-89170000D03*
X143510000Y-91170000D03*
%TD*%
D15*
%TO.C,D5*%
X173990000Y-94020000D03*
X173990000Y-99020000D03*
%TD*%
M02*
