%TF.GenerationSoftware,KiCad,Pcbnew,(5.99.0-11163-g08fb05e522)*%
%TF.CreationDate,2021-11-19T20:45:56+01:00*%
%TF.ProjectId,pumpBoard,70756d70-426f-4617-9264-2e6b69636164,rev?*%
%TF.SameCoordinates,Original*%
%TF.FileFunction,Copper,L1,Top*%
%TF.FilePolarity,Positive*%
%FSLAX46Y46*%
G04 Gerber Fmt 4.6, Leading zero omitted, Abs format (unit mm)*
G04 Created by KiCad (PCBNEW (5.99.0-11163-g08fb05e522)) date 2021-11-19 20:45:56*
%MOMM*%
%LPD*%
G01*
G04 APERTURE LIST*
G04 Aperture macros list*
%AMRoundRect*
0 Rectangle with rounded corners*
0 $1 Rounding radius*
0 $2 $3 $4 $5 $6 $7 $8 $9 X,Y pos of 4 corners*
0 Add a 4 corners polygon primitive as box body*
4,1,4,$2,$3,$4,$5,$6,$7,$8,$9,$2,$3,0*
0 Add four circle primitives for the rounded corners*
1,1,$1+$1,$2,$3*
1,1,$1+$1,$4,$5*
1,1,$1+$1,$6,$7*
1,1,$1+$1,$8,$9*
0 Add four rect primitives between the rounded corners*
20,1,$1+$1,$2,$3,$4,$5,0*
20,1,$1+$1,$4,$5,$6,$7,0*
20,1,$1+$1,$6,$7,$8,$9,0*
20,1,$1+$1,$8,$9,$2,$3,0*%
G04 Aperture macros list end*
%TA.AperFunction,SMDPad,CuDef*%
%ADD10RoundRect,0.250000X0.400000X0.625000X-0.400000X0.625000X-0.400000X-0.625000X0.400000X-0.625000X0*%
%TD*%
%TA.AperFunction,ComponentPad*%
%ADD11C,0.800000*%
%TD*%
%TA.AperFunction,ComponentPad*%
%ADD12C,6.400000*%
%TD*%
%TA.AperFunction,SMDPad,CuDef*%
%ADD13RoundRect,0.250000X0.625000X-0.400000X0.625000X0.400000X-0.625000X0.400000X-0.625000X-0.400000X0*%
%TD*%
%TA.AperFunction,SMDPad,CuDef*%
%ADD14RoundRect,0.250000X-0.625000X0.400000X-0.625000X-0.400000X0.625000X-0.400000X0.625000X0.400000X0*%
%TD*%
%TA.AperFunction,SMDPad,CuDef*%
%ADD15RoundRect,0.250001X-0.624999X0.462499X-0.624999X-0.462499X0.624999X-0.462499X0.624999X0.462499X0*%
%TD*%
%TA.AperFunction,ComponentPad*%
%ADD16R,1.700000X1.700000*%
%TD*%
%TA.AperFunction,ComponentPad*%
%ADD17O,1.700000X1.700000*%
%TD*%
%TA.AperFunction,SMDPad,CuDef*%
%ADD18RoundRect,0.250000X-0.650000X0.412500X-0.650000X-0.412500X0.650000X-0.412500X0.650000X0.412500X0*%
%TD*%
%TA.AperFunction,SMDPad,CuDef*%
%ADD19R,1.800000X3.500000*%
%TD*%
%TA.AperFunction,SMDPad,CuDef*%
%ADD20R,0.900000X0.800000*%
%TD*%
%TA.AperFunction,SMDPad,CuDef*%
%ADD21RoundRect,0.150000X-0.150000X0.825000X-0.150000X-0.825000X0.150000X-0.825000X0.150000X0.825000X0*%
%TD*%
%TA.AperFunction,SMDPad,CuDef*%
%ADD22R,0.800000X0.900000*%
%TD*%
%TA.AperFunction,ComponentPad*%
%ADD23O,6.000000X3.500000*%
%TD*%
%TA.AperFunction,ComponentPad*%
%ADD24C,1.700000*%
%TD*%
%TA.AperFunction,ViaPad*%
%ADD25C,0.800000*%
%TD*%
%TA.AperFunction,ViaPad*%
%ADD26C,1.270000*%
%TD*%
%TA.AperFunction,Conductor*%
%ADD27C,1.500000*%
%TD*%
%TA.AperFunction,Conductor*%
%ADD28C,0.600000*%
%TD*%
G04 APERTURE END LIST*
D10*
%TO.P,R7,1*%
%TO.N,Net-(Q1-Pad1)*%
X145060000Y-86995000D03*
%TO.P,R7,2*%
%TO.N,GND*%
X141960000Y-86995000D03*
%TD*%
D11*
%TO.P,H2,1,1*%
%TO.N,GND*%
X179277944Y-85932944D03*
X180975000Y-85230000D03*
X183375000Y-87630000D03*
X178575000Y-87630000D03*
X182672056Y-89327056D03*
X179277944Y-89327056D03*
X182672056Y-85932944D03*
D12*
X180975000Y-87630000D03*
D11*
X180975000Y-90030000D03*
%TD*%
D13*
%TO.P,R6,1*%
%TO.N,S_PUMP*%
X158750000Y-93690000D03*
%TO.P,R6,2*%
%TO.N,Net-(Q2-Pad1)*%
X158750000Y-90590000D03*
%TD*%
D14*
%TO.P,R8,1*%
%TO.N,Net-(Q2-Pad1)*%
X161290000Y-100050000D03*
%TO.P,R8,2*%
%TO.N,GND*%
X161290000Y-103150000D03*
%TD*%
D13*
%TO.P,R1,1*%
%TO.N,+5V*%
X156210000Y-93625000D03*
%TO.P,R1,2*%
%TO.N,Net-(D1-Pad2)*%
X156210000Y-90525000D03*
%TD*%
%TO.P,R3,1*%
%TO.N,S_EV*%
X151130000Y-93625000D03*
%TO.P,R3,2*%
%TO.N,Net-(D2-Pad2)*%
X151130000Y-90525000D03*
%TD*%
D14*
%TO.P,R5,1*%
%TO.N,Net-(Q1-Pad1)*%
X148590000Y-90525000D03*
%TO.P,R5,2*%
%TO.N,S_EV*%
X148590000Y-93625000D03*
%TD*%
D15*
%TO.P,D1,1,K*%
%TO.N,GND*%
X156210000Y-85507500D03*
%TO.P,D1,2,A*%
%TO.N,Net-(D1-Pad2)*%
X156210000Y-88482500D03*
%TD*%
%TO.P,D2,1,K*%
%TO.N,GND*%
X151130000Y-85507500D03*
%TO.P,D2,2,A*%
%TO.N,Net-(D2-Pad2)*%
X151130000Y-88482500D03*
%TD*%
D16*
%TO.P,J2,1,Pin_1*%
%TO.N,Net-(J2-Pad1)*%
X146050000Y-106618000D03*
%TD*%
%TO.P,J1,1,Pin_1*%
%TO.N,GND*%
X156210000Y-106618000D03*
D17*
%TO.P,J1,2,Pin_2*%
%TO.N,+5V*%
X153670000Y-106618000D03*
%TO.P,J1,3,Pin_3*%
%TO.N,signal*%
X151130000Y-106618000D03*
%TO.P,J1,4,Pin_4*%
%TO.N,TX*%
X148590000Y-106618000D03*
%TD*%
D18*
%TO.P,C1,1*%
%TO.N,+5V*%
X157480000Y-97497500D03*
%TO.P,C1,2*%
%TO.N,GND*%
X157480000Y-100622500D03*
%TD*%
D13*
%TO.P,R4,1*%
%TO.N,S_PUMP*%
X153670000Y-93625000D03*
%TO.P,R4,2*%
%TO.N,Net-(D3-Pad2)*%
X153670000Y-90525000D03*
%TD*%
D15*
%TO.P,D3,1,K*%
%TO.N,GND*%
X153670000Y-85507500D03*
%TO.P,D3,2,A*%
%TO.N,Net-(D3-Pad2)*%
X153670000Y-88482500D03*
%TD*%
D11*
%TO.P,H1,1,1*%
%TO.N,GND*%
X124032944Y-103712944D03*
X127427056Y-103712944D03*
D12*
X125730000Y-105410000D03*
D11*
X125730000Y-107810000D03*
X123330000Y-105410000D03*
X124032944Y-107107056D03*
X125730000Y-103010000D03*
X127427056Y-107107056D03*
X128130000Y-105410000D03*
%TD*%
%TO.P,H4,1,1*%
%TO.N,GND*%
X124032944Y-85932944D03*
X124032944Y-89327056D03*
D12*
X125730000Y-87630000D03*
D11*
X125730000Y-90030000D03*
X125730000Y-85230000D03*
X127427056Y-85932944D03*
X123330000Y-87630000D03*
X127427056Y-89327056D03*
X128130000Y-87630000D03*
%TD*%
D19*
%TO.P,D4,1,K*%
%TO.N,+5V*%
X132080000Y-99020000D03*
%TO.P,D4,2,A*%
%TO.N,Net-(D4-Pad2)*%
X132080000Y-94020000D03*
%TD*%
D20*
%TO.P,Q2,1,G*%
%TO.N,Net-(Q2-Pad1)*%
X163465000Y-100650000D03*
%TO.P,Q2,2,S*%
%TO.N,GND*%
X163465000Y-102550000D03*
%TO.P,Q2,3,D*%
%TO.N,Net-(D5-Pad2)*%
X165465000Y-101600000D03*
%TD*%
D21*
%TO.P,U1,1,VCC*%
%TO.N,+5V*%
X154940000Y-96585000D03*
%TO.P,U1,2,PA6*%
%TO.N,TX*%
X153670000Y-96585000D03*
%TO.P,U1,3,PA7*%
%TO.N,S_PUMP*%
X152400000Y-96585000D03*
%TO.P,U1,4,PA1*%
%TO.N,S_EV*%
X151130000Y-96585000D03*
%TO.P,U1,5,PA2*%
%TO.N,signal*%
X151130000Y-101535000D03*
%TO.P,U1,6,~RESET~/PA0*%
%TO.N,Net-(R2-Pad1)*%
X152400000Y-101535000D03*
%TO.P,U1,7,PA3*%
%TO.N,unconnected-(U1-Pad7)*%
X153670000Y-101535000D03*
%TO.P,U1,8,GND*%
%TO.N,GND*%
X154940000Y-101535000D03*
%TD*%
D14*
%TO.P,R2,1*%
%TO.N,Net-(R2-Pad1)*%
X147320000Y-100050000D03*
%TO.P,R2,2*%
%TO.N,Net-(J2-Pad1)*%
X147320000Y-103150000D03*
%TD*%
D22*
%TO.P,Q1,1,G*%
%TO.N,Net-(Q1-Pad1)*%
X144460000Y-89170000D03*
%TO.P,Q1,2,S*%
%TO.N,GND*%
X142560000Y-89170000D03*
%TO.P,Q1,3,D*%
%TO.N,Net-(D4-Pad2)*%
X143510000Y-91170000D03*
%TD*%
D19*
%TO.P,D5,1,K*%
%TO.N,+5V*%
X173990000Y-94020000D03*
%TO.P,D5,2,A*%
%TO.N,Net-(D5-Pad2)*%
X173990000Y-99020000D03*
%TD*%
D11*
%TO.P,H3,1,1*%
%TO.N,GND*%
X180975000Y-103010000D03*
D12*
X180975000Y-105410000D03*
D11*
X183375000Y-105410000D03*
X182672056Y-103712944D03*
X179277944Y-103712944D03*
X179277944Y-107107056D03*
X178575000Y-105410000D03*
X182672056Y-107107056D03*
X180975000Y-107810000D03*
%TD*%
D23*
%TO.P,J4,1,Pin_1*%
%TO.N,+5V*%
X166640000Y-87520000D03*
%TO.P,J4,2,Pin_2*%
%TO.N,Net-(D5-Pad2)*%
X168640000Y-105520000D03*
%TD*%
D24*
%TO.P,J3,1,Pin_1*%
%TO.N,Net-(D4-Pad2)*%
X127508000Y-95250000D03*
D16*
%TO.P,J3,2,Pin_2*%
%TO.N,+5V*%
X127508000Y-97790000D03*
%TD*%
D25*
%TO.N,+5V*%
X153670000Y-99760000D03*
D26*
X145415000Y-96585000D03*
%TD*%
D27*
%TO.N,+5V*%
X173990000Y-90805000D02*
X170705000Y-87520000D01*
X134660000Y-101600000D02*
X132080000Y-99020000D01*
X145415000Y-96585000D02*
X140400000Y-101600000D01*
X173990000Y-94020000D02*
X173990000Y-90805000D01*
X127508000Y-98298000D02*
X128230000Y-99020000D01*
D28*
X156210000Y-96520000D02*
X156145000Y-96585000D01*
X156145000Y-96585000D02*
X154940000Y-96585000D01*
X154940000Y-98998000D02*
X154940000Y-96585000D01*
X157057500Y-97497500D02*
X156145000Y-96585000D01*
X156210000Y-93625000D02*
X156210000Y-96520000D01*
X157480000Y-97497500D02*
X157057500Y-97497500D01*
D27*
X127508000Y-97790000D02*
X127508000Y-98298000D01*
X140400000Y-101600000D02*
X134660000Y-101600000D01*
X170705000Y-87520000D02*
X166640000Y-87520000D01*
X128230000Y-99020000D02*
X132080000Y-99020000D01*
D28*
X153670000Y-99760000D02*
X154686000Y-99760000D01*
X154686000Y-99760000D02*
X154940000Y-98998000D01*
%TO.N,Net-(D1-Pad2)*%
X156210000Y-88482500D02*
X156210000Y-90525000D01*
%TO.N,Net-(D2-Pad2)*%
X151130000Y-88482500D02*
X151130000Y-90525000D01*
%TO.N,Net-(D3-Pad2)*%
X153670000Y-88482500D02*
X153670000Y-90525000D01*
D27*
%TO.N,Net-(D4-Pad2)*%
X143510000Y-91440000D02*
X142875000Y-92075000D01*
X143510000Y-91170000D02*
X143510000Y-91440000D01*
X142875000Y-92075000D02*
X134025000Y-92075000D01*
X134025000Y-92075000D02*
X132080000Y-94020000D01*
X128738000Y-94020000D02*
X127508000Y-95250000D01*
X132080000Y-94020000D02*
X128738000Y-94020000D01*
%TO.N,Net-(D5-Pad2)*%
X168640000Y-102600000D02*
X168640000Y-105520000D01*
X167640000Y-101600000D02*
X168640000Y-102600000D01*
X173990000Y-99020000D02*
X173990000Y-102235000D01*
X170705000Y-105520000D02*
X168640000Y-105520000D01*
X173990000Y-102235000D02*
X170705000Y-105520000D01*
X165465000Y-101600000D02*
X167640000Y-101600000D01*
D28*
%TO.N,Net-(Q1-Pad1)*%
X145060000Y-86995000D02*
X145060000Y-88570000D01*
X144655000Y-88975000D02*
X144460000Y-89170000D01*
X147955000Y-88975000D02*
X144655000Y-88975000D01*
X145060000Y-88570000D02*
X144460000Y-89170000D01*
X147955000Y-88975000D02*
X148590000Y-89610000D01*
X148590000Y-89610000D02*
X148590000Y-90525000D01*
%TO.N,Net-(Q2-Pad1)*%
X161290000Y-92140000D02*
X161290000Y-100050000D01*
X158750000Y-90590000D02*
X159740000Y-90590000D01*
X163465000Y-100600000D02*
X162915000Y-100050000D01*
X159740000Y-90590000D02*
X161290000Y-92140000D01*
X163465000Y-100650000D02*
X163465000Y-100600000D01*
X162915000Y-100050000D02*
X161290000Y-100050000D01*
%TO.N,Net-(R2-Pad1)*%
X147610000Y-99760000D02*
X151765000Y-99760000D01*
X152400000Y-100395000D02*
X152400000Y-101535000D01*
X147320000Y-100050000D02*
X147610000Y-99760000D01*
X151765000Y-99760000D02*
X152400000Y-100395000D01*
%TO.N,S_EV*%
X151130000Y-93625000D02*
X151130000Y-96585000D01*
X151130000Y-93625000D02*
X148590000Y-93625000D01*
%TO.N,S_PUMP*%
X154305000Y-92075000D02*
X158050000Y-92075000D01*
X158050000Y-92075000D02*
X158750000Y-92775000D01*
X153670000Y-93980000D02*
X153670000Y-93625000D01*
X152400000Y-95250000D02*
X153670000Y-93980000D01*
X158750000Y-92775000D02*
X158750000Y-93690000D01*
X152400000Y-96585000D02*
X152400000Y-95250000D01*
X153670000Y-92710000D02*
X153670000Y-93625000D01*
X154305000Y-92075000D02*
X153670000Y-92710000D01*
%TO.N,TX*%
X145796000Y-101538000D02*
X148844000Y-101538000D01*
X145542000Y-101284000D02*
X145796000Y-101538000D01*
X149352000Y-102046000D02*
X149352000Y-105856000D01*
X153416000Y-98490000D02*
X146050000Y-98490000D01*
X153670000Y-96585000D02*
X153670000Y-98236000D01*
X153670000Y-98236000D02*
X153416000Y-98490000D01*
X148844000Y-101538000D02*
X149352000Y-102046000D01*
X146050000Y-98490000D02*
X145542000Y-98998000D01*
X145542000Y-98998000D02*
X145542000Y-101284000D01*
X149352000Y-105856000D02*
X148590000Y-106618000D01*
%TO.N,signal*%
X151130000Y-101535000D02*
X151130000Y-106665000D01*
X151130000Y-106665000D02*
X151115000Y-106680000D01*
%TO.N,Net-(J2-Pad1)*%
X147320000Y-103150000D02*
X147320000Y-105410000D01*
X147320000Y-105410000D02*
X146050000Y-106680000D01*
%TD*%
%TA.AperFunction,Conductor*%
%TO.N,GND*%
G36*
X149702312Y-84347258D02*
G01*
X149784391Y-84402102D01*
X149839235Y-84484181D01*
X149858493Y-84581000D01*
X149839235Y-84677819D01*
X149824266Y-84708072D01*
X149812667Y-84728041D01*
X149801022Y-84754823D01*
X149757822Y-84897459D01*
X149752905Y-84922818D01*
X149747500Y-84983370D01*
X149747000Y-84994604D01*
X149747000Y-85082582D01*
X149751134Y-85103366D01*
X149771918Y-85107500D01*
X157568082Y-85107500D01*
X157588866Y-85103366D01*
X157593000Y-85082582D01*
X157593000Y-85009455D01*
X157592150Y-84994829D01*
X157579237Y-84884072D01*
X157572520Y-84855655D01*
X157522258Y-84717184D01*
X157510791Y-84694286D01*
X157484659Y-84599092D01*
X157496944Y-84501144D01*
X157545778Y-84415353D01*
X157623725Y-84354780D01*
X157718919Y-84328648D01*
X157737011Y-84328000D01*
X178461195Y-84328000D01*
X178558014Y-84347258D01*
X178640093Y-84402102D01*
X178694937Y-84484181D01*
X178714195Y-84581000D01*
X178694937Y-84677819D01*
X178656882Y-84740840D01*
X178662831Y-84752146D01*
X181361787Y-87451102D01*
X181416631Y-87533181D01*
X181435889Y-87630000D01*
X181416631Y-87726819D01*
X181361787Y-87808898D01*
X178668858Y-90501827D01*
X178657085Y-90519446D01*
X178663978Y-90529762D01*
X178787402Y-90629709D01*
X178798113Y-90637491D01*
X179112947Y-90841946D01*
X179124395Y-90848556D01*
X179458898Y-91018994D01*
X179470960Y-91024364D01*
X179821442Y-91158901D01*
X179834016Y-91162987D01*
X180196621Y-91260146D01*
X180209567Y-91262898D01*
X180254790Y-91270061D01*
X180347404Y-91304229D01*
X180419893Y-91371237D01*
X180461221Y-91460885D01*
X180463206Y-91473892D01*
X180463161Y-91474485D01*
X180463639Y-91476735D01*
X180463640Y-91476739D01*
X180465121Y-91483703D01*
X180466180Y-91489995D01*
X180465934Y-91503408D01*
X180479222Y-91552146D01*
X180479392Y-91552769D01*
X180482769Y-91566701D01*
X180485320Y-91578696D01*
X180493412Y-91616756D01*
X180496409Y-91622321D01*
X180495608Y-91622626D01*
X180500574Y-91635901D01*
X180500575Y-91635905D01*
X180618897Y-91952201D01*
X180622721Y-91963188D01*
X180838488Y-92632203D01*
X180842199Y-92644822D01*
X181022719Y-93323455D01*
X181025768Y-93336251D01*
X181084161Y-93612945D01*
X181163808Y-93990345D01*
X181170762Y-94023298D01*
X181173142Y-94036228D01*
X181178121Y-94067886D01*
X181282239Y-94729923D01*
X181283944Y-94742966D01*
X181305064Y-94945319D01*
X181355588Y-95429404D01*
X181356837Y-95441375D01*
X181357862Y-95454484D01*
X181378086Y-95843079D01*
X181394358Y-96155747D01*
X181394700Y-96168896D01*
X181394700Y-96871104D01*
X181394358Y-96884253D01*
X181393026Y-96909838D01*
X181360995Y-97525319D01*
X181357862Y-97585511D01*
X181356837Y-97598621D01*
X181348187Y-97681500D01*
X181283944Y-98297034D01*
X181282239Y-98310077D01*
X181226800Y-98662587D01*
X181174081Y-98997804D01*
X181173143Y-99003766D01*
X181170763Y-99016697D01*
X181121486Y-99250195D01*
X181025768Y-99703749D01*
X181022719Y-99716545D01*
X180842199Y-100395178D01*
X180838488Y-100407797D01*
X180622721Y-101076812D01*
X180618897Y-101087799D01*
X180520080Y-101351957D01*
X180495608Y-101417374D01*
X180496409Y-101417679D01*
X180488666Y-101450171D01*
X180486013Y-101461304D01*
X180482298Y-101475142D01*
X180476388Y-101494906D01*
X180467635Y-101524174D01*
X180467546Y-101538796D01*
X180464156Y-101553020D01*
X180464488Y-101559577D01*
X180431890Y-101650380D01*
X180365519Y-101723454D01*
X180276237Y-101765566D01*
X180254600Y-101769969D01*
X180209567Y-101777102D01*
X180196621Y-101779854D01*
X179834016Y-101877013D01*
X179821442Y-101881099D01*
X179470960Y-102015636D01*
X179458898Y-102021006D01*
X179124395Y-102191444D01*
X179112947Y-102198054D01*
X178798113Y-102402509D01*
X178787402Y-102410291D01*
X178670604Y-102504872D01*
X178657054Y-102521165D01*
X178662831Y-102532146D01*
X181361787Y-105231102D01*
X181416631Y-105313181D01*
X181435889Y-105410000D01*
X181416631Y-105506819D01*
X181361787Y-105588898D01*
X178668858Y-108281827D01*
X178657086Y-108299445D01*
X178669777Y-108318439D01*
X178707554Y-108409640D01*
X178707555Y-108508356D01*
X178669779Y-108599557D01*
X178599977Y-108669361D01*
X178508776Y-108707138D01*
X178459416Y-108712000D01*
X128243805Y-108712000D01*
X128146986Y-108692742D01*
X128064907Y-108637898D01*
X128010063Y-108555819D01*
X127990805Y-108459000D01*
X128010063Y-108362181D01*
X128048118Y-108299160D01*
X128042169Y-108287854D01*
X125343213Y-105588898D01*
X125288369Y-105506819D01*
X125269111Y-105410000D01*
X126301531Y-105410000D01*
X126313304Y-105427619D01*
X128601827Y-107716142D01*
X128619446Y-107727915D01*
X128629762Y-107721022D01*
X128729709Y-107597598D01*
X128737491Y-107586887D01*
X128941946Y-107272053D01*
X128948556Y-107260605D01*
X129118994Y-106926102D01*
X129124364Y-106914040D01*
X129258901Y-106563558D01*
X129262987Y-106550984D01*
X129360146Y-106188379D01*
X129362899Y-106175430D01*
X129421624Y-105804657D01*
X129423007Y-105791498D01*
X129442653Y-105416621D01*
X129442653Y-105403379D01*
X129423007Y-105028502D01*
X129421624Y-105015343D01*
X129362899Y-104644570D01*
X129360146Y-104631621D01*
X129262987Y-104269016D01*
X129258901Y-104256442D01*
X129124364Y-103905960D01*
X129118994Y-103893898D01*
X128948556Y-103559395D01*
X128941946Y-103547947D01*
X128737491Y-103233113D01*
X128729709Y-103222402D01*
X128635128Y-103105604D01*
X128618835Y-103092054D01*
X128607854Y-103097831D01*
X126313304Y-105392381D01*
X126301531Y-105410000D01*
X125269111Y-105410000D01*
X125288369Y-105313181D01*
X125343213Y-105231102D01*
X128036142Y-102538173D01*
X128047915Y-102520554D01*
X128041022Y-102510238D01*
X127917598Y-102410291D01*
X127906887Y-102402509D01*
X127592053Y-102198054D01*
X127580605Y-102191444D01*
X127246102Y-102021006D01*
X127234040Y-102015636D01*
X126883558Y-101881099D01*
X126870984Y-101877013D01*
X126508379Y-101779854D01*
X126495433Y-101777102D01*
X126450210Y-101769939D01*
X126357596Y-101735771D01*
X126285107Y-101668763D01*
X126243779Y-101579115D01*
X126241794Y-101566108D01*
X126241839Y-101565515D01*
X126239878Y-101556292D01*
X126238820Y-101550005D01*
X126239066Y-101536592D01*
X126225605Y-101487219D01*
X126222231Y-101473299D01*
X126215337Y-101440874D01*
X126215336Y-101440871D01*
X126211588Y-101423244D01*
X126208591Y-101417679D01*
X126209392Y-101417374D01*
X126202189Y-101398117D01*
X126086103Y-101087799D01*
X126082279Y-101076812D01*
X125866512Y-100407797D01*
X125862801Y-100395178D01*
X125682281Y-99716545D01*
X125679232Y-99703749D01*
X125583514Y-99250195D01*
X125534237Y-99016697D01*
X125531857Y-99003766D01*
X125530920Y-98997804D01*
X125478200Y-98662587D01*
X125422761Y-98310077D01*
X125421056Y-98297034D01*
X125356813Y-97681500D01*
X125348163Y-97598621D01*
X125347138Y-97585511D01*
X125344006Y-97525319D01*
X125313544Y-96940000D01*
X126144500Y-96940000D01*
X126144500Y-98640000D01*
X126144823Y-98644510D01*
X126144823Y-98644522D01*
X126146478Y-98667650D01*
X126149727Y-98713079D01*
X126153546Y-98726084D01*
X126153546Y-98726086D01*
X126183471Y-98828000D01*
X126190904Y-98853316D01*
X126200686Y-98868537D01*
X126254004Y-98951500D01*
X126269923Y-98976271D01*
X126311925Y-99012666D01*
X126362182Y-99056214D01*
X126380381Y-99071984D01*
X126513330Y-99132700D01*
X126523061Y-99134099D01*
X126605187Y-99177058D01*
X126622561Y-99192424D01*
X126623628Y-99193458D01*
X126626396Y-99196184D01*
X127270064Y-99839852D01*
X127291883Y-99864732D01*
X127299941Y-99875233D01*
X127308270Y-99882812D01*
X127308273Y-99882815D01*
X127356641Y-99926826D01*
X127365267Y-99935055D01*
X127379721Y-99949509D01*
X127398454Y-99965172D01*
X127406417Y-99972119D01*
X127452175Y-100013755D01*
X127466089Y-100026416D01*
X127475633Y-100032403D01*
X127480777Y-100036307D01*
X127494935Y-100046593D01*
X127500259Y-100050293D01*
X127508904Y-100057522D01*
X127518692Y-100063105D01*
X127518695Y-100063107D01*
X127578956Y-100097480D01*
X127588047Y-100102920D01*
X127656383Y-100145787D01*
X127666832Y-100149987D01*
X127672572Y-100152912D01*
X127688367Y-100160548D01*
X127694247Y-100163240D01*
X127704029Y-100168820D01*
X127714640Y-100172578D01*
X127714652Y-100172583D01*
X127780088Y-100195755D01*
X127789989Y-100199496D01*
X127864808Y-100229573D01*
X127875836Y-100231857D01*
X127882006Y-100233720D01*
X127898908Y-100238439D01*
X127905157Y-100240043D01*
X127915780Y-100243805D01*
X127995428Y-100256848D01*
X128005790Y-100258769D01*
X128075693Y-100273245D01*
X128075695Y-100273245D01*
X128084777Y-100275126D01*
X128094034Y-100275660D01*
X128094036Y-100275660D01*
X128105915Y-100276345D01*
X128117857Y-100277663D01*
X128126348Y-100278287D01*
X128137464Y-100280107D01*
X128237771Y-100278531D01*
X128241746Y-100278500D01*
X130413500Y-100278500D01*
X130510319Y-100297758D01*
X130592398Y-100352602D01*
X130647242Y-100434681D01*
X130666500Y-100531500D01*
X130666500Y-100770000D01*
X130666823Y-100774510D01*
X130666823Y-100774522D01*
X130667139Y-100778937D01*
X130671727Y-100843079D01*
X130675546Y-100856084D01*
X130675546Y-100856086D01*
X130707402Y-100964577D01*
X130712904Y-100983316D01*
X130722686Y-100998537D01*
X130780052Y-101087799D01*
X130791923Y-101106271D01*
X130830183Y-101139424D01*
X130886251Y-101188007D01*
X130902381Y-101201984D01*
X131035330Y-101262700D01*
X131180000Y-101283500D01*
X132458916Y-101283500D01*
X132555735Y-101302758D01*
X132637814Y-101357602D01*
X133700064Y-102419852D01*
X133721883Y-102444732D01*
X133729941Y-102455233D01*
X133738270Y-102462812D01*
X133738273Y-102462815D01*
X133786641Y-102506826D01*
X133795267Y-102515055D01*
X133809721Y-102529509D01*
X133828454Y-102545172D01*
X133836417Y-102552119D01*
X133896089Y-102606416D01*
X133905633Y-102612403D01*
X133910777Y-102616307D01*
X133924935Y-102626593D01*
X133930259Y-102630293D01*
X133938904Y-102637522D01*
X133948692Y-102643105D01*
X133948695Y-102643107D01*
X134008956Y-102677480D01*
X134018047Y-102682920D01*
X134086383Y-102725787D01*
X134096832Y-102729987D01*
X134102572Y-102732912D01*
X134118367Y-102740548D01*
X134124247Y-102743240D01*
X134134029Y-102748820D01*
X134144640Y-102752578D01*
X134144652Y-102752583D01*
X134210088Y-102775755D01*
X134219989Y-102779496D01*
X134294808Y-102809573D01*
X134305836Y-102811857D01*
X134312006Y-102813720D01*
X134328908Y-102818439D01*
X134335157Y-102820043D01*
X134345780Y-102823805D01*
X134425428Y-102836848D01*
X134435790Y-102838769D01*
X134505693Y-102853245D01*
X134505695Y-102853245D01*
X134514777Y-102855126D01*
X134524034Y-102855660D01*
X134524036Y-102855660D01*
X134535915Y-102856345D01*
X134547857Y-102857663D01*
X134556348Y-102858287D01*
X134567464Y-102860107D01*
X134667771Y-102858531D01*
X134671746Y-102858500D01*
X140300948Y-102858500D01*
X140333959Y-102860663D01*
X140347090Y-102862392D01*
X140423659Y-102858781D01*
X140435578Y-102858500D01*
X140456024Y-102858500D01*
X140480342Y-102856329D01*
X140490904Y-102855609D01*
X140508688Y-102854771D01*
X140560224Y-102852341D01*
X140560228Y-102852340D01*
X140571477Y-102851810D01*
X140582461Y-102849294D01*
X140588851Y-102848419D01*
X140606183Y-102845674D01*
X140612527Y-102844533D01*
X140623747Y-102843531D01*
X140634612Y-102840559D01*
X140634616Y-102840558D01*
X140701536Y-102822251D01*
X140711812Y-102819670D01*
X140779455Y-102804177D01*
X140779459Y-102804176D01*
X140790443Y-102801660D01*
X140800804Y-102797241D01*
X140806956Y-102795242D01*
X140823482Y-102789487D01*
X140829552Y-102787230D01*
X140840421Y-102784256D01*
X140854556Y-102777514D01*
X140913242Y-102749523D01*
X140922851Y-102745184D01*
X140997068Y-102713527D01*
X141006494Y-102707335D01*
X141012216Y-102704267D01*
X141027444Y-102695687D01*
X141033005Y-102692398D01*
X141043174Y-102687548D01*
X141108710Y-102640455D01*
X141117409Y-102634477D01*
X141184820Y-102590196D01*
X141197070Y-102579282D01*
X141200631Y-102576109D01*
X141210006Y-102568598D01*
X141216452Y-102563034D01*
X141225597Y-102556463D01*
X141295396Y-102484436D01*
X141298184Y-102481604D01*
X144301602Y-99478186D01*
X144383681Y-99423342D01*
X144480500Y-99404084D01*
X144577319Y-99423342D01*
X144659398Y-99478186D01*
X144714242Y-99560265D01*
X144733500Y-99657084D01*
X144733500Y-101285116D01*
X144733486Y-101287764D01*
X144733124Y-101322399D01*
X144732665Y-101366209D01*
X144735654Y-101380035D01*
X144735655Y-101380042D01*
X144740465Y-101402288D01*
X144744602Y-101427551D01*
X144748716Y-101464230D01*
X144757189Y-101488561D01*
X144765545Y-101518291D01*
X144766817Y-101524174D01*
X144770990Y-101543474D01*
X144786588Y-101576922D01*
X144796220Y-101600644D01*
X144808359Y-101635502D01*
X144815854Y-101647496D01*
X144815856Y-101647501D01*
X144822014Y-101657356D01*
X144836751Y-101684498D01*
X144841657Y-101695018D01*
X144847637Y-101707841D01*
X144856307Y-101719018D01*
X144870257Y-101737003D01*
X144884893Y-101757982D01*
X144904465Y-101789304D01*
X144914430Y-101799338D01*
X144914431Y-101799340D01*
X144932690Y-101817727D01*
X144933755Y-101818865D01*
X144934729Y-101820121D01*
X144983177Y-101868569D01*
X144983800Y-101869194D01*
X145032258Y-101917991D01*
X145033123Y-101918540D01*
X145033364Y-101918756D01*
X145225113Y-102110505D01*
X145226976Y-102112388D01*
X145281844Y-102168417D01*
X145312874Y-102188415D01*
X145333647Y-102203341D01*
X145362505Y-102226378D01*
X145375235Y-102232532D01*
X145375243Y-102232537D01*
X145385693Y-102237588D01*
X145412634Y-102252706D01*
X145434289Y-102266662D01*
X145468985Y-102279290D01*
X145492554Y-102289247D01*
X145513051Y-102299156D01*
X145513057Y-102299158D01*
X145525787Y-102305312D01*
X145539572Y-102308494D01*
X145539571Y-102308494D01*
X145550887Y-102311107D01*
X145580502Y-102319879D01*
X145591418Y-102323852D01*
X145591424Y-102323853D01*
X145604712Y-102328690D01*
X145618741Y-102330462D01*
X145618744Y-102330463D01*
X145641322Y-102333315D01*
X145666527Y-102337805D01*
X145688710Y-102342926D01*
X145688712Y-102342926D01*
X145702498Y-102346109D01*
X145716648Y-102346158D01*
X145720145Y-102346563D01*
X145814109Y-102376820D01*
X145889342Y-102440733D01*
X145934390Y-102528571D01*
X145943069Y-102620377D01*
X145941170Y-102641658D01*
X145937001Y-102688369D01*
X145936500Y-102693978D01*
X145936500Y-103592886D01*
X145951978Y-103725643D01*
X145956992Y-103739455D01*
X145956992Y-103739457D01*
X146007217Y-103877824D01*
X146012313Y-103891864D01*
X146020368Y-103904150D01*
X146020370Y-103904154D01*
X146096931Y-104020928D01*
X146109269Y-104039747D01*
X146237645Y-104161358D01*
X146250351Y-104168738D01*
X146250352Y-104168739D01*
X146385573Y-104247281D01*
X146459621Y-104312563D01*
X146503050Y-104401212D01*
X146511500Y-104466054D01*
X146511500Y-104970312D01*
X146492242Y-105067131D01*
X146437398Y-105149210D01*
X146406210Y-105180398D01*
X146324131Y-105235242D01*
X146227312Y-105254500D01*
X145200000Y-105254500D01*
X145195490Y-105254823D01*
X145195478Y-105254823D01*
X145159785Y-105257376D01*
X145126921Y-105259727D01*
X145113916Y-105263546D01*
X145113914Y-105263546D01*
X145004045Y-105295806D01*
X145004043Y-105295807D01*
X144986684Y-105300904D01*
X144971463Y-105310686D01*
X144878951Y-105370140D01*
X144878949Y-105370141D01*
X144863729Y-105379923D01*
X144822400Y-105427619D01*
X144794841Y-105459424D01*
X144768016Y-105490381D01*
X144707300Y-105623330D01*
X144686500Y-105768000D01*
X144686500Y-107468000D01*
X144686823Y-107472510D01*
X144686823Y-107472522D01*
X144687139Y-107476937D01*
X144691727Y-107541079D01*
X144695546Y-107554084D01*
X144695546Y-107554086D01*
X144727798Y-107663926D01*
X144732904Y-107681316D01*
X144742686Y-107696537D01*
X144801931Y-107788723D01*
X144811923Y-107804271D01*
X144922381Y-107899984D01*
X144938841Y-107907501D01*
X145035632Y-107951704D01*
X145055330Y-107960700D01*
X145200000Y-107981500D01*
X146900000Y-107981500D01*
X146904510Y-107981177D01*
X146904522Y-107981177D01*
X146940215Y-107978624D01*
X146973079Y-107976273D01*
X146986084Y-107972454D01*
X146986086Y-107972454D01*
X147095955Y-107940194D01*
X147095957Y-107940193D01*
X147113316Y-107935096D01*
X147142149Y-107916566D01*
X147221049Y-107865860D01*
X147221051Y-107865859D01*
X147236271Y-107856077D01*
X147294228Y-107789192D01*
X147320133Y-107759296D01*
X147320134Y-107759295D01*
X147331984Y-107745619D01*
X147339501Y-107729159D01*
X147345535Y-107719770D01*
X147414081Y-107648734D01*
X147504594Y-107609335D01*
X147603294Y-107607574D01*
X147695155Y-107643718D01*
X147719968Y-107661887D01*
X147807929Y-107734914D01*
X147849193Y-107759027D01*
X147991227Y-107842025D01*
X148000851Y-107847649D01*
X148209596Y-107927360D01*
X148314579Y-107948719D01*
X148418385Y-107969839D01*
X148418389Y-107969839D01*
X148428556Y-107971908D01*
X148551494Y-107976416D01*
X148641481Y-107979716D01*
X148641485Y-107979716D01*
X148651852Y-107980096D01*
X148873488Y-107951704D01*
X148883434Y-107948720D01*
X148883439Y-107948719D01*
X149022225Y-107907081D01*
X149087509Y-107887495D01*
X149096831Y-107882928D01*
X149096834Y-107882927D01*
X149278846Y-107793760D01*
X149278848Y-107793759D01*
X149288170Y-107789192D01*
X149296619Y-107783165D01*
X149296623Y-107783163D01*
X149461625Y-107665468D01*
X149470082Y-107659436D01*
X149480822Y-107648734D01*
X149577396Y-107552495D01*
X149628357Y-107501711D01*
X149634413Y-107493283D01*
X149634420Y-107493275D01*
X149654199Y-107465750D01*
X149726337Y-107398363D01*
X149818771Y-107363712D01*
X149917430Y-107367072D01*
X150007292Y-107407931D01*
X150050886Y-107447738D01*
X150169204Y-107584328D01*
X150169209Y-107584333D01*
X150176009Y-107592183D01*
X150184002Y-107598819D01*
X150339939Y-107728281D01*
X150339942Y-107728283D01*
X150347929Y-107734914D01*
X150389193Y-107759027D01*
X150531227Y-107842025D01*
X150540851Y-107847649D01*
X150749596Y-107927360D01*
X150854579Y-107948719D01*
X150958385Y-107969839D01*
X150958389Y-107969839D01*
X150968556Y-107971908D01*
X151091494Y-107976416D01*
X151181481Y-107979716D01*
X151181485Y-107979716D01*
X151191852Y-107980096D01*
X151413488Y-107951704D01*
X151423434Y-107948720D01*
X151423439Y-107948719D01*
X151562225Y-107907081D01*
X151627509Y-107887495D01*
X151636831Y-107882928D01*
X151636834Y-107882927D01*
X151818846Y-107793760D01*
X151818848Y-107793759D01*
X151828170Y-107789192D01*
X151836619Y-107783165D01*
X151836623Y-107783163D01*
X152001625Y-107665468D01*
X152010082Y-107659436D01*
X152020822Y-107648734D01*
X152117396Y-107552495D01*
X152168357Y-107501711D01*
X152174413Y-107493283D01*
X152174420Y-107493275D01*
X152194199Y-107465750D01*
X152266337Y-107398363D01*
X152358771Y-107363712D01*
X152457430Y-107367072D01*
X152547292Y-107407931D01*
X152590886Y-107447738D01*
X152709204Y-107584328D01*
X152709209Y-107584333D01*
X152716009Y-107592183D01*
X152724002Y-107598819D01*
X152879939Y-107728281D01*
X152879942Y-107728283D01*
X152887929Y-107734914D01*
X152929193Y-107759027D01*
X153071227Y-107842025D01*
X153080851Y-107847649D01*
X153289596Y-107927360D01*
X153394579Y-107948719D01*
X153498385Y-107969839D01*
X153498389Y-107969839D01*
X153508556Y-107971908D01*
X153631494Y-107976416D01*
X153721481Y-107979716D01*
X153721485Y-107979716D01*
X153731852Y-107980096D01*
X153953488Y-107951704D01*
X153963434Y-107948720D01*
X153963439Y-107948719D01*
X154102225Y-107907081D01*
X154167509Y-107887495D01*
X154176831Y-107882928D01*
X154176834Y-107882927D01*
X154358846Y-107793760D01*
X154358848Y-107793759D01*
X154368170Y-107789192D01*
X154376619Y-107783165D01*
X154376623Y-107783163D01*
X154541630Y-107665465D01*
X154541632Y-107665463D01*
X154550082Y-107659436D01*
X154550598Y-107660159D01*
X154629194Y-107616683D01*
X154727285Y-107605596D01*
X154822153Y-107632890D01*
X154899354Y-107694410D01*
X154918949Y-107720927D01*
X154962518Y-107788723D01*
X154985975Y-107815793D01*
X155068973Y-107887711D01*
X155099113Y-107907081D01*
X155199011Y-107952703D01*
X155233383Y-107962795D01*
X155351063Y-107979715D01*
X155369029Y-107981000D01*
X155785082Y-107981000D01*
X155805866Y-107976866D01*
X155810000Y-107956082D01*
X155810000Y-107042918D01*
X156610000Y-107042918D01*
X156610000Y-107956082D01*
X156614134Y-107976866D01*
X156634918Y-107981000D01*
X157055471Y-107981000D01*
X157064522Y-107980677D01*
X157119485Y-107976745D01*
X157146014Y-107971959D01*
X157255749Y-107939738D01*
X157288328Y-107924860D01*
X157380723Y-107865482D01*
X157407793Y-107842025D01*
X157479711Y-107759027D01*
X157499081Y-107728887D01*
X157544703Y-107628989D01*
X157554795Y-107594617D01*
X157571715Y-107476937D01*
X157573000Y-107458965D01*
X157573000Y-107042918D01*
X157568866Y-107022134D01*
X157548082Y-107018000D01*
X156634918Y-107018000D01*
X156614134Y-107022134D01*
X156610000Y-107042918D01*
X155810000Y-107042918D01*
X155810000Y-105279918D01*
X156610000Y-105279918D01*
X156610000Y-106193082D01*
X156614134Y-106213866D01*
X156634918Y-106218000D01*
X157548082Y-106218000D01*
X157568866Y-106213866D01*
X157573000Y-106193082D01*
X157573000Y-105772529D01*
X157572677Y-105763478D01*
X157568745Y-105708515D01*
X157563959Y-105681986D01*
X157531738Y-105572251D01*
X157516860Y-105539672D01*
X157457482Y-105447277D01*
X157434025Y-105420207D01*
X157351027Y-105348289D01*
X157320887Y-105328919D01*
X157220989Y-105283297D01*
X157186617Y-105273205D01*
X157068937Y-105256285D01*
X157050971Y-105255000D01*
X156634918Y-105255000D01*
X156614134Y-105259134D01*
X156610000Y-105279918D01*
X155810000Y-105279918D01*
X155805866Y-105259134D01*
X155785082Y-105255000D01*
X155364529Y-105255000D01*
X155355478Y-105255323D01*
X155300515Y-105259255D01*
X155273986Y-105264041D01*
X155164251Y-105296262D01*
X155131672Y-105311140D01*
X155039277Y-105370518D01*
X155012207Y-105393975D01*
X154940286Y-105476976D01*
X154915157Y-105516078D01*
X154846611Y-105587116D01*
X154756099Y-105626514D01*
X154657399Y-105628276D01*
X154565538Y-105592133D01*
X154545517Y-105577845D01*
X154432700Y-105488749D01*
X154432698Y-105488748D01*
X154424549Y-105482312D01*
X154264528Y-105393975D01*
X154238026Y-105379345D01*
X154238023Y-105379344D01*
X154228930Y-105374324D01*
X154018300Y-105299736D01*
X154008080Y-105297916D01*
X154008078Y-105297915D01*
X153808540Y-105262372D01*
X153798317Y-105260551D01*
X153787937Y-105260424D01*
X153787935Y-105260424D01*
X153672123Y-105259009D01*
X153574887Y-105257821D01*
X153354012Y-105291620D01*
X153344139Y-105294847D01*
X153344135Y-105294848D01*
X153151498Y-105357812D01*
X153141622Y-105361040D01*
X152943423Y-105464216D01*
X152935120Y-105470450D01*
X152799534Y-105572251D01*
X152764737Y-105598377D01*
X152757560Y-105605888D01*
X152757557Y-105605890D01*
X152736165Y-105628276D01*
X152610361Y-105759922D01*
X152604510Y-105768499D01*
X152597976Y-105776568D01*
X152595815Y-105774818D01*
X152538598Y-105830945D01*
X152447037Y-105867843D01*
X152348326Y-105866894D01*
X152257492Y-105828241D01*
X152211574Y-105784896D01*
X152210287Y-105786067D01*
X152100668Y-105665597D01*
X152059905Y-105620799D01*
X152034694Y-105600889D01*
X151970651Y-105525771D01*
X151940228Y-105431860D01*
X151938500Y-105402342D01*
X151938500Y-103574918D01*
X159907000Y-103574918D01*
X159907000Y-103585546D01*
X159907850Y-103600172D01*
X159920763Y-103710932D01*
X159927479Y-103739342D01*
X159977745Y-103877824D01*
X159990820Y-103903934D01*
X160071593Y-104027132D01*
X160090322Y-104049533D01*
X160197280Y-104150855D01*
X160220651Y-104168338D01*
X160348043Y-104242334D01*
X160374822Y-104253978D01*
X160517458Y-104297178D01*
X160542817Y-104302095D01*
X160603369Y-104307500D01*
X160614603Y-104308000D01*
X160865082Y-104308000D01*
X160885866Y-104303866D01*
X160890000Y-104283082D01*
X160890000Y-103574918D01*
X160885866Y-103554134D01*
X160865082Y-103550000D01*
X159931918Y-103550000D01*
X159911134Y-103554134D01*
X159907000Y-103574918D01*
X151938500Y-103574918D01*
X151938500Y-103271500D01*
X151957758Y-103174681D01*
X152012602Y-103092602D01*
X152094681Y-103037758D01*
X152191500Y-103018500D01*
X152589579Y-103018500D01*
X152619810Y-103014681D01*
X152699216Y-103004650D01*
X152699218Y-103004649D01*
X152715006Y-103002655D01*
X152751846Y-102988069D01*
X152854847Y-102947288D01*
X152854850Y-102947287D01*
X152869644Y-102941429D01*
X152882515Y-102932078D01*
X152882520Y-102932075D01*
X152885327Y-102930035D01*
X152890921Y-102927456D01*
X152896471Y-102924405D01*
X152896687Y-102924798D01*
X152974974Y-102888706D01*
X153073614Y-102884830D01*
X153162147Y-102918283D01*
X153164479Y-102920212D01*
X153178886Y-102926991D01*
X153178887Y-102926992D01*
X153246774Y-102958937D01*
X153314967Y-102991026D01*
X153330594Y-102994007D01*
X153330597Y-102994008D01*
X153447277Y-103016266D01*
X153447279Y-103016266D01*
X153458989Y-103018500D01*
X153859579Y-103018500D01*
X153889810Y-103014681D01*
X153969216Y-103004650D01*
X153969218Y-103004649D01*
X153985006Y-103002655D01*
X154021846Y-102988069D01*
X154124847Y-102947288D01*
X154124850Y-102947287D01*
X154139644Y-102941429D01*
X154152515Y-102932078D01*
X154152520Y-102932075D01*
X154155769Y-102929714D01*
X154162239Y-102926731D01*
X154166471Y-102924405D01*
X154166636Y-102924705D01*
X154245418Y-102888388D01*
X154344058Y-102884515D01*
X154440036Y-102920783D01*
X154449148Y-102926566D01*
X154570718Y-102983772D01*
X154600759Y-102993533D01*
X154615523Y-102996350D01*
X154636713Y-102996183D01*
X154640000Y-102988069D01*
X154640000Y-101859918D01*
X155240000Y-101859918D01*
X155240000Y-102979133D01*
X155244134Y-102999917D01*
X155250617Y-103001206D01*
X155269682Y-102996311D01*
X155394602Y-102946851D01*
X155422281Y-102931634D01*
X155530975Y-102852664D01*
X155554003Y-102831039D01*
X155639641Y-102727520D01*
X155656568Y-102700847D01*
X155657153Y-102699603D01*
X159907000Y-102699603D01*
X159907000Y-102725082D01*
X159911134Y-102745866D01*
X159931918Y-102750000D01*
X160865082Y-102750000D01*
X160885866Y-102745866D01*
X160890000Y-102725082D01*
X160890000Y-102016918D01*
X160885866Y-101996134D01*
X160865082Y-101992000D01*
X160629454Y-101992000D01*
X160614828Y-101992850D01*
X160504068Y-102005763D01*
X160475658Y-102012479D01*
X160337176Y-102062745D01*
X160311066Y-102075820D01*
X160187868Y-102156593D01*
X160165467Y-102175322D01*
X160064145Y-102282280D01*
X160046662Y-102305651D01*
X159972666Y-102433043D01*
X159961022Y-102459822D01*
X159917822Y-102602458D01*
X159912905Y-102627817D01*
X159907500Y-102688369D01*
X159907000Y-102699603D01*
X155657153Y-102699603D01*
X155713772Y-102579282D01*
X155723533Y-102549241D01*
X155745763Y-102432708D01*
X155748000Y-102409051D01*
X155748000Y-101859918D01*
X155743866Y-101839134D01*
X155723082Y-101835000D01*
X155264918Y-101835000D01*
X155244134Y-101839134D01*
X155240000Y-101859918D01*
X154640000Y-101859918D01*
X154640000Y-101488000D01*
X154659258Y-101391181D01*
X154714102Y-101309102D01*
X154796181Y-101254258D01*
X154893000Y-101235000D01*
X155723082Y-101235000D01*
X155746103Y-101230421D01*
X155758358Y-101222232D01*
X155849559Y-101184455D01*
X155948275Y-101184454D01*
X156039477Y-101222230D01*
X156109280Y-101292032D01*
X156136739Y-101346275D01*
X156142747Y-101362827D01*
X156155820Y-101388934D01*
X156236593Y-101512132D01*
X156255322Y-101534533D01*
X156362280Y-101635855D01*
X156385651Y-101653338D01*
X156513043Y-101727334D01*
X156539822Y-101738978D01*
X156682458Y-101782178D01*
X156707817Y-101787095D01*
X156768369Y-101792500D01*
X156779603Y-101793000D01*
X157055082Y-101793000D01*
X157075866Y-101788866D01*
X157080000Y-101768082D01*
X157080000Y-101047418D01*
X157880000Y-101047418D01*
X157880000Y-101768082D01*
X157884134Y-101788866D01*
X157904918Y-101793000D01*
X158165546Y-101793000D01*
X158180172Y-101792150D01*
X158290932Y-101779237D01*
X158319342Y-101772521D01*
X158457824Y-101722255D01*
X158483934Y-101709180D01*
X158607132Y-101628407D01*
X158629533Y-101609678D01*
X158730855Y-101502720D01*
X158748338Y-101479349D01*
X158822334Y-101351957D01*
X158833978Y-101325178D01*
X158877178Y-101182542D01*
X158882095Y-101157183D01*
X158887500Y-101096631D01*
X158888000Y-101085397D01*
X158888000Y-101047418D01*
X158883866Y-101026634D01*
X158863082Y-101022500D01*
X157904918Y-101022500D01*
X157884134Y-101026634D01*
X157880000Y-101047418D01*
X157080000Y-101047418D01*
X157080000Y-99476918D01*
X157880000Y-99476918D01*
X157880000Y-100197582D01*
X157884134Y-100218366D01*
X157904918Y-100222500D01*
X158863082Y-100222500D01*
X158883866Y-100218366D01*
X158888000Y-100197582D01*
X158888000Y-100174454D01*
X158887150Y-100159828D01*
X158874237Y-100049068D01*
X158867521Y-100020658D01*
X158817255Y-99882176D01*
X158804180Y-99856066D01*
X158723407Y-99732868D01*
X158704678Y-99710467D01*
X158597720Y-99609145D01*
X158574349Y-99591662D01*
X158446957Y-99517666D01*
X158420178Y-99506022D01*
X158277542Y-99462822D01*
X158252183Y-99457905D01*
X158191631Y-99452500D01*
X158180397Y-99452000D01*
X157904918Y-99452000D01*
X157884134Y-99456134D01*
X157880000Y-99476918D01*
X157080000Y-99476918D01*
X157075866Y-99456134D01*
X157055082Y-99452000D01*
X156794454Y-99452000D01*
X156779828Y-99452850D01*
X156669068Y-99465763D01*
X156640658Y-99472479D01*
X156502176Y-99522745D01*
X156476066Y-99535820D01*
X156352868Y-99616593D01*
X156330467Y-99635322D01*
X156229145Y-99742280D01*
X156211662Y-99765651D01*
X156137666Y-99893043D01*
X156126022Y-99919822D01*
X156082822Y-100062458D01*
X156077905Y-100087817D01*
X156072500Y-100148369D01*
X156072000Y-100159603D01*
X156072000Y-100163885D01*
X156071754Y-100165121D01*
X156071749Y-100165237D01*
X156071731Y-100165236D01*
X156052742Y-100260704D01*
X155997898Y-100342783D01*
X155915819Y-100397627D01*
X155819000Y-100416885D01*
X155722181Y-100397627D01*
X155640102Y-100342783D01*
X155614318Y-100312594D01*
X155582662Y-100269023D01*
X155561040Y-100245998D01*
X155550814Y-100237538D01*
X155488491Y-100160983D01*
X155460208Y-100066406D01*
X155470270Y-99968205D01*
X155473184Y-99959420D01*
X155473263Y-99959083D01*
X155478006Y-99945763D01*
X155478810Y-99939018D01*
X155480218Y-99934049D01*
X155595444Y-99588371D01*
X155703246Y-99264966D01*
X155705496Y-99258509D01*
X155730690Y-99189288D01*
X155734358Y-99160253D01*
X155736438Y-99143787D01*
X155740004Y-99122743D01*
X155746618Y-99091718D01*
X155749569Y-99077877D01*
X155748523Y-98999527D01*
X155748500Y-98996150D01*
X155748500Y-98490895D01*
X155767758Y-98394076D01*
X155822602Y-98311997D01*
X155904681Y-98257153D01*
X156001500Y-98237895D01*
X156098319Y-98257153D01*
X156180398Y-98311997D01*
X156213081Y-98352178D01*
X156236211Y-98387457D01*
X156244269Y-98399747D01*
X156372645Y-98521358D01*
X156385351Y-98528738D01*
X156385352Y-98528739D01*
X156459122Y-98571588D01*
X156525555Y-98610175D01*
X156539621Y-98614435D01*
X156539623Y-98614436D01*
X156682370Y-98657670D01*
X156682374Y-98657671D01*
X156694796Y-98661433D01*
X156731350Y-98664695D01*
X156768371Y-98668000D01*
X156768381Y-98668000D01*
X156773978Y-98668500D01*
X158172886Y-98668500D01*
X158238746Y-98660821D01*
X158291047Y-98654724D01*
X158291049Y-98654723D01*
X158305643Y-98653022D01*
X158319455Y-98648008D01*
X158319457Y-98648008D01*
X158458049Y-98597702D01*
X158458052Y-98597700D01*
X158471864Y-98592687D01*
X158484150Y-98584632D01*
X158484154Y-98584630D01*
X158607461Y-98503786D01*
X158619747Y-98495731D01*
X158741358Y-98367355D01*
X158750174Y-98352178D01*
X158822793Y-98227154D01*
X158830175Y-98214445D01*
X158863216Y-98105353D01*
X158877670Y-98057630D01*
X158877671Y-98057626D01*
X158881433Y-98045204D01*
X158888500Y-97966022D01*
X158888500Y-97042114D01*
X158876595Y-96940000D01*
X158874724Y-96923953D01*
X158874723Y-96923951D01*
X158873022Y-96909357D01*
X158868008Y-96895543D01*
X158817702Y-96756951D01*
X158817700Y-96756948D01*
X158812687Y-96743136D01*
X158804632Y-96730850D01*
X158804630Y-96730846D01*
X158723786Y-96607539D01*
X158715731Y-96595253D01*
X158684429Y-96565600D01*
X158611538Y-96496551D01*
X158587355Y-96473642D01*
X158570704Y-96463970D01*
X158447154Y-96392207D01*
X158434445Y-96384825D01*
X158420379Y-96380565D01*
X158420377Y-96380564D01*
X158277630Y-96337330D01*
X158277626Y-96337329D01*
X158265204Y-96333567D01*
X158228650Y-96330305D01*
X158191629Y-96327000D01*
X158191619Y-96327000D01*
X158186022Y-96326500D01*
X157271500Y-96326500D01*
X157174681Y-96307242D01*
X157092602Y-96252398D01*
X157037758Y-96170319D01*
X157018500Y-96073500D01*
X157018500Y-94941342D01*
X157037758Y-94844523D01*
X157092602Y-94762444D01*
X157158219Y-94715120D01*
X157163047Y-94712702D01*
X157176864Y-94707687D01*
X157189156Y-94699628D01*
X157189160Y-94699626D01*
X157303460Y-94624688D01*
X157394987Y-94587708D01*
X157493699Y-94588569D01*
X157584568Y-94627141D01*
X157616169Y-94652594D01*
X157667645Y-94701358D01*
X157680351Y-94708738D01*
X157680352Y-94708739D01*
X157776576Y-94764630D01*
X157820555Y-94790175D01*
X157834621Y-94794435D01*
X157834623Y-94794436D01*
X157977370Y-94837670D01*
X157977374Y-94837671D01*
X157989796Y-94841433D01*
X158024418Y-94844523D01*
X158063371Y-94848000D01*
X158063381Y-94848000D01*
X158068978Y-94848500D01*
X159417886Y-94848500D01*
X159483746Y-94840821D01*
X159536047Y-94834724D01*
X159536049Y-94834723D01*
X159550643Y-94833022D01*
X159564455Y-94828008D01*
X159564457Y-94828008D01*
X159703049Y-94777702D01*
X159703052Y-94777700D01*
X159716864Y-94772687D01*
X159729150Y-94764632D01*
X159729154Y-94764630D01*
X159852461Y-94683786D01*
X159864747Y-94675731D01*
X159986358Y-94547355D01*
X160005299Y-94514747D01*
X160009727Y-94507123D01*
X160075009Y-94433075D01*
X160163658Y-94389645D01*
X160262179Y-94383447D01*
X160355572Y-94415422D01*
X160429620Y-94480704D01*
X160473050Y-94569353D01*
X160481500Y-94634195D01*
X160481500Y-98733658D01*
X160462242Y-98830477D01*
X160407398Y-98912556D01*
X160341781Y-98959880D01*
X160336953Y-98962298D01*
X160323136Y-98967313D01*
X160175253Y-99064269D01*
X160053642Y-99192645D01*
X160046262Y-99205351D01*
X160046261Y-99205352D01*
X160036451Y-99222242D01*
X159964825Y-99345555D01*
X159960565Y-99359621D01*
X159960564Y-99359623D01*
X159920057Y-99493368D01*
X159913567Y-99514796D01*
X159912413Y-99527729D01*
X159908634Y-99570073D01*
X159906500Y-99593978D01*
X159906500Y-100492886D01*
X159921978Y-100625643D01*
X159926992Y-100639455D01*
X159926992Y-100639457D01*
X159974627Y-100770688D01*
X159982313Y-100791864D01*
X159990368Y-100804150D01*
X159990370Y-100804154D01*
X160040521Y-100880646D01*
X160079269Y-100939747D01*
X160207645Y-101061358D01*
X160220351Y-101068738D01*
X160220352Y-101068739D01*
X160305372Y-101118122D01*
X160360555Y-101150175D01*
X160374621Y-101154435D01*
X160374623Y-101154436D01*
X160517370Y-101197670D01*
X160517374Y-101197671D01*
X160529796Y-101201433D01*
X160566350Y-101204695D01*
X160603371Y-101208000D01*
X160603381Y-101208000D01*
X160608978Y-101208500D01*
X161957886Y-101208500D01*
X162023746Y-101200821D01*
X162076047Y-101194724D01*
X162076049Y-101194723D01*
X162090643Y-101193022D01*
X162104456Y-101188008D01*
X162104461Y-101188007D01*
X162238304Y-101139424D01*
X162335884Y-101124492D01*
X162431750Y-101148038D01*
X162511308Y-101206479D01*
X162547090Y-101260543D01*
X162547904Y-101263316D01*
X162557686Y-101278537D01*
X162557687Y-101278539D01*
X162614030Y-101366209D01*
X162626923Y-101386271D01*
X162651599Y-101407653D01*
X162712154Y-101485605D01*
X162738271Y-101580804D01*
X162725969Y-101678750D01*
X162677121Y-101764533D01*
X162595289Y-101858973D01*
X162575921Y-101889110D01*
X162557910Y-101928548D01*
X162500171Y-102008617D01*
X162416187Y-102060495D01*
X162318742Y-102076286D01*
X162226887Y-102055462D01*
X162205177Y-102046022D01*
X162062542Y-102002822D01*
X162037183Y-101997905D01*
X161976631Y-101992500D01*
X161965397Y-101992000D01*
X161714918Y-101992000D01*
X161694134Y-101996134D01*
X161690000Y-102016918D01*
X161690000Y-104283082D01*
X161694134Y-104303866D01*
X161714918Y-104308000D01*
X161950546Y-104308000D01*
X161965172Y-104307150D01*
X162075932Y-104294237D01*
X162104342Y-104287521D01*
X162242824Y-104237255D01*
X162268934Y-104224180D01*
X162392132Y-104143407D01*
X162414533Y-104124678D01*
X162515855Y-104017720D01*
X162533338Y-103994349D01*
X162607334Y-103866957D01*
X162618978Y-103840178D01*
X162662178Y-103697542D01*
X162669566Y-103659442D01*
X162672697Y-103660049D01*
X162693996Y-103587460D01*
X162755922Y-103510584D01*
X162842553Y-103463258D01*
X162940701Y-103452687D01*
X162954206Y-103454259D01*
X163006066Y-103461715D01*
X163024029Y-103463000D01*
X163040082Y-103463000D01*
X163060866Y-103458866D01*
X163065000Y-103438082D01*
X163065000Y-102403000D01*
X163084258Y-102306181D01*
X163139102Y-102224102D01*
X163221181Y-102169258D01*
X163318000Y-102150000D01*
X163612000Y-102150000D01*
X163708819Y-102169258D01*
X163790898Y-102224102D01*
X163845742Y-102306181D01*
X163865000Y-102403000D01*
X163865000Y-103438082D01*
X163869134Y-103458866D01*
X163889918Y-103463000D01*
X163910471Y-103463000D01*
X163919522Y-103462677D01*
X163974485Y-103458745D01*
X164001014Y-103453959D01*
X164110749Y-103421738D01*
X164143328Y-103406860D01*
X164235723Y-103347482D01*
X164262793Y-103324025D01*
X164334711Y-103241027D01*
X164354081Y-103210887D01*
X164399703Y-103110989D01*
X164409795Y-103076617D01*
X164426715Y-102958937D01*
X164428000Y-102940971D01*
X164428000Y-102892473D01*
X164447258Y-102795654D01*
X164502102Y-102713575D01*
X164584181Y-102658731D01*
X164681000Y-102639473D01*
X164777819Y-102658731D01*
X164815443Y-102678151D01*
X164881834Y-102719798D01*
X164881843Y-102719803D01*
X164891383Y-102725787D01*
X164969884Y-102757344D01*
X165089359Y-102805373D01*
X165089364Y-102805374D01*
X165099808Y-102809573D01*
X165110836Y-102811857D01*
X165110840Y-102811858D01*
X165310693Y-102853245D01*
X165310696Y-102853245D01*
X165319777Y-102855126D01*
X165378289Y-102858500D01*
X166670513Y-102858500D01*
X166767332Y-102877758D01*
X166849411Y-102932602D01*
X166904255Y-103014681D01*
X166923513Y-103111500D01*
X166904255Y-103208319D01*
X166849411Y-103290398D01*
X166767332Y-103345242D01*
X166752882Y-103350716D01*
X166520800Y-103430628D01*
X166520795Y-103430630D01*
X166512858Y-103433363D01*
X166505350Y-103437123D01*
X166505347Y-103437124D01*
X166252105Y-103563938D01*
X166252102Y-103563940D01*
X166244593Y-103567700D01*
X166158578Y-103626156D01*
X166033665Y-103711047D01*
X165996450Y-103736338D01*
X165772791Y-103936312D01*
X165577545Y-104164110D01*
X165414141Y-104415730D01*
X165410541Y-104423312D01*
X165305480Y-104644570D01*
X165285451Y-104686750D01*
X165193736Y-104972410D01*
X165140606Y-105267690D01*
X165140225Y-105276075D01*
X165140225Y-105276077D01*
X165128887Y-105525771D01*
X165126996Y-105567403D01*
X165127727Y-105575758D01*
X165127727Y-105575759D01*
X165149817Y-105828241D01*
X165153145Y-105866283D01*
X165218593Y-106159080D01*
X165322190Y-106440648D01*
X165462116Y-106706042D01*
X165466973Y-106712876D01*
X165466977Y-106712883D01*
X165631049Y-106943754D01*
X165635913Y-106950598D01*
X165641638Y-106956737D01*
X165834798Y-107163876D01*
X165834803Y-107163881D01*
X165840528Y-107170020D01*
X165847022Y-107175354D01*
X166065874Y-107355123D01*
X166065882Y-107355128D01*
X166072365Y-107360454D01*
X166079499Y-107364877D01*
X166079500Y-107364878D01*
X166225942Y-107455676D01*
X166327351Y-107518552D01*
X166335004Y-107521991D01*
X166335007Y-107521993D01*
X166593352Y-107638098D01*
X166593356Y-107638099D01*
X166601007Y-107641538D01*
X166888525Y-107727251D01*
X166896813Y-107728564D01*
X166896819Y-107728565D01*
X167177874Y-107773079D01*
X167177880Y-107773080D01*
X167184853Y-107774184D01*
X167227796Y-107776134D01*
X167277047Y-107778371D01*
X167277062Y-107778371D01*
X167279895Y-107778500D01*
X169965277Y-107778500D01*
X170189362Y-107763616D01*
X170197586Y-107761958D01*
X170197592Y-107761957D01*
X170364586Y-107728285D01*
X170483465Y-107704315D01*
X170596285Y-107665468D01*
X170759200Y-107609372D01*
X170759205Y-107609370D01*
X170767142Y-107606637D01*
X170774653Y-107602876D01*
X171027895Y-107476062D01*
X171027898Y-107476060D01*
X171035407Y-107472300D01*
X171283550Y-107303662D01*
X171507209Y-107103688D01*
X171702455Y-106875890D01*
X171865859Y-106624270D01*
X171994549Y-106353250D01*
X171998940Y-106339576D01*
X172050626Y-106178591D01*
X172086264Y-106067590D01*
X172104930Y-105963850D01*
X172141029Y-105871972D01*
X172175033Y-105829755D01*
X172601409Y-105403379D01*
X177262347Y-105403379D01*
X177262347Y-105416621D01*
X177281993Y-105791498D01*
X177283376Y-105804657D01*
X177342101Y-106175430D01*
X177344854Y-106188379D01*
X177442013Y-106550984D01*
X177446099Y-106563558D01*
X177580636Y-106914040D01*
X177586006Y-106926102D01*
X177756444Y-107260605D01*
X177763054Y-107272053D01*
X177967509Y-107586887D01*
X177975291Y-107597598D01*
X178069872Y-107714396D01*
X178086165Y-107727946D01*
X178097146Y-107722169D01*
X180391696Y-105427619D01*
X180403469Y-105410000D01*
X180391696Y-105392381D01*
X178103173Y-103103858D01*
X178085554Y-103092085D01*
X178075238Y-103098978D01*
X177975291Y-103222402D01*
X177967509Y-103233113D01*
X177763054Y-103547947D01*
X177756444Y-103559395D01*
X177586006Y-103893898D01*
X177580636Y-103905960D01*
X177446099Y-104256442D01*
X177442013Y-104269016D01*
X177344854Y-104631621D01*
X177342101Y-104644570D01*
X177283376Y-105015343D01*
X177281993Y-105028502D01*
X177262347Y-105403379D01*
X172601409Y-105403379D01*
X174809852Y-103194936D01*
X174834735Y-103173114D01*
X174836298Y-103171915D01*
X174845233Y-103165059D01*
X174866043Y-103142190D01*
X174896826Y-103108359D01*
X174905055Y-103099733D01*
X174919509Y-103085279D01*
X174923124Y-103080956D01*
X174923131Y-103080948D01*
X174935175Y-103066544D01*
X174942116Y-103058586D01*
X174996416Y-102998911D01*
X175002408Y-102989358D01*
X175006342Y-102984176D01*
X175016606Y-102970049D01*
X175020299Y-102964735D01*
X175027523Y-102956096D01*
X175036151Y-102940971D01*
X175063813Y-102892473D01*
X175067494Y-102886019D01*
X175072932Y-102876934D01*
X175083138Y-102860664D01*
X175115787Y-102808617D01*
X175119989Y-102798164D01*
X175122935Y-102792382D01*
X175130534Y-102776662D01*
X175133239Y-102770754D01*
X175138820Y-102760970D01*
X175142579Y-102750354D01*
X175142584Y-102750344D01*
X175165751Y-102684924D01*
X175169495Y-102675016D01*
X175195371Y-102610646D01*
X175195372Y-102610642D01*
X175199573Y-102600192D01*
X175201857Y-102589166D01*
X175203739Y-102582931D01*
X175208438Y-102566100D01*
X175210045Y-102559841D01*
X175213806Y-102549220D01*
X175215627Y-102538097D01*
X175215629Y-102538091D01*
X175226846Y-102469596D01*
X175228776Y-102459179D01*
X175243246Y-102389303D01*
X175243247Y-102389299D01*
X175245126Y-102380223D01*
X175246345Y-102359077D01*
X175247663Y-102347146D01*
X175248287Y-102338653D01*
X175250107Y-102327536D01*
X175248531Y-102227200D01*
X175248500Y-102223228D01*
X175248500Y-101226789D01*
X175267758Y-101129970D01*
X175300655Y-101076714D01*
X175300351Y-101076518D01*
X175310136Y-101061292D01*
X175321984Y-101047619D01*
X175351351Y-100983316D01*
X175375183Y-100931130D01*
X175382700Y-100914670D01*
X175403500Y-100770000D01*
X175403500Y-97270000D01*
X175402102Y-97250447D01*
X175399240Y-97210444D01*
X175398273Y-97196921D01*
X175377252Y-97125330D01*
X175362194Y-97074045D01*
X175362193Y-97074043D01*
X175357096Y-97056684D01*
X175278077Y-96933729D01*
X175200977Y-96866921D01*
X175181296Y-96849867D01*
X175181295Y-96849866D01*
X175167619Y-96838016D01*
X175034670Y-96777300D01*
X175016761Y-96774725D01*
X175016757Y-96774724D01*
X174996416Y-96771800D01*
X174903323Y-96738960D01*
X174829884Y-96672994D01*
X174787278Y-96583946D01*
X174781994Y-96485372D01*
X174814834Y-96392279D01*
X174880800Y-96318840D01*
X174963388Y-96279325D01*
X174963079Y-96278273D01*
X174969570Y-96276367D01*
X174970521Y-96276088D01*
X174970525Y-96276087D01*
X175085955Y-96242194D01*
X175085957Y-96242193D01*
X175103316Y-96237096D01*
X175126810Y-96221997D01*
X175211049Y-96167860D01*
X175211051Y-96167859D01*
X175226271Y-96158077D01*
X175274127Y-96102848D01*
X175310133Y-96061296D01*
X175310134Y-96061295D01*
X175321984Y-96047619D01*
X175365536Y-95952254D01*
X175375183Y-95931130D01*
X175382700Y-95914670D01*
X175403500Y-95770000D01*
X175403500Y-92270000D01*
X175402761Y-92259658D01*
X175399240Y-92210444D01*
X175398273Y-92196921D01*
X175381232Y-92138884D01*
X175362194Y-92074045D01*
X175362193Y-92074043D01*
X175357096Y-92056684D01*
X175288663Y-91950201D01*
X175252520Y-91858340D01*
X175248500Y-91813418D01*
X175248500Y-90904059D01*
X175250664Y-90871037D01*
X175250922Y-90869077D01*
X175250922Y-90869075D01*
X175252392Y-90857910D01*
X175248781Y-90781333D01*
X175248500Y-90769416D01*
X175248500Y-90748976D01*
X175246331Y-90724666D01*
X175245611Y-90714098D01*
X175242342Y-90644781D01*
X175242342Y-90644780D01*
X175241811Y-90633523D01*
X175239294Y-90622532D01*
X175238420Y-90616155D01*
X175235680Y-90598856D01*
X175234533Y-90592481D01*
X175233531Y-90581253D01*
X175212250Y-90503465D01*
X175209669Y-90493189D01*
X175194174Y-90425532D01*
X175194173Y-90425528D01*
X175191660Y-90414557D01*
X175187242Y-90404200D01*
X175185253Y-90398078D01*
X175179481Y-90381503D01*
X175177230Y-90375450D01*
X175174256Y-90364579D01*
X175145289Y-90303847D01*
X175139530Y-90291774D01*
X175135169Y-90282117D01*
X175107944Y-90218288D01*
X175107943Y-90218286D01*
X175103527Y-90207933D01*
X175097346Y-90198524D01*
X175094294Y-90192831D01*
X175085661Y-90177511D01*
X175082397Y-90171992D01*
X175077548Y-90161826D01*
X175070977Y-90152682D01*
X175070975Y-90152678D01*
X175030477Y-90096320D01*
X175024475Y-90087587D01*
X174980197Y-90020180D01*
X174966110Y-90004368D01*
X174958614Y-89995012D01*
X174953037Y-89988551D01*
X174946463Y-89979403D01*
X174935256Y-89968542D01*
X174874436Y-89909604D01*
X174871604Y-89906816D01*
X172588167Y-87623379D01*
X177262347Y-87623379D01*
X177262347Y-87636621D01*
X177281993Y-88011498D01*
X177283376Y-88024657D01*
X177342101Y-88395430D01*
X177344854Y-88408379D01*
X177442013Y-88770984D01*
X177446099Y-88783558D01*
X177580636Y-89134040D01*
X177586006Y-89146102D01*
X177756444Y-89480605D01*
X177763054Y-89492053D01*
X177967509Y-89806887D01*
X177975291Y-89817598D01*
X178069872Y-89934396D01*
X178086165Y-89947946D01*
X178097146Y-89942169D01*
X180391696Y-87647619D01*
X180403469Y-87630000D01*
X180391696Y-87612381D01*
X178103173Y-85323858D01*
X178085554Y-85312085D01*
X178075238Y-85318978D01*
X177975291Y-85442402D01*
X177967509Y-85453113D01*
X177763054Y-85767947D01*
X177756444Y-85779395D01*
X177586006Y-86113898D01*
X177580636Y-86125960D01*
X177446099Y-86476442D01*
X177442013Y-86489016D01*
X177344854Y-86851621D01*
X177342101Y-86864570D01*
X177283376Y-87235343D01*
X177281993Y-87248502D01*
X177262347Y-87623379D01*
X172588167Y-87623379D01*
X171664936Y-86700148D01*
X171643114Y-86675265D01*
X171641915Y-86673702D01*
X171635059Y-86664767D01*
X171626730Y-86657188D01*
X171626727Y-86657185D01*
X171578359Y-86613174D01*
X171569733Y-86604945D01*
X171555279Y-86590491D01*
X171536546Y-86574828D01*
X171528583Y-86567881D01*
X171477245Y-86521167D01*
X171477243Y-86521165D01*
X171468911Y-86513584D01*
X171459367Y-86507597D01*
X171454223Y-86503693D01*
X171440065Y-86493407D01*
X171434741Y-86489707D01*
X171426096Y-86482478D01*
X171416308Y-86476895D01*
X171416305Y-86476893D01*
X171356044Y-86442520D01*
X171346953Y-86437080D01*
X171312918Y-86415730D01*
X171278617Y-86394213D01*
X171268168Y-86390013D01*
X171262428Y-86387088D01*
X171246633Y-86379452D01*
X171240753Y-86376760D01*
X171230971Y-86371180D01*
X171220360Y-86367422D01*
X171220348Y-86367417D01*
X171154912Y-86344245D01*
X171145011Y-86340504D01*
X171070192Y-86310427D01*
X171059164Y-86308143D01*
X171052994Y-86306280D01*
X171036092Y-86301561D01*
X171029843Y-86299957D01*
X171019220Y-86296195D01*
X170939572Y-86283152D01*
X170929210Y-86281231D01*
X170859307Y-86266755D01*
X170859305Y-86266755D01*
X170850223Y-86264874D01*
X170840966Y-86264340D01*
X170840964Y-86264340D01*
X170829085Y-86263655D01*
X170817143Y-86262337D01*
X170808652Y-86261713D01*
X170797536Y-86259893D01*
X170698082Y-86261456D01*
X170697229Y-86261469D01*
X170693254Y-86261500D01*
X169896973Y-86261500D01*
X169800154Y-86242242D01*
X169718075Y-86187398D01*
X169690754Y-86155069D01*
X169644087Y-86089402D01*
X169565889Y-86005545D01*
X169445202Y-85876124D01*
X169445197Y-85876119D01*
X169439472Y-85869980D01*
X169348582Y-85795322D01*
X169214126Y-85684877D01*
X169214118Y-85684872D01*
X169207635Y-85679546D01*
X169185085Y-85665564D01*
X168959781Y-85525870D01*
X168952649Y-85521448D01*
X168944996Y-85518009D01*
X168944993Y-85518007D01*
X168686648Y-85401902D01*
X168686644Y-85401901D01*
X168678993Y-85398462D01*
X168391475Y-85312749D01*
X168383187Y-85311436D01*
X168383181Y-85311435D01*
X168102126Y-85266921D01*
X168102120Y-85266920D01*
X168095147Y-85265816D01*
X168052204Y-85263866D01*
X168002953Y-85261629D01*
X168002938Y-85261629D01*
X168000105Y-85261500D01*
X165314723Y-85261500D01*
X165090638Y-85276384D01*
X165082414Y-85278042D01*
X165082408Y-85278043D01*
X164940975Y-85306561D01*
X164796535Y-85335685D01*
X164788602Y-85338416D01*
X164788604Y-85338416D01*
X164520800Y-85430628D01*
X164520795Y-85430630D01*
X164512858Y-85433363D01*
X164505350Y-85437123D01*
X164505347Y-85437124D01*
X164252105Y-85563938D01*
X164252102Y-85563940D01*
X164244593Y-85567700D01*
X164068588Y-85687313D01*
X164056733Y-85695370D01*
X163996450Y-85736338D01*
X163772791Y-85936312D01*
X163577545Y-86164110D01*
X163414141Y-86415730D01*
X163385313Y-86476442D01*
X163291516Y-86673978D01*
X163285451Y-86686750D01*
X163282887Y-86694736D01*
X163282885Y-86694741D01*
X163272207Y-86728000D01*
X163193736Y-86972410D01*
X163140606Y-87267690D01*
X163140225Y-87276075D01*
X163140225Y-87276077D01*
X163127697Y-87551972D01*
X163126996Y-87567403D01*
X163127727Y-87575758D01*
X163127727Y-87575759D01*
X163151227Y-87844358D01*
X163153145Y-87866283D01*
X163218593Y-88159080D01*
X163221486Y-88166944D01*
X163221487Y-88166946D01*
X163253517Y-88254000D01*
X163322190Y-88440648D01*
X163462116Y-88706042D01*
X163466973Y-88712876D01*
X163466977Y-88712883D01*
X163628069Y-88939561D01*
X163635913Y-88950598D01*
X163641638Y-88956737D01*
X163834798Y-89163876D01*
X163834803Y-89163881D01*
X163840528Y-89170020D01*
X163847022Y-89175354D01*
X164065874Y-89355123D01*
X164065882Y-89355128D01*
X164072365Y-89360454D01*
X164327351Y-89518552D01*
X164335004Y-89521991D01*
X164335007Y-89521993D01*
X164593352Y-89638098D01*
X164593356Y-89638099D01*
X164601007Y-89641538D01*
X164888525Y-89727251D01*
X164896813Y-89728564D01*
X164896819Y-89728565D01*
X165177874Y-89773079D01*
X165177880Y-89773080D01*
X165184853Y-89774184D01*
X165227796Y-89776134D01*
X165277047Y-89778371D01*
X165277062Y-89778371D01*
X165279895Y-89778500D01*
X167965277Y-89778500D01*
X168189362Y-89763616D01*
X168197586Y-89761958D01*
X168197592Y-89761957D01*
X168339025Y-89733439D01*
X168483465Y-89704315D01*
X168658824Y-89643934D01*
X168759200Y-89609372D01*
X168759205Y-89609370D01*
X168767142Y-89606637D01*
X168774653Y-89602876D01*
X169027895Y-89476062D01*
X169027898Y-89476060D01*
X169035407Y-89472300D01*
X169283550Y-89303662D01*
X169507209Y-89103688D01*
X169702455Y-88875890D01*
X169702856Y-88876234D01*
X169772147Y-88813955D01*
X169865230Y-88781086D01*
X169901311Y-88778500D01*
X170078916Y-88778500D01*
X170175735Y-88797758D01*
X170257814Y-88852602D01*
X172657398Y-91252186D01*
X172712242Y-91334265D01*
X172731500Y-91431084D01*
X172731500Y-91813211D01*
X172712242Y-91910030D01*
X172679345Y-91963286D01*
X172679649Y-91963482D01*
X172669864Y-91978708D01*
X172658016Y-91992381D01*
X172650500Y-92008838D01*
X172650499Y-92008840D01*
X172628144Y-92057791D01*
X172597300Y-92125330D01*
X172576500Y-92270000D01*
X172576500Y-95770000D01*
X172581727Y-95843079D01*
X172585546Y-95856084D01*
X172585546Y-95856086D01*
X172611049Y-95942940D01*
X172622904Y-95983316D01*
X172632686Y-95998537D01*
X172676412Y-96066575D01*
X172701923Y-96106271D01*
X172812381Y-96201984D01*
X172945330Y-96262700D01*
X172963239Y-96265275D01*
X172963243Y-96265276D01*
X172983584Y-96268200D01*
X173076677Y-96301040D01*
X173150116Y-96367006D01*
X173192722Y-96456054D01*
X173198006Y-96554628D01*
X173165166Y-96647721D01*
X173099200Y-96721160D01*
X173016612Y-96760675D01*
X173016921Y-96761727D01*
X173009479Y-96763912D01*
X173009475Y-96763913D01*
X172894045Y-96797806D01*
X172894043Y-96797807D01*
X172876684Y-96802904D01*
X172861463Y-96812686D01*
X172768951Y-96872140D01*
X172768949Y-96872141D01*
X172753729Y-96881923D01*
X172719108Y-96921878D01*
X172695649Y-96948951D01*
X172658016Y-96992381D01*
X172597300Y-97125330D01*
X172576500Y-97270000D01*
X172576500Y-100770000D01*
X172576823Y-100774510D01*
X172576823Y-100774522D01*
X172577139Y-100778937D01*
X172581727Y-100843079D01*
X172585546Y-100856084D01*
X172585546Y-100856086D01*
X172617402Y-100964577D01*
X172622904Y-100983316D01*
X172632686Y-100998537D01*
X172691337Y-101089799D01*
X172727480Y-101181660D01*
X172731500Y-101226582D01*
X172731500Y-101608916D01*
X172712242Y-101705735D01*
X172657398Y-101787814D01*
X171056134Y-103389078D01*
X170974055Y-103443922D01*
X170877236Y-103463180D01*
X170773526Y-103440947D01*
X170744586Y-103427941D01*
X170678993Y-103398462D01*
X170391475Y-103312749D01*
X170383187Y-103311436D01*
X170383181Y-103311435D01*
X170111923Y-103268473D01*
X170019308Y-103234306D01*
X169946819Y-103167298D01*
X169905491Y-103077650D01*
X169898500Y-103018588D01*
X169898500Y-102699059D01*
X169900664Y-102666037D01*
X169900922Y-102664077D01*
X169900922Y-102664075D01*
X169902392Y-102652910D01*
X169898781Y-102576333D01*
X169898500Y-102564416D01*
X169898500Y-102543976D01*
X169897686Y-102534859D01*
X169896331Y-102519666D01*
X169895611Y-102509098D01*
X169892342Y-102439781D01*
X169892342Y-102439780D01*
X169891811Y-102428523D01*
X169889294Y-102417532D01*
X169888420Y-102411155D01*
X169885680Y-102393856D01*
X169884533Y-102387481D01*
X169883531Y-102376253D01*
X169875285Y-102346109D01*
X169862251Y-102298468D01*
X169859669Y-102288189D01*
X169844174Y-102220532D01*
X169844173Y-102220528D01*
X169841660Y-102209557D01*
X169837242Y-102199200D01*
X169835253Y-102193078D01*
X169829481Y-102176503D01*
X169827230Y-102170450D01*
X169824256Y-102159579D01*
X169816866Y-102144084D01*
X169789530Y-102086774D01*
X169785169Y-102077117D01*
X169775933Y-102055462D01*
X169753527Y-102002933D01*
X169747346Y-101993524D01*
X169744294Y-101987831D01*
X169735661Y-101972511D01*
X169732397Y-101966992D01*
X169727548Y-101956826D01*
X169720977Y-101947682D01*
X169720975Y-101947678D01*
X169680477Y-101891320D01*
X169674475Y-101882587D01*
X169659584Y-101859918D01*
X169630197Y-101815180D01*
X169616110Y-101799368D01*
X169608614Y-101790012D01*
X169603037Y-101783551D01*
X169596463Y-101774403D01*
X169586936Y-101765170D01*
X169524436Y-101704604D01*
X169521604Y-101701816D01*
X168622978Y-100803190D01*
X168568134Y-100721111D01*
X168548876Y-100624292D01*
X168568134Y-100527473D01*
X168622978Y-100445394D01*
X168705057Y-100390550D01*
X168722017Y-100384226D01*
X168981948Y-100297758D01*
X169091199Y-100261415D01*
X169096835Y-100258906D01*
X169096842Y-100258903D01*
X169443732Y-100104458D01*
X169449372Y-100101947D01*
X169790273Y-99908288D01*
X169811884Y-99893043D01*
X170105601Y-99685849D01*
X170105605Y-99685846D01*
X170110650Y-99682287D01*
X170407443Y-99426102D01*
X170413651Y-99419583D01*
X170673558Y-99146654D01*
X170673562Y-99146650D01*
X170677821Y-99142177D01*
X170919202Y-98833223D01*
X171129283Y-98502189D01*
X171137934Y-98485064D01*
X171192003Y-98378024D01*
X171306058Y-98152234D01*
X171447839Y-97786700D01*
X171453174Y-97767594D01*
X171551613Y-97415024D01*
X171551614Y-97415019D01*
X171553274Y-97409074D01*
X171606208Y-97108870D01*
X171620281Y-97029060D01*
X171620282Y-97029055D01*
X171621356Y-97022962D01*
X171651435Y-96632050D01*
X171651628Y-96618275D01*
X171652907Y-96526623D01*
X171653000Y-96520000D01*
X171633848Y-96128400D01*
X171628333Y-96091049D01*
X171577477Y-95746659D01*
X171577477Y-95746657D01*
X171576573Y-95740538D01*
X171481723Y-95360115D01*
X171350203Y-94990765D01*
X171326947Y-94941342D01*
X171185903Y-94641608D01*
X171185901Y-94641604D01*
X171183269Y-94636011D01*
X171057116Y-94424388D01*
X170985677Y-94304547D01*
X170985673Y-94304541D01*
X170982513Y-94299240D01*
X170978851Y-94294273D01*
X170978845Y-94294264D01*
X170811460Y-94067229D01*
X170749852Y-93983666D01*
X170487507Y-93692303D01*
X170197982Y-93427930D01*
X169999140Y-93279177D01*
X169889001Y-93196782D01*
X169888993Y-93196777D01*
X169884041Y-93193072D01*
X169717003Y-93091910D01*
X169553978Y-92993178D01*
X169553969Y-92993173D01*
X169548680Y-92989970D01*
X169543099Y-92987296D01*
X169200670Y-92823231D01*
X169200658Y-92823226D01*
X169195100Y-92820563D01*
X169189296Y-92818451D01*
X169189290Y-92818448D01*
X168832490Y-92688584D01*
X168832488Y-92688583D01*
X168826676Y-92686468D01*
X168446926Y-92588965D01*
X168440822Y-92588020D01*
X168440817Y-92588019D01*
X168065584Y-92529930D01*
X168065583Y-92529930D01*
X168059473Y-92528984D01*
X167668016Y-92507098D01*
X167634565Y-92508500D01*
X167282469Y-92523257D01*
X167282468Y-92523257D01*
X167276291Y-92523516D01*
X167270173Y-92524376D01*
X167270171Y-92524376D01*
X167085214Y-92550370D01*
X166888039Y-92578081D01*
X166878553Y-92580376D01*
X166612166Y-92644822D01*
X166506964Y-92670273D01*
X166501127Y-92672306D01*
X166501119Y-92672308D01*
X166142541Y-92797178D01*
X166142535Y-92797180D01*
X166136704Y-92799211D01*
X166090494Y-92820563D01*
X165786395Y-92961076D01*
X165786387Y-92961080D01*
X165780793Y-92963665D01*
X165775477Y-92966784D01*
X165775471Y-92966787D01*
X165735957Y-92989970D01*
X165442629Y-93162065D01*
X165437634Y-93165694D01*
X165437628Y-93165698D01*
X165164470Y-93364159D01*
X165125439Y-93392517D01*
X164987884Y-93514644D01*
X164877165Y-93612945D01*
X164832251Y-93652821D01*
X164565864Y-93940493D01*
X164328820Y-94252787D01*
X164241782Y-94394265D01*
X164126622Y-94581454D01*
X164126618Y-94581462D01*
X164123381Y-94586723D01*
X164120670Y-94592281D01*
X164120668Y-94592285D01*
X164068313Y-94699630D01*
X163951510Y-94939111D01*
X163863686Y-95175264D01*
X163818131Y-95297758D01*
X163814846Y-95306590D01*
X163714694Y-95685650D01*
X163713703Y-95691766D01*
X163713703Y-95691768D01*
X163673022Y-95942940D01*
X163652009Y-96072675D01*
X163651622Y-96078826D01*
X163651621Y-96078835D01*
X163629789Y-96425859D01*
X163629789Y-96425862D01*
X163628086Y-96452928D01*
X163627391Y-96463970D01*
X163627606Y-96470130D01*
X163627606Y-96470139D01*
X163640276Y-96832957D01*
X163641074Y-96855799D01*
X163641891Y-96861925D01*
X163641892Y-96861932D01*
X163677037Y-97125330D01*
X163692928Y-97244423D01*
X163694341Y-97250447D01*
X163779084Y-97611752D01*
X163782457Y-97626133D01*
X163908807Y-97997284D01*
X163911360Y-98002913D01*
X163911362Y-98002917D01*
X164050696Y-98310077D01*
X164070772Y-98354334D01*
X164152408Y-98495731D01*
X164243220Y-98653022D01*
X164266806Y-98693875D01*
X164495038Y-99012666D01*
X164753289Y-99307664D01*
X164757803Y-99311903D01*
X164757806Y-99311906D01*
X165022282Y-99560265D01*
X165039095Y-99576053D01*
X165349726Y-99815272D01*
X165454641Y-99880830D01*
X165526541Y-99948467D01*
X165567086Y-100038473D01*
X165570100Y-100137142D01*
X165535126Y-100229455D01*
X165467488Y-100301356D01*
X165377482Y-100341901D01*
X165343062Y-100347383D01*
X165241253Y-100356469D01*
X165139790Y-100384226D01*
X165035449Y-100412770D01*
X165035446Y-100412771D01*
X165024579Y-100415744D01*
X164984877Y-100434681D01*
X164831995Y-100507601D01*
X164831989Y-100507604D01*
X164821826Y-100512452D01*
X164812682Y-100519023D01*
X164810282Y-100520442D01*
X164717142Y-100553148D01*
X164618575Y-100547721D01*
X164529589Y-100504987D01*
X164463729Y-100431453D01*
X164431023Y-100338313D01*
X164428500Y-100302671D01*
X164428500Y-100250000D01*
X164426739Y-100225372D01*
X164424240Y-100190444D01*
X164423273Y-100176921D01*
X164418593Y-100160983D01*
X164387194Y-100054045D01*
X164387193Y-100054043D01*
X164382096Y-100036684D01*
X164353174Y-99991681D01*
X164312860Y-99928951D01*
X164312859Y-99928949D01*
X164303077Y-99913729D01*
X164192619Y-99818016D01*
X164059670Y-99757300D01*
X163915000Y-99736500D01*
X163849688Y-99736500D01*
X163752869Y-99717242D01*
X163670790Y-99662398D01*
X163485887Y-99477495D01*
X163484024Y-99475612D01*
X163466684Y-99457905D01*
X163429156Y-99419583D01*
X163398126Y-99399585D01*
X163377353Y-99384659D01*
X163348495Y-99361622D01*
X163335765Y-99355468D01*
X163335757Y-99355463D01*
X163325307Y-99350412D01*
X163298366Y-99335294D01*
X163276711Y-99321338D01*
X163242015Y-99308710D01*
X163218446Y-99298753D01*
X163197951Y-99288845D01*
X163197945Y-99288843D01*
X163185213Y-99282688D01*
X163160108Y-99276892D01*
X163130490Y-99268119D01*
X163106288Y-99259310D01*
X163092255Y-99257537D01*
X163092250Y-99257536D01*
X163069678Y-99254685D01*
X163044472Y-99250195D01*
X163022290Y-99245074D01*
X163022286Y-99245074D01*
X163008501Y-99241891D01*
X162975144Y-99241775D01*
X162968456Y-99241751D01*
X162966890Y-99241699D01*
X162965311Y-99241500D01*
X162896608Y-99241500D01*
X162895726Y-99241498D01*
X162830085Y-99241269D01*
X162830081Y-99241269D01*
X162827143Y-99241259D01*
X162826142Y-99241483D01*
X162825825Y-99241500D01*
X162684690Y-99241500D01*
X162587871Y-99222242D01*
X162505792Y-99167398D01*
X162504463Y-99165945D01*
X162500731Y-99160253D01*
X162481650Y-99142177D01*
X162453223Y-99115248D01*
X162372355Y-99038642D01*
X162334583Y-99016702D01*
X162263426Y-98975371D01*
X162224426Y-98952718D01*
X162150379Y-98887437D01*
X162106950Y-98798788D01*
X162098500Y-98733946D01*
X162098500Y-92138884D01*
X162098514Y-92136236D01*
X162099187Y-92071938D01*
X162099187Y-92071937D01*
X162099335Y-92057791D01*
X162096346Y-92043965D01*
X162096345Y-92043958D01*
X162091535Y-92021712D01*
X162087398Y-91996449D01*
X162084861Y-91973829D01*
X162084861Y-91973828D01*
X162083284Y-91959770D01*
X162074811Y-91935439D01*
X162066455Y-91905709D01*
X162064000Y-91894354D01*
X162063999Y-91894351D01*
X162061010Y-91880526D01*
X162045410Y-91847074D01*
X162035779Y-91823355D01*
X162028292Y-91801854D01*
X162028292Y-91801853D01*
X162023641Y-91788498D01*
X162016146Y-91776504D01*
X162016144Y-91776499D01*
X162009986Y-91766644D01*
X161995249Y-91739502D01*
X161990343Y-91728982D01*
X161990341Y-91728979D01*
X161984363Y-91716159D01*
X161961743Y-91686997D01*
X161947107Y-91666018D01*
X161927535Y-91634696D01*
X161915246Y-91622321D01*
X161899310Y-91606273D01*
X161898245Y-91605135D01*
X161897271Y-91603879D01*
X161848823Y-91555431D01*
X161848200Y-91554806D01*
X161826639Y-91533094D01*
X161799742Y-91506009D01*
X161798877Y-91505460D01*
X161798636Y-91505244D01*
X160310887Y-90017495D01*
X160309024Y-90015612D01*
X160288318Y-89994468D01*
X160254156Y-89959583D01*
X160223126Y-89939585D01*
X160202353Y-89924659D01*
X160173495Y-89901622D01*
X160160765Y-89895468D01*
X160160757Y-89895463D01*
X160150307Y-89890412D01*
X160123366Y-89875294D01*
X160101711Y-89861338D01*
X160101708Y-89861336D01*
X160102223Y-89860537D01*
X160034298Y-89808135D01*
X160013365Y-89780533D01*
X159968789Y-89712543D01*
X159968787Y-89712541D01*
X159960731Y-89700253D01*
X159832355Y-89578642D01*
X159679445Y-89489825D01*
X159665379Y-89485565D01*
X159665377Y-89485564D01*
X159522630Y-89442330D01*
X159522626Y-89442329D01*
X159510204Y-89438567D01*
X159473650Y-89435305D01*
X159436629Y-89432000D01*
X159436619Y-89432000D01*
X159431022Y-89431500D01*
X158082114Y-89431500D01*
X158016254Y-89439179D01*
X157963953Y-89445276D01*
X157963951Y-89445277D01*
X157949357Y-89446978D01*
X157935542Y-89451992D01*
X157935540Y-89451993D01*
X157891710Y-89467902D01*
X157794130Y-89482833D01*
X157698264Y-89459286D01*
X157618706Y-89400844D01*
X157567570Y-89316406D01*
X157552639Y-89218826D01*
X157563250Y-89156748D01*
X157582670Y-89092629D01*
X157582671Y-89092625D01*
X157586433Y-89080203D01*
X157591163Y-89027210D01*
X157593000Y-89006628D01*
X157593000Y-89006618D01*
X157593500Y-89001021D01*
X157593500Y-87977115D01*
X157578022Y-87844358D01*
X157517687Y-87678136D01*
X157420730Y-87530254D01*
X157377355Y-87489164D01*
X157303028Y-87418753D01*
X157303025Y-87418751D01*
X157292354Y-87408642D01*
X157139444Y-87319825D01*
X157125378Y-87315565D01*
X157125376Y-87315564D01*
X156982629Y-87272330D01*
X156982625Y-87272329D01*
X156970203Y-87268567D01*
X156933649Y-87265305D01*
X156896628Y-87262000D01*
X156896618Y-87262000D01*
X156891021Y-87261500D01*
X155542115Y-87261500D01*
X155476255Y-87269179D01*
X155423954Y-87275276D01*
X155423952Y-87275277D01*
X155409358Y-87276978D01*
X155395545Y-87281992D01*
X155395544Y-87281992D01*
X155360659Y-87294655D01*
X155243136Y-87337313D01*
X155230848Y-87345370D01*
X155230847Y-87345370D01*
X155115746Y-87420835D01*
X155095254Y-87434270D01*
X155094459Y-87435109D01*
X155014879Y-87478589D01*
X154916731Y-87489164D01*
X154822008Y-87461376D01*
X154765225Y-87420835D01*
X154763027Y-87418753D01*
X154752354Y-87408642D01*
X154599444Y-87319825D01*
X154585378Y-87315565D01*
X154585376Y-87315564D01*
X154442629Y-87272330D01*
X154442625Y-87272329D01*
X154430203Y-87268567D01*
X154393649Y-87265305D01*
X154356628Y-87262000D01*
X154356618Y-87262000D01*
X154351021Y-87261500D01*
X153002115Y-87261500D01*
X152936255Y-87269179D01*
X152883954Y-87275276D01*
X152883952Y-87275277D01*
X152869358Y-87276978D01*
X152855545Y-87281992D01*
X152855544Y-87281992D01*
X152820659Y-87294655D01*
X152703136Y-87337313D01*
X152690848Y-87345370D01*
X152690847Y-87345370D01*
X152575746Y-87420835D01*
X152555254Y-87434270D01*
X152554459Y-87435109D01*
X152474879Y-87478589D01*
X152376731Y-87489164D01*
X152282008Y-87461376D01*
X152225225Y-87420835D01*
X152223027Y-87418753D01*
X152212354Y-87408642D01*
X152059444Y-87319825D01*
X152045378Y-87315565D01*
X152045376Y-87315564D01*
X151902629Y-87272330D01*
X151902625Y-87272329D01*
X151890203Y-87268567D01*
X151853649Y-87265305D01*
X151816628Y-87262000D01*
X151816618Y-87262000D01*
X151811021Y-87261500D01*
X150462115Y-87261500D01*
X150396255Y-87269179D01*
X150343954Y-87275276D01*
X150343952Y-87275277D01*
X150329358Y-87276978D01*
X150315545Y-87281992D01*
X150315544Y-87281992D01*
X150280659Y-87294655D01*
X150163136Y-87337313D01*
X150015254Y-87434270D01*
X150005148Y-87444938D01*
X150005147Y-87444939D01*
X149903753Y-87551972D01*
X149903751Y-87551975D01*
X149893642Y-87562646D01*
X149804825Y-87715556D01*
X149800565Y-87729622D01*
X149800564Y-87729624D01*
X149765815Y-87844358D01*
X149753567Y-87884797D01*
X149752413Y-87897730D01*
X149748316Y-87943637D01*
X149746500Y-87963979D01*
X149746500Y-88987885D01*
X149750594Y-89023000D01*
X149751085Y-89027210D01*
X149743168Y-89125607D01*
X149698199Y-89213485D01*
X149623024Y-89277465D01*
X149529086Y-89307807D01*
X149430689Y-89299890D01*
X149342811Y-89254921D01*
X149287082Y-89191988D01*
X149284364Y-89186159D01*
X149261738Y-89156990D01*
X149247098Y-89136003D01*
X149235031Y-89116692D01*
X149235030Y-89116691D01*
X149227535Y-89104696D01*
X149199303Y-89076266D01*
X149198246Y-89075138D01*
X149197271Y-89073880D01*
X149148956Y-89025565D01*
X149148333Y-89024940D01*
X149101817Y-88978098D01*
X149101812Y-88978094D01*
X149099742Y-88976009D01*
X149098875Y-88975459D01*
X149098630Y-88975239D01*
X148525889Y-88402497D01*
X148524026Y-88400614D01*
X148501584Y-88377697D01*
X148469156Y-88344583D01*
X148438126Y-88324585D01*
X148417353Y-88309659D01*
X148388495Y-88286622D01*
X148375765Y-88280468D01*
X148375757Y-88280463D01*
X148365307Y-88275412D01*
X148338366Y-88260294D01*
X148316711Y-88246338D01*
X148282015Y-88233710D01*
X148258446Y-88223753D01*
X148237951Y-88213845D01*
X148237945Y-88213843D01*
X148225213Y-88207688D01*
X148200108Y-88201892D01*
X148170490Y-88193119D01*
X148146288Y-88184310D01*
X148132255Y-88182537D01*
X148132250Y-88182536D01*
X148109678Y-88179685D01*
X148084472Y-88175195D01*
X148062290Y-88170074D01*
X148062286Y-88170074D01*
X148048501Y-88166891D01*
X148015144Y-88166775D01*
X148008456Y-88166751D01*
X148006890Y-88166699D01*
X148005311Y-88166500D01*
X147936608Y-88166500D01*
X147935726Y-88166498D01*
X147870085Y-88166269D01*
X147870081Y-88166269D01*
X147867143Y-88166259D01*
X147866142Y-88166483D01*
X147865825Y-88166500D01*
X146427839Y-88166500D01*
X146331020Y-88147242D01*
X146248941Y-88092398D01*
X146194097Y-88010319D01*
X146174839Y-87913500D01*
X146185701Y-87840163D01*
X146188615Y-87830544D01*
X146211433Y-87755204D01*
X146216106Y-87702847D01*
X146218000Y-87681629D01*
X146218000Y-87681619D01*
X146218500Y-87676022D01*
X146218500Y-86327114D01*
X146203022Y-86194357D01*
X146192043Y-86164110D01*
X146147702Y-86041951D01*
X146147700Y-86041948D01*
X146142687Y-86028136D01*
X146134632Y-86015850D01*
X146134630Y-86015846D01*
X146079932Y-85932418D01*
X149747000Y-85932418D01*
X149747000Y-86005545D01*
X149747850Y-86020171D01*
X149760763Y-86130928D01*
X149767480Y-86159345D01*
X149817742Y-86297816D01*
X149830821Y-86323935D01*
X149911593Y-86447132D01*
X149930322Y-86469533D01*
X150037276Y-86570851D01*
X150060654Y-86588340D01*
X150188046Y-86662335D01*
X150214823Y-86673978D01*
X150357459Y-86717178D01*
X150382818Y-86722095D01*
X150443370Y-86727500D01*
X150454604Y-86728000D01*
X150705082Y-86728000D01*
X150725866Y-86723866D01*
X150730000Y-86703082D01*
X150730000Y-85932418D01*
X151530000Y-85932418D01*
X151530000Y-86703082D01*
X151534134Y-86723866D01*
X151554918Y-86728000D01*
X151790545Y-86728000D01*
X151805171Y-86727150D01*
X151915928Y-86714237D01*
X151944345Y-86707520D01*
X152082821Y-86657256D01*
X152108935Y-86644179D01*
X152232132Y-86563407D01*
X152238512Y-86558073D01*
X152325142Y-86510744D01*
X152423289Y-86500170D01*
X152518013Y-86527960D01*
X152574791Y-86568498D01*
X152577272Y-86570848D01*
X152600654Y-86588340D01*
X152728046Y-86662335D01*
X152754823Y-86673978D01*
X152897459Y-86717178D01*
X152922818Y-86722095D01*
X152983370Y-86727500D01*
X152994604Y-86728000D01*
X153245082Y-86728000D01*
X153265866Y-86723866D01*
X153270000Y-86703082D01*
X153270000Y-85932418D01*
X154070000Y-85932418D01*
X154070000Y-86703082D01*
X154074134Y-86723866D01*
X154094918Y-86728000D01*
X154330545Y-86728000D01*
X154345171Y-86727150D01*
X154455928Y-86714237D01*
X154484345Y-86707520D01*
X154622821Y-86657256D01*
X154648935Y-86644179D01*
X154772132Y-86563407D01*
X154778512Y-86558073D01*
X154865142Y-86510744D01*
X154963289Y-86500170D01*
X155058013Y-86527960D01*
X155114791Y-86568498D01*
X155117272Y-86570848D01*
X155140654Y-86588340D01*
X155268046Y-86662335D01*
X155294823Y-86673978D01*
X155437459Y-86717178D01*
X155462818Y-86722095D01*
X155523370Y-86727500D01*
X155534604Y-86728000D01*
X155785082Y-86728000D01*
X155805866Y-86723866D01*
X155810000Y-86703082D01*
X155810000Y-85932418D01*
X156610000Y-85932418D01*
X156610000Y-86703082D01*
X156614134Y-86723866D01*
X156634918Y-86728000D01*
X156870545Y-86728000D01*
X156885171Y-86727150D01*
X156995928Y-86714237D01*
X157024345Y-86707520D01*
X157162821Y-86657256D01*
X157188935Y-86644179D01*
X157312132Y-86563407D01*
X157334533Y-86544678D01*
X157435851Y-86437724D01*
X157453340Y-86414346D01*
X157527335Y-86286954D01*
X157538978Y-86260177D01*
X157582178Y-86117541D01*
X157587095Y-86092182D01*
X157592500Y-86031630D01*
X157593000Y-86020396D01*
X157593000Y-85932418D01*
X157588866Y-85911634D01*
X157568082Y-85907500D01*
X156634918Y-85907500D01*
X156614134Y-85911634D01*
X156610000Y-85932418D01*
X155810000Y-85932418D01*
X155805866Y-85911634D01*
X155785082Y-85907500D01*
X154094918Y-85907500D01*
X154074134Y-85911634D01*
X154070000Y-85932418D01*
X153270000Y-85932418D01*
X153265866Y-85911634D01*
X153245082Y-85907500D01*
X151554918Y-85907500D01*
X151534134Y-85911634D01*
X151530000Y-85932418D01*
X150730000Y-85932418D01*
X150725866Y-85911634D01*
X150705082Y-85907500D01*
X149771918Y-85907500D01*
X149751134Y-85911634D01*
X149747000Y-85932418D01*
X146079932Y-85932418D01*
X146053786Y-85892539D01*
X146045731Y-85880253D01*
X145917355Y-85758642D01*
X145764445Y-85669825D01*
X145750379Y-85665565D01*
X145750377Y-85665564D01*
X145607630Y-85622330D01*
X145607626Y-85622329D01*
X145595204Y-85618567D01*
X145558650Y-85615305D01*
X145521629Y-85612000D01*
X145521619Y-85612000D01*
X145516022Y-85611500D01*
X144617114Y-85611500D01*
X144551254Y-85619179D01*
X144498953Y-85625276D01*
X144498951Y-85625277D01*
X144484357Y-85626978D01*
X144470545Y-85631992D01*
X144470543Y-85631992D01*
X144331951Y-85682298D01*
X144331948Y-85682300D01*
X144318136Y-85687313D01*
X144305850Y-85695368D01*
X144305846Y-85695370D01*
X144219987Y-85751662D01*
X144170253Y-85784269D01*
X144048642Y-85912645D01*
X144041262Y-85925351D01*
X144041261Y-85925352D01*
X143988698Y-86015846D01*
X143959825Y-86065555D01*
X143955565Y-86079621D01*
X143955564Y-86079623D01*
X143920815Y-86194357D01*
X143908567Y-86234796D01*
X143905991Y-86263655D01*
X143902001Y-86308369D01*
X143901500Y-86313978D01*
X143901500Y-87662886D01*
X143904889Y-87691951D01*
X143913712Y-87767627D01*
X143916978Y-87795643D01*
X143921992Y-87809456D01*
X143921993Y-87809461D01*
X143970576Y-87943304D01*
X143985508Y-88040884D01*
X143961962Y-88136750D01*
X143903521Y-88216308D01*
X143849457Y-88252090D01*
X143846684Y-88252904D01*
X143831463Y-88262686D01*
X143831461Y-88262687D01*
X143738951Y-88322140D01*
X143738949Y-88322141D01*
X143723729Y-88331923D01*
X143702347Y-88356599D01*
X143624395Y-88417154D01*
X143529196Y-88443271D01*
X143431250Y-88430969D01*
X143345467Y-88382121D01*
X143251027Y-88300289D01*
X143220890Y-88280921D01*
X143181452Y-88262910D01*
X143101383Y-88205171D01*
X143049505Y-88121187D01*
X143033714Y-88023742D01*
X143054538Y-87931887D01*
X143063978Y-87910177D01*
X143107178Y-87767542D01*
X143112095Y-87742183D01*
X143117500Y-87681631D01*
X143118000Y-87670397D01*
X143118000Y-87419918D01*
X143113866Y-87399134D01*
X143093082Y-87395000D01*
X140826918Y-87395000D01*
X140806134Y-87399134D01*
X140802000Y-87419918D01*
X140802000Y-87655546D01*
X140802850Y-87670172D01*
X140815763Y-87780932D01*
X140822479Y-87809342D01*
X140872745Y-87947824D01*
X140885820Y-87973934D01*
X140966593Y-88097132D01*
X140985322Y-88119533D01*
X141092280Y-88220855D01*
X141115651Y-88238338D01*
X141243043Y-88312334D01*
X141269822Y-88323978D01*
X141412458Y-88367178D01*
X141450558Y-88374566D01*
X141449951Y-88377697D01*
X141522540Y-88398996D01*
X141599416Y-88460922D01*
X141646742Y-88547553D01*
X141657313Y-88645701D01*
X141655741Y-88659206D01*
X141648285Y-88711066D01*
X141647000Y-88729029D01*
X141647000Y-88745082D01*
X141651134Y-88765866D01*
X141671918Y-88770000D01*
X142707000Y-88770000D01*
X142803819Y-88789258D01*
X142885898Y-88844102D01*
X142940742Y-88926181D01*
X142960000Y-89023000D01*
X142960000Y-89317000D01*
X142940742Y-89413819D01*
X142885898Y-89495898D01*
X142803819Y-89550742D01*
X142707000Y-89570000D01*
X141671918Y-89570000D01*
X141651134Y-89574134D01*
X141647000Y-89594918D01*
X141647000Y-89615471D01*
X141647323Y-89624522D01*
X141651255Y-89679485D01*
X141656041Y-89706014D01*
X141688262Y-89815749D01*
X141703140Y-89848328D01*
X141762518Y-89940723D01*
X141785975Y-89967793D01*
X141868973Y-90039711D01*
X141899113Y-90059081D01*
X141999011Y-90104703D01*
X142033383Y-90114795D01*
X142151063Y-90131715D01*
X142169029Y-90133000D01*
X142217527Y-90133000D01*
X142314346Y-90152258D01*
X142396425Y-90207102D01*
X142451269Y-90289181D01*
X142470527Y-90386000D01*
X142451269Y-90482819D01*
X142431849Y-90520443D01*
X142390202Y-90586834D01*
X142390197Y-90586843D01*
X142384213Y-90596383D01*
X142376265Y-90616155D01*
X142359497Y-90657866D01*
X142305516Y-90740515D01*
X142224015Y-90796215D01*
X142124754Y-90816500D01*
X134124052Y-90816500D01*
X134091041Y-90814337D01*
X134077910Y-90812608D01*
X134041269Y-90814336D01*
X134001340Y-90816219D01*
X133989422Y-90816500D01*
X133968976Y-90816500D01*
X133944658Y-90818671D01*
X133934096Y-90819391D01*
X133916312Y-90820229D01*
X133864776Y-90822659D01*
X133864772Y-90822660D01*
X133853523Y-90823190D01*
X133842539Y-90825706D01*
X133836149Y-90826581D01*
X133818817Y-90829326D01*
X133812473Y-90830467D01*
X133801253Y-90831469D01*
X133790388Y-90834441D01*
X133790384Y-90834442D01*
X133723464Y-90852749D01*
X133713188Y-90855330D01*
X133645545Y-90870823D01*
X133645541Y-90870824D01*
X133634557Y-90873340D01*
X133624196Y-90877759D01*
X133618044Y-90879758D01*
X133601518Y-90885513D01*
X133595448Y-90887770D01*
X133584579Y-90890744D01*
X133574405Y-90895596D01*
X133574404Y-90895597D01*
X133511758Y-90925477D01*
X133502149Y-90929816D01*
X133427932Y-90961473D01*
X133418506Y-90967665D01*
X133412784Y-90970733D01*
X133397556Y-90979313D01*
X133391995Y-90982602D01*
X133381826Y-90987452D01*
X133330459Y-91024364D01*
X133316299Y-91034539D01*
X133307591Y-91040523D01*
X133240180Y-91084804D01*
X133233248Y-91090980D01*
X133233247Y-91090981D01*
X133224369Y-91098891D01*
X133214994Y-91106402D01*
X133208548Y-91111966D01*
X133199403Y-91118537D01*
X133191567Y-91126623D01*
X133191566Y-91126624D01*
X133129604Y-91190564D01*
X133126816Y-91193396D01*
X132637814Y-91682398D01*
X132555735Y-91737242D01*
X132458916Y-91756500D01*
X131180000Y-91756500D01*
X131175490Y-91756823D01*
X131175478Y-91756823D01*
X131139785Y-91759376D01*
X131106921Y-91761727D01*
X131093916Y-91765546D01*
X131093914Y-91765546D01*
X130984045Y-91797806D01*
X130984043Y-91797807D01*
X130966684Y-91802904D01*
X130951463Y-91812686D01*
X130858951Y-91872140D01*
X130858949Y-91872141D01*
X130843729Y-91881923D01*
X130819374Y-91910030D01*
X130778119Y-91957641D01*
X130748016Y-91992381D01*
X130687300Y-92125330D01*
X130666500Y-92270000D01*
X130666500Y-92508500D01*
X130647242Y-92605319D01*
X130592398Y-92687398D01*
X130510319Y-92742242D01*
X130413500Y-92761500D01*
X128837059Y-92761500D01*
X128804037Y-92759336D01*
X128802077Y-92759078D01*
X128802075Y-92759078D01*
X128790910Y-92757608D01*
X128718149Y-92761039D01*
X128714340Y-92761219D01*
X128702422Y-92761500D01*
X128681976Y-92761500D01*
X128657658Y-92763671D01*
X128647096Y-92764391D01*
X128629312Y-92765229D01*
X128577776Y-92767659D01*
X128577772Y-92767660D01*
X128566523Y-92768190D01*
X128555539Y-92770706D01*
X128549149Y-92771581D01*
X128531817Y-92774326D01*
X128525473Y-92775467D01*
X128514253Y-92776469D01*
X128503388Y-92779441D01*
X128503384Y-92779442D01*
X128436464Y-92797749D01*
X128426188Y-92800330D01*
X128358541Y-92815824D01*
X128358538Y-92815825D01*
X128347557Y-92818340D01*
X128337198Y-92822759D01*
X128331078Y-92824747D01*
X128314503Y-92830519D01*
X128308450Y-92832770D01*
X128297579Y-92835744D01*
X128287409Y-92840595D01*
X128287406Y-92840596D01*
X128224774Y-92870470D01*
X128215125Y-92874828D01*
X128140933Y-92906473D01*
X128131524Y-92912654D01*
X128125831Y-92915706D01*
X128110525Y-92924331D01*
X128104994Y-92927602D01*
X128094826Y-92932452D01*
X128085680Y-92939024D01*
X128085677Y-92939026D01*
X128029310Y-92979531D01*
X128020573Y-92985535D01*
X127960937Y-93024708D01*
X127960931Y-93024713D01*
X127953180Y-93029804D01*
X127946257Y-93035972D01*
X127946256Y-93035973D01*
X127937369Y-93043891D01*
X127927994Y-93051402D01*
X127921548Y-93056966D01*
X127912403Y-93063537D01*
X127904567Y-93071623D01*
X127904566Y-93071624D01*
X127842604Y-93135564D01*
X127839816Y-93138396D01*
X127018734Y-93959478D01*
X126956658Y-94004994D01*
X126790632Y-94091421D01*
X126790622Y-94091427D01*
X126781423Y-94096216D01*
X126773120Y-94102450D01*
X126715088Y-94146022D01*
X126602737Y-94230377D01*
X126595560Y-94237888D01*
X126595557Y-94237890D01*
X126576291Y-94258051D01*
X126448361Y-94391922D01*
X126442511Y-94400498D01*
X126442510Y-94400499D01*
X126329332Y-94566413D01*
X126322444Y-94576510D01*
X126265294Y-94699630D01*
X126236433Y-94761806D01*
X126228365Y-94779186D01*
X126168651Y-94994506D01*
X126144907Y-95216687D01*
X126157769Y-95439763D01*
X126160051Y-95449887D01*
X126160051Y-95449890D01*
X126172426Y-95504802D01*
X126206893Y-95657742D01*
X126210798Y-95667359D01*
X126210799Y-95667362D01*
X126287055Y-95855159D01*
X126287058Y-95855165D01*
X126290959Y-95864772D01*
X126296380Y-95873618D01*
X126392922Y-96031159D01*
X126407710Y-96055291D01*
X126414501Y-96063131D01*
X126414502Y-96063132D01*
X126462176Y-96118168D01*
X126511010Y-96203958D01*
X126523298Y-96301906D01*
X126497166Y-96397101D01*
X126436595Y-96475049D01*
X126407727Y-96496655D01*
X126336954Y-96542138D01*
X126336952Y-96542140D01*
X126321729Y-96551923D01*
X126309878Y-96565600D01*
X126263649Y-96618951D01*
X126226016Y-96662381D01*
X126165300Y-96795330D01*
X126144500Y-96940000D01*
X125313544Y-96940000D01*
X125311974Y-96909838D01*
X125310642Y-96884253D01*
X125310300Y-96871104D01*
X125310300Y-96168896D01*
X125310642Y-96155747D01*
X125326914Y-95843079D01*
X125347138Y-95454484D01*
X125348163Y-95441375D01*
X125349413Y-95429404D01*
X125399936Y-94945319D01*
X125421056Y-94742966D01*
X125422761Y-94729923D01*
X125526879Y-94067886D01*
X125531858Y-94036228D01*
X125534238Y-94023298D01*
X125541193Y-93990345D01*
X125620839Y-93612945D01*
X125679232Y-93336251D01*
X125682281Y-93323455D01*
X125862801Y-92644822D01*
X125866512Y-92632203D01*
X126082279Y-91963188D01*
X126086103Y-91952201D01*
X126200661Y-91645966D01*
X126200661Y-91645965D01*
X126209392Y-91622626D01*
X126208591Y-91622321D01*
X126218988Y-91578691D01*
X126222702Y-91564858D01*
X126232201Y-91533094D01*
X126232201Y-91533093D01*
X126237365Y-91515826D01*
X126237454Y-91501204D01*
X126240844Y-91486980D01*
X126240512Y-91480423D01*
X126273110Y-91389620D01*
X126339481Y-91316546D01*
X126428763Y-91274434D01*
X126450400Y-91270031D01*
X126495433Y-91262898D01*
X126508379Y-91260146D01*
X126870984Y-91162987D01*
X126883558Y-91158901D01*
X127234040Y-91024364D01*
X127246102Y-91018994D01*
X127580605Y-90848556D01*
X127592053Y-90841946D01*
X127906887Y-90637491D01*
X127917598Y-90629709D01*
X128034396Y-90535128D01*
X128047946Y-90518835D01*
X128042169Y-90507854D01*
X125343213Y-87808898D01*
X125288369Y-87726819D01*
X125269111Y-87630000D01*
X126301531Y-87630000D01*
X126313304Y-87647619D01*
X128601827Y-89936142D01*
X128619446Y-89947915D01*
X128629762Y-89941022D01*
X128729709Y-89817598D01*
X128737491Y-89806887D01*
X128941946Y-89492053D01*
X128948556Y-89480605D01*
X129118994Y-89146102D01*
X129124364Y-89134040D01*
X129258901Y-88783558D01*
X129262987Y-88770984D01*
X129360146Y-88408379D01*
X129362899Y-88395430D01*
X129421624Y-88024657D01*
X129423007Y-88011498D01*
X129442653Y-87636621D01*
X129442653Y-87623379D01*
X129423007Y-87248502D01*
X129421624Y-87235343D01*
X129362899Y-86864570D01*
X129360146Y-86851621D01*
X129262987Y-86489016D01*
X129258901Y-86476442D01*
X129198696Y-86319603D01*
X140802000Y-86319603D01*
X140802000Y-86570082D01*
X140806134Y-86590866D01*
X140826918Y-86595000D01*
X141535082Y-86595000D01*
X141555866Y-86590866D01*
X141560000Y-86570082D01*
X141560000Y-85636918D01*
X142360000Y-85636918D01*
X142360000Y-86570082D01*
X142364134Y-86590866D01*
X142384918Y-86595000D01*
X143093082Y-86595000D01*
X143113866Y-86590866D01*
X143118000Y-86570082D01*
X143118000Y-86334454D01*
X143117150Y-86319828D01*
X143104237Y-86209068D01*
X143097521Y-86180658D01*
X143047255Y-86042176D01*
X143034180Y-86016066D01*
X142953407Y-85892868D01*
X142934678Y-85870467D01*
X142827720Y-85769145D01*
X142804349Y-85751662D01*
X142676957Y-85677666D01*
X142650178Y-85666022D01*
X142507542Y-85622822D01*
X142482183Y-85617905D01*
X142421631Y-85612500D01*
X142410397Y-85612000D01*
X142384918Y-85612000D01*
X142364134Y-85616134D01*
X142360000Y-85636918D01*
X141560000Y-85636918D01*
X141555866Y-85616134D01*
X141535082Y-85612000D01*
X141524454Y-85612000D01*
X141509828Y-85612850D01*
X141399068Y-85625763D01*
X141370658Y-85632479D01*
X141232176Y-85682745D01*
X141206066Y-85695820D01*
X141082868Y-85776593D01*
X141060467Y-85795322D01*
X140959145Y-85902280D01*
X140941662Y-85925651D01*
X140867666Y-86053043D01*
X140856022Y-86079822D01*
X140812822Y-86222458D01*
X140807905Y-86247817D01*
X140802500Y-86308369D01*
X140802000Y-86319603D01*
X129198696Y-86319603D01*
X129124364Y-86125960D01*
X129118994Y-86113898D01*
X128948556Y-85779395D01*
X128941946Y-85767947D01*
X128737491Y-85453113D01*
X128729709Y-85442402D01*
X128635128Y-85325604D01*
X128618835Y-85312054D01*
X128607854Y-85317831D01*
X126313304Y-87612381D01*
X126301531Y-87630000D01*
X125269111Y-87630000D01*
X125288369Y-87533181D01*
X125343213Y-87451102D01*
X128036142Y-84758173D01*
X128047914Y-84740555D01*
X128035223Y-84721561D01*
X127997446Y-84630360D01*
X127997445Y-84531644D01*
X128035221Y-84440443D01*
X128105023Y-84370639D01*
X128196224Y-84332862D01*
X128245584Y-84328000D01*
X149605493Y-84328000D01*
X149702312Y-84347258D01*
G37*
%TD.AperFunction*%
%TA.AperFunction,Conductor*%
G36*
X124517258Y-106277930D02*
G01*
X124599338Y-106332775D01*
X124703280Y-106436718D01*
X124807225Y-106540662D01*
X124862069Y-106622741D01*
X124881328Y-106719560D01*
X124862070Y-106816379D01*
X124807226Y-106898459D01*
X123863149Y-107842536D01*
X123781070Y-107897380D01*
X123684251Y-107916638D01*
X123587432Y-107897380D01*
X123509662Y-107846743D01*
X123350764Y-107695235D01*
X123334149Y-107677810D01*
X123285231Y-107621356D01*
X123236382Y-107535574D01*
X123224080Y-107437628D01*
X123250196Y-107342430D01*
X123297537Y-107276778D01*
X124241541Y-106332774D01*
X124323620Y-106277930D01*
X124420439Y-106258672D01*
X124517258Y-106277930D01*
G37*
%TD.AperFunction*%
%TA.AperFunction,Conductor*%
G36*
X182381379Y-106277930D02*
G01*
X182463459Y-106332774D01*
X183407463Y-107276778D01*
X183462307Y-107358857D01*
X183481565Y-107455676D01*
X183462307Y-107552495D01*
X183419769Y-107621356D01*
X183370851Y-107677810D01*
X183354236Y-107695235D01*
X183195338Y-107846743D01*
X183111977Y-107899618D01*
X183014727Y-107916566D01*
X182918394Y-107895009D01*
X182841851Y-107842536D01*
X181897774Y-106898459D01*
X181842930Y-106816380D01*
X181823672Y-106719561D01*
X181842930Y-106622742D01*
X181897775Y-106540662D01*
X182001720Y-106436718D01*
X182105662Y-106332775D01*
X182187741Y-106277931D01*
X182284560Y-106258672D01*
X182381379Y-106277930D01*
G37*
%TD.AperFunction*%
%TA.AperFunction,Conductor*%
G36*
X123786606Y-102924991D02*
G01*
X123863149Y-102977464D01*
X124807226Y-103921541D01*
X124862070Y-104003620D01*
X124881328Y-104100439D01*
X124862070Y-104197258D01*
X124807225Y-104279338D01*
X124703280Y-104383282D01*
X124599338Y-104487225D01*
X124517259Y-104542069D01*
X124420440Y-104561328D01*
X124323621Y-104542070D01*
X124241541Y-104487226D01*
X123297537Y-103543222D01*
X123242693Y-103461143D01*
X123223435Y-103364324D01*
X123242693Y-103267505D01*
X123285231Y-103198644D01*
X123334149Y-103142190D01*
X123350764Y-103124765D01*
X123509662Y-102973257D01*
X123593023Y-102920382D01*
X123690273Y-102903434D01*
X123786606Y-102924991D01*
G37*
%TD.AperFunction*%
%TA.AperFunction,Conductor*%
G36*
X183117568Y-102922620D02*
G01*
X183195338Y-102973257D01*
X183354236Y-103124765D01*
X183370851Y-103142190D01*
X183419769Y-103198644D01*
X183468618Y-103284426D01*
X183480920Y-103382372D01*
X183454804Y-103477570D01*
X183407463Y-103543222D01*
X182463459Y-104487226D01*
X182381380Y-104542070D01*
X182284561Y-104561328D01*
X182187742Y-104542070D01*
X182105662Y-104487225D01*
X182001718Y-104383280D01*
X181897775Y-104279338D01*
X181842931Y-104197259D01*
X181823672Y-104100440D01*
X181842930Y-104003621D01*
X181897774Y-103921541D01*
X182841851Y-102977464D01*
X182923930Y-102922620D01*
X183020749Y-102903362D01*
X183117568Y-102922620D01*
G37*
%TD.AperFunction*%
%TA.AperFunction,Conductor*%
G36*
X124517258Y-88497930D02*
G01*
X124599338Y-88552775D01*
X124703280Y-88656718D01*
X124807225Y-88760662D01*
X124862069Y-88842741D01*
X124881328Y-88939560D01*
X124862070Y-89036379D01*
X124807226Y-89118459D01*
X123863149Y-90062536D01*
X123781070Y-90117380D01*
X123684251Y-90136638D01*
X123587432Y-90117380D01*
X123509662Y-90066743D01*
X123350764Y-89915235D01*
X123334149Y-89897810D01*
X123285231Y-89841356D01*
X123236382Y-89755574D01*
X123224080Y-89657628D01*
X123250196Y-89562430D01*
X123297537Y-89496778D01*
X124241541Y-88552774D01*
X124323620Y-88497930D01*
X124420439Y-88478672D01*
X124517258Y-88497930D01*
G37*
%TD.AperFunction*%
%TA.AperFunction,Conductor*%
G36*
X182381379Y-88497930D02*
G01*
X182463459Y-88552774D01*
X183407463Y-89496778D01*
X183462307Y-89578857D01*
X183481565Y-89675676D01*
X183462307Y-89772495D01*
X183419769Y-89841356D01*
X183370851Y-89897810D01*
X183354236Y-89915235D01*
X183195338Y-90066743D01*
X183111977Y-90119618D01*
X183014727Y-90136566D01*
X182918394Y-90115009D01*
X182841851Y-90062536D01*
X181897774Y-89118459D01*
X181842930Y-89036380D01*
X181823672Y-88939561D01*
X181842930Y-88842742D01*
X181897775Y-88760662D01*
X182001720Y-88656718D01*
X182105662Y-88552775D01*
X182187741Y-88497931D01*
X182284560Y-88478672D01*
X182381379Y-88497930D01*
G37*
%TD.AperFunction*%
%TA.AperFunction,Conductor*%
G36*
X183117568Y-85142620D02*
G01*
X183195338Y-85193257D01*
X183354236Y-85344765D01*
X183370851Y-85362190D01*
X183419769Y-85418644D01*
X183468618Y-85504426D01*
X183480920Y-85602372D01*
X183454804Y-85697570D01*
X183407463Y-85763222D01*
X182463459Y-86707226D01*
X182381380Y-86762070D01*
X182284561Y-86781328D01*
X182187742Y-86762070D01*
X182105662Y-86707225D01*
X182001718Y-86603280D01*
X181897775Y-86499338D01*
X181842931Y-86417259D01*
X181823672Y-86320440D01*
X181842930Y-86223621D01*
X181897774Y-86141541D01*
X182841851Y-85197464D01*
X182923930Y-85142620D01*
X183020749Y-85123362D01*
X183117568Y-85142620D01*
G37*
%TD.AperFunction*%
%TA.AperFunction,Conductor*%
G36*
X123786606Y-85144991D02*
G01*
X123863149Y-85197464D01*
X124807226Y-86141541D01*
X124862070Y-86223620D01*
X124881328Y-86320439D01*
X124862070Y-86417258D01*
X124807225Y-86499338D01*
X124703280Y-86603282D01*
X124599338Y-86707225D01*
X124517259Y-86762069D01*
X124420440Y-86781328D01*
X124323621Y-86762070D01*
X124241541Y-86707226D01*
X123297537Y-85763222D01*
X123242693Y-85681143D01*
X123223435Y-85584324D01*
X123242693Y-85487505D01*
X123285231Y-85418644D01*
X123334149Y-85362190D01*
X123350764Y-85344765D01*
X123509662Y-85193257D01*
X123593023Y-85140382D01*
X123690273Y-85123434D01*
X123786606Y-85144991D01*
G37*
%TD.AperFunction*%
%TD*%
%TA.AperFunction,NonConductor*%
G36*
X159755904Y-91758893D02*
G01*
X159801860Y-91795252D01*
X160407398Y-92400790D01*
X160462242Y-92482869D01*
X160481500Y-92579688D01*
X160481500Y-92747236D01*
X160462242Y-92844055D01*
X160407398Y-92926134D01*
X160325319Y-92980978D01*
X160228500Y-93000236D01*
X160131681Y-92980978D01*
X160049602Y-92926134D01*
X160016920Y-92885954D01*
X159968791Y-92812545D01*
X159968786Y-92812539D01*
X159960731Y-92800253D01*
X159832355Y-92678642D01*
X159774130Y-92644822D01*
X159692154Y-92597207D01*
X159679445Y-92589825D01*
X159648245Y-92580376D01*
X159561167Y-92533879D01*
X159498509Y-92457598D01*
X159493421Y-92447558D01*
X159488291Y-92436852D01*
X159483641Y-92423498D01*
X159469987Y-92401648D01*
X159455246Y-92374498D01*
X159453176Y-92370059D01*
X159444363Y-92351158D01*
X159421733Y-92321983D01*
X159407097Y-92301002D01*
X159406279Y-92299693D01*
X159387535Y-92269696D01*
X159377567Y-92259658D01*
X159359310Y-92241273D01*
X159358245Y-92240135D01*
X159357271Y-92238879D01*
X159308823Y-92190431D01*
X159308197Y-92189803D01*
X159293547Y-92175050D01*
X159238992Y-92092780D01*
X159220073Y-91995894D01*
X159239670Y-91899143D01*
X159294801Y-91817256D01*
X159377071Y-91762701D01*
X159443772Y-91745482D01*
X159449715Y-91744789D01*
X159550643Y-91733022D01*
X159564464Y-91728005D01*
X159564757Y-91727936D01*
X159663409Y-91724404D01*
X159755904Y-91758893D01*
G37*
%TD.AperFunction*%
%TA.AperFunction,NonConductor*%
G36*
X155057991Y-94583625D02*
G01*
X155114774Y-94624165D01*
X155127645Y-94636358D01*
X155140355Y-94643741D01*
X155143263Y-94645916D01*
X155209252Y-94719334D01*
X155242122Y-94812417D01*
X155236868Y-94910993D01*
X155194292Y-95000055D01*
X155120874Y-95066044D01*
X155027791Y-95098914D01*
X154991708Y-95101500D01*
X154883522Y-95101500D01*
X154786703Y-95082242D01*
X154704624Y-95027398D01*
X154649780Y-94945319D01*
X154630522Y-94848500D01*
X154649780Y-94751681D01*
X154704624Y-94669602D01*
X154744803Y-94636920D01*
X154772458Y-94618788D01*
X154784747Y-94610731D01*
X154785542Y-94609891D01*
X154865120Y-94566413D01*
X154963267Y-94555836D01*
X155057991Y-94583625D01*
G37*
%TD.AperFunction*%
%TA.AperFunction,NonConductor*%
G36*
X134902806Y-93352758D02*
G01*
X134984885Y-93407602D01*
X135039729Y-93489681D01*
X135058987Y-93586500D01*
X135039729Y-93683319D01*
X134984885Y-93765398D01*
X134965205Y-93783118D01*
X134809344Y-93909332D01*
X134549332Y-94169344D01*
X134481761Y-94252787D01*
X134335767Y-94433075D01*
X134317923Y-94455110D01*
X134314315Y-94460666D01*
X134314312Y-94460670D01*
X134144421Y-94722281D01*
X134117653Y-94763500D01*
X134114652Y-94769390D01*
X134114649Y-94769395D01*
X133971925Y-95049507D01*
X133910810Y-95127030D01*
X133824681Y-95175264D01*
X133726650Y-95186867D01*
X133631640Y-95160072D01*
X133554117Y-95098957D01*
X133505883Y-95012828D01*
X133493500Y-94934647D01*
X133493500Y-94491084D01*
X133512758Y-94394265D01*
X133567602Y-94312186D01*
X134472186Y-93407602D01*
X134554265Y-93352758D01*
X134651084Y-93333500D01*
X134805987Y-93333500D01*
X134902806Y-93352758D01*
G37*
%TD.AperFunction*%
%TA.AperFunction,NonConductor*%
G36*
X133453445Y-96158004D02*
G01*
X133543958Y-96197402D01*
X133612504Y-96268439D01*
X133648648Y-96360300D01*
X133652321Y-96418463D01*
X133649356Y-96475049D01*
X133647000Y-96520000D01*
X133647347Y-96526621D01*
X133647347Y-96526623D01*
X133652150Y-96618275D01*
X133637985Y-96715969D01*
X133587512Y-96800806D01*
X133508416Y-96859869D01*
X133412737Y-96884168D01*
X133315043Y-96870003D01*
X133267819Y-96846854D01*
X133257619Y-96838016D01*
X133124670Y-96777300D01*
X133106761Y-96774725D01*
X133106757Y-96774724D01*
X133086416Y-96771800D01*
X132993323Y-96738960D01*
X132919884Y-96672994D01*
X132877278Y-96583946D01*
X132871994Y-96485372D01*
X132904834Y-96392279D01*
X132970800Y-96318840D01*
X133053388Y-96279325D01*
X133053079Y-96278273D01*
X133059570Y-96276367D01*
X133060521Y-96276088D01*
X133060525Y-96276087D01*
X133175955Y-96242194D01*
X133175957Y-96242193D01*
X133193316Y-96237096D01*
X133216811Y-96221997D01*
X133262884Y-96192387D01*
X133354745Y-96156243D01*
X133453445Y-96158004D01*
G37*
%TD.AperFunction*%
%TA.AperFunction,NonConductor*%
G36*
X130510319Y-95297758D02*
G01*
X130592398Y-95352602D01*
X130647242Y-95434681D01*
X130666500Y-95531500D01*
X130666500Y-95770000D01*
X130671727Y-95843079D01*
X130675546Y-95856084D01*
X130675546Y-95856086D01*
X130701049Y-95942940D01*
X130712904Y-95983316D01*
X130722686Y-95998537D01*
X130766412Y-96066575D01*
X130791923Y-96106271D01*
X130902381Y-96201984D01*
X131035330Y-96262700D01*
X131053239Y-96265275D01*
X131053243Y-96265276D01*
X131073584Y-96268200D01*
X131166677Y-96301040D01*
X131240116Y-96367006D01*
X131282722Y-96456054D01*
X131288006Y-96554628D01*
X131255166Y-96647721D01*
X131189200Y-96721160D01*
X131106612Y-96760675D01*
X131106921Y-96761727D01*
X131099479Y-96763912D01*
X131099475Y-96763913D01*
X130984045Y-96797806D01*
X130984043Y-96797807D01*
X130966684Y-96802904D01*
X130951463Y-96812686D01*
X130858951Y-96872140D01*
X130858949Y-96872141D01*
X130843729Y-96881923D01*
X130809108Y-96921878D01*
X130785649Y-96948951D01*
X130748016Y-96992381D01*
X130687300Y-97125330D01*
X130666500Y-97270000D01*
X130666500Y-97508500D01*
X130647242Y-97605319D01*
X130592398Y-97687398D01*
X130510319Y-97742242D01*
X130413500Y-97761500D01*
X129124500Y-97761500D01*
X129027681Y-97742242D01*
X128945602Y-97687398D01*
X128890758Y-97605319D01*
X128871500Y-97508500D01*
X128871500Y-96940000D01*
X128871052Y-96933729D01*
X128867724Y-96887208D01*
X128866273Y-96866921D01*
X128857786Y-96838016D01*
X128830194Y-96744045D01*
X128830193Y-96744043D01*
X128825096Y-96726684D01*
X128813206Y-96708183D01*
X128755860Y-96618951D01*
X128755859Y-96618949D01*
X128746077Y-96603729D01*
X128674998Y-96542138D01*
X128649296Y-96519867D01*
X128649295Y-96519866D01*
X128635619Y-96508016D01*
X128619159Y-96500499D01*
X128613016Y-96496551D01*
X128541979Y-96428005D01*
X128502581Y-96337492D01*
X128500820Y-96238792D01*
X128536964Y-96146931D01*
X128546625Y-96133904D01*
X128546357Y-96133711D01*
X128670689Y-95960686D01*
X128676748Y-95952254D01*
X128747422Y-95809255D01*
X128795335Y-95742453D01*
X129185186Y-95352602D01*
X129267265Y-95297758D01*
X129364084Y-95278500D01*
X130413500Y-95278500D01*
X130510319Y-95297758D01*
G37*
%TD.AperFunction*%
%TA.AperFunction,NonConductor*%
G36*
X147052212Y-89802758D02*
G01*
X147134291Y-89857602D01*
X147189135Y-89939681D01*
X147208393Y-90036500D01*
X147207392Y-90058982D01*
X147206500Y-90068978D01*
X147206500Y-90967886D01*
X147208781Y-90987452D01*
X147220263Y-91085930D01*
X147221978Y-91100643D01*
X147226992Y-91114455D01*
X147226992Y-91114457D01*
X147255646Y-91193396D01*
X147282313Y-91266864D01*
X147290368Y-91279150D01*
X147290370Y-91279154D01*
X147350743Y-91371237D01*
X147379269Y-91414747D01*
X147507645Y-91536358D01*
X147520351Y-91543738D01*
X147520352Y-91543739D01*
X147580535Y-91578696D01*
X147660555Y-91625175D01*
X147674621Y-91629435D01*
X147674623Y-91629436D01*
X147817370Y-91672670D01*
X147817374Y-91672671D01*
X147829796Y-91676433D01*
X147866350Y-91679695D01*
X147903371Y-91683000D01*
X147903381Y-91683000D01*
X147908978Y-91683500D01*
X149257886Y-91683500D01*
X149334257Y-91674596D01*
X149376047Y-91669724D01*
X149376049Y-91669723D01*
X149390643Y-91668022D01*
X149404455Y-91663008D01*
X149404457Y-91663008D01*
X149543049Y-91612702D01*
X149543052Y-91612700D01*
X149556864Y-91607687D01*
X149569150Y-91599632D01*
X149569154Y-91599630D01*
X149692461Y-91518786D01*
X149704747Y-91510731D01*
X149705542Y-91509891D01*
X149785120Y-91466413D01*
X149883267Y-91455836D01*
X149977991Y-91483625D01*
X150034775Y-91524166D01*
X150036976Y-91526252D01*
X150036980Y-91526255D01*
X150047645Y-91536358D01*
X150060351Y-91543738D01*
X150060352Y-91543739D01*
X150120535Y-91578696D01*
X150200555Y-91625175D01*
X150214621Y-91629435D01*
X150214623Y-91629436D01*
X150357370Y-91672670D01*
X150357374Y-91672671D01*
X150369796Y-91676433D01*
X150406350Y-91679695D01*
X150443371Y-91683000D01*
X150443381Y-91683000D01*
X150448978Y-91683500D01*
X151797886Y-91683500D01*
X151874257Y-91674596D01*
X151916047Y-91669724D01*
X151916049Y-91669723D01*
X151930643Y-91668022D01*
X151944455Y-91663008D01*
X151944457Y-91663008D01*
X152083049Y-91612702D01*
X152083052Y-91612700D01*
X152096864Y-91607687D01*
X152109150Y-91599632D01*
X152109154Y-91599630D01*
X152232461Y-91518786D01*
X152244747Y-91510731D01*
X152245542Y-91509891D01*
X152325120Y-91466413D01*
X152423267Y-91455836D01*
X152517991Y-91483625D01*
X152574775Y-91524166D01*
X152576976Y-91526252D01*
X152576980Y-91526255D01*
X152587645Y-91536358D01*
X152600351Y-91543738D01*
X152600352Y-91543739D01*
X152660535Y-91578696D01*
X152740555Y-91625175D01*
X152754621Y-91629435D01*
X152754623Y-91629436D01*
X152897370Y-91672670D01*
X152897374Y-91672671D01*
X152909796Y-91676433D01*
X152967704Y-91681601D01*
X153062426Y-91709389D01*
X153139305Y-91771312D01*
X153186636Y-91857941D01*
X153197211Y-91956089D01*
X153169423Y-92050812D01*
X153124111Y-92112497D01*
X153097497Y-92139111D01*
X153095614Y-92140974D01*
X153039583Y-92195844D01*
X153019585Y-92226874D01*
X153004659Y-92247647D01*
X152981622Y-92276505D01*
X152975468Y-92289235D01*
X152975463Y-92289243D01*
X152970412Y-92299693D01*
X152955294Y-92326634D01*
X152941338Y-92348289D01*
X152936500Y-92361583D01*
X152930212Y-92374249D01*
X152929072Y-92373683D01*
X152885419Y-92445625D01*
X152805811Y-92503999D01*
X152785211Y-92512522D01*
X152703136Y-92542313D01*
X152690850Y-92550368D01*
X152690846Y-92550370D01*
X152575745Y-92625834D01*
X152555253Y-92639269D01*
X152554458Y-92640109D01*
X152474880Y-92683587D01*
X152376733Y-92694164D01*
X152282009Y-92666375D01*
X152225225Y-92625834D01*
X152223024Y-92623748D01*
X152223020Y-92623745D01*
X152212355Y-92613642D01*
X152172517Y-92590502D01*
X152072154Y-92532207D01*
X152059445Y-92524825D01*
X152045379Y-92520565D01*
X152045377Y-92520564D01*
X151902630Y-92477330D01*
X151902626Y-92477329D01*
X151890204Y-92473567D01*
X151853650Y-92470305D01*
X151816629Y-92467000D01*
X151816619Y-92467000D01*
X151811022Y-92466500D01*
X150462114Y-92466500D01*
X150396254Y-92474179D01*
X150343953Y-92480276D01*
X150343951Y-92480277D01*
X150329357Y-92481978D01*
X150315545Y-92486992D01*
X150315543Y-92486992D01*
X150176951Y-92537298D01*
X150176949Y-92537299D01*
X150163136Y-92542313D01*
X150150850Y-92550368D01*
X150150846Y-92550370D01*
X150035745Y-92625834D01*
X150015253Y-92639269D01*
X150014458Y-92640109D01*
X149934880Y-92683587D01*
X149836733Y-92694164D01*
X149742009Y-92666375D01*
X149685225Y-92625834D01*
X149683024Y-92623748D01*
X149683020Y-92623745D01*
X149672355Y-92613642D01*
X149632517Y-92590502D01*
X149532154Y-92532207D01*
X149519445Y-92524825D01*
X149505379Y-92520565D01*
X149505377Y-92520564D01*
X149362630Y-92477330D01*
X149362626Y-92477329D01*
X149350204Y-92473567D01*
X149313650Y-92470305D01*
X149276629Y-92467000D01*
X149276619Y-92467000D01*
X149271022Y-92466500D01*
X147922114Y-92466500D01*
X147856254Y-92474179D01*
X147803953Y-92480276D01*
X147803951Y-92480277D01*
X147789357Y-92481978D01*
X147775545Y-92486992D01*
X147775543Y-92486992D01*
X147636951Y-92537298D01*
X147636949Y-92537299D01*
X147623136Y-92542313D01*
X147610850Y-92550368D01*
X147610846Y-92550370D01*
X147495745Y-92625834D01*
X147475253Y-92639269D01*
X147353642Y-92767645D01*
X147346262Y-92780351D01*
X147346261Y-92780352D01*
X147319972Y-92825612D01*
X147264825Y-92920555D01*
X147260565Y-92934621D01*
X147260564Y-92934623D01*
X147219071Y-93071624D01*
X147213567Y-93089796D01*
X147210305Y-93126350D01*
X147207074Y-93162548D01*
X147206500Y-93168978D01*
X147206500Y-94067886D01*
X147221978Y-94200643D01*
X147226992Y-94214455D01*
X147226992Y-94214457D01*
X147257767Y-94299240D01*
X147282313Y-94366864D01*
X147290368Y-94379150D01*
X147290370Y-94379154D01*
X147358032Y-94482355D01*
X147379269Y-94514747D01*
X147507645Y-94636358D01*
X147520351Y-94643738D01*
X147520352Y-94643739D01*
X147557066Y-94665064D01*
X147660555Y-94725175D01*
X147674621Y-94729435D01*
X147674623Y-94729436D01*
X147817370Y-94772670D01*
X147817374Y-94772671D01*
X147829796Y-94776433D01*
X147866350Y-94779695D01*
X147903371Y-94783000D01*
X147903381Y-94783000D01*
X147908978Y-94783500D01*
X149257886Y-94783500D01*
X149323746Y-94775821D01*
X149376047Y-94769724D01*
X149376049Y-94769723D01*
X149390643Y-94768022D01*
X149404455Y-94763008D01*
X149404457Y-94763008D01*
X149543049Y-94712702D01*
X149543052Y-94712700D01*
X149556864Y-94707687D01*
X149569150Y-94699632D01*
X149569154Y-94699630D01*
X149692461Y-94618786D01*
X149704747Y-94610731D01*
X149705542Y-94609891D01*
X149785120Y-94566413D01*
X149883267Y-94555836D01*
X149977991Y-94583625D01*
X150034775Y-94624166D01*
X150036976Y-94626252D01*
X150036980Y-94626255D01*
X150047645Y-94636358D01*
X150060351Y-94643738D01*
X150060352Y-94643739D01*
X150097066Y-94665064D01*
X150172259Y-94708739D01*
X150195573Y-94722281D01*
X150269621Y-94787563D01*
X150313050Y-94876212D01*
X150321500Y-94941054D01*
X150321500Y-97428500D01*
X150302242Y-97525319D01*
X150247398Y-97607398D01*
X150165319Y-97662242D01*
X150068500Y-97681500D01*
X146673967Y-97681500D01*
X146577148Y-97662242D01*
X146495069Y-97607398D01*
X146440225Y-97525319D01*
X146420967Y-97428500D01*
X146440225Y-97331681D01*
X146454203Y-97303149D01*
X146475690Y-97265478D01*
X146563820Y-97110971D01*
X146638805Y-96899220D01*
X146640624Y-96888114D01*
X146640625Y-96888109D01*
X146661320Y-96761727D01*
X146675107Y-96677536D01*
X146671578Y-96452928D01*
X146653405Y-96360300D01*
X146630501Y-96243553D01*
X146630499Y-96243548D01*
X146628331Y-96232495D01*
X146546731Y-96023204D01*
X146480222Y-95914670D01*
X146435244Y-95841271D01*
X146435241Y-95841267D01*
X146429360Y-95831670D01*
X146397710Y-95796146D01*
X146287419Y-95672358D01*
X146279926Y-95663948D01*
X146103151Y-95525340D01*
X145931926Y-95434681D01*
X145914584Y-95425499D01*
X145904625Y-95420226D01*
X145690624Y-95351930D01*
X145679450Y-95350459D01*
X145679446Y-95350458D01*
X145479085Y-95324079D01*
X145479082Y-95324079D01*
X145467910Y-95322608D01*
X145311398Y-95329989D01*
X145254782Y-95332659D01*
X145243523Y-95333190D01*
X145024557Y-95383340D01*
X144817932Y-95471473D01*
X144630180Y-95594804D01*
X144586420Y-95633792D01*
X139952814Y-100267398D01*
X139870735Y-100322242D01*
X139773916Y-100341500D01*
X138359060Y-100341500D01*
X138262241Y-100322242D01*
X138180162Y-100267398D01*
X138125318Y-100185319D01*
X138106060Y-100088500D01*
X138125318Y-99991681D01*
X138180162Y-99909602D01*
X138268393Y-99852304D01*
X138582679Y-99731660D01*
X138588866Y-99729285D01*
X138798335Y-99622555D01*
X138910605Y-99565351D01*
X138910610Y-99565348D01*
X138916500Y-99562347D01*
X138957348Y-99535820D01*
X139219330Y-99365688D01*
X139219334Y-99365685D01*
X139224890Y-99362077D01*
X139239439Y-99350296D01*
X139494455Y-99143787D01*
X139510656Y-99130668D01*
X139770668Y-98870656D01*
X139887739Y-98726086D01*
X139997906Y-98590041D01*
X139997908Y-98590039D01*
X140002077Y-98584890D01*
X140010716Y-98571588D01*
X140198741Y-98282053D01*
X140198742Y-98282051D01*
X140202347Y-98276500D01*
X140222018Y-98237895D01*
X140366281Y-97954762D01*
X140366282Y-97954759D01*
X140369285Y-97948866D01*
X140433821Y-97780745D01*
X140498692Y-97611752D01*
X140498694Y-97611746D01*
X140501062Y-97605577D01*
X140509254Y-97575006D01*
X140589766Y-97274529D01*
X140596233Y-97250394D01*
X140653755Y-96887208D01*
X140654110Y-96880444D01*
X140672653Y-96526621D01*
X140673000Y-96520000D01*
X140666306Y-96392279D01*
X140654102Y-96159411D01*
X140654102Y-96159409D01*
X140653755Y-96152792D01*
X140606762Y-95856086D01*
X140597269Y-95796146D01*
X140597268Y-95796143D01*
X140596233Y-95789606D01*
X140566773Y-95679660D01*
X140502776Y-95440818D01*
X140502773Y-95440810D01*
X140501062Y-95434423D01*
X140497637Y-95425499D01*
X140371658Y-95097315D01*
X140371656Y-95097310D01*
X140369285Y-95091134D01*
X140288991Y-94933549D01*
X140205351Y-94769395D01*
X140205348Y-94769390D01*
X140202347Y-94763500D01*
X140175579Y-94722281D01*
X140005688Y-94460670D01*
X140005685Y-94460666D01*
X140002077Y-94455110D01*
X139984234Y-94433075D01*
X139838239Y-94252787D01*
X139770668Y-94169344D01*
X139510656Y-93909332D01*
X139354795Y-93783118D01*
X139291672Y-93707221D01*
X139262399Y-93612945D01*
X139271432Y-93514644D01*
X139317395Y-93427282D01*
X139393292Y-93364159D01*
X139487568Y-93334886D01*
X139514013Y-93333500D01*
X142775948Y-93333500D01*
X142808959Y-93335663D01*
X142822090Y-93337392D01*
X142898659Y-93333781D01*
X142910578Y-93333500D01*
X142931024Y-93333500D01*
X142955342Y-93331329D01*
X142965904Y-93330609D01*
X142983688Y-93329771D01*
X143035224Y-93327341D01*
X143035228Y-93327340D01*
X143046477Y-93326810D01*
X143057461Y-93324294D01*
X143063851Y-93323419D01*
X143081183Y-93320674D01*
X143087527Y-93319533D01*
X143098747Y-93318531D01*
X143109612Y-93315559D01*
X143109616Y-93315558D01*
X143176536Y-93297251D01*
X143186812Y-93294670D01*
X143254455Y-93279177D01*
X143254459Y-93279176D01*
X143265443Y-93276660D01*
X143275804Y-93272241D01*
X143281956Y-93270242D01*
X143298482Y-93264487D01*
X143304552Y-93262230D01*
X143315421Y-93259256D01*
X143340878Y-93247114D01*
X143388242Y-93224523D01*
X143397851Y-93220184D01*
X143472068Y-93188527D01*
X143481494Y-93182335D01*
X143487216Y-93179267D01*
X143502444Y-93170687D01*
X143508005Y-93167398D01*
X143518174Y-93162548D01*
X143583710Y-93115455D01*
X143592409Y-93109477D01*
X143659820Y-93065196D01*
X143675631Y-93051109D01*
X143685006Y-93043598D01*
X143691452Y-93038034D01*
X143700597Y-93031463D01*
X143740807Y-92989970D01*
X143770396Y-92959436D01*
X143773184Y-92956604D01*
X144329852Y-92399936D01*
X144354735Y-92378114D01*
X144356298Y-92376915D01*
X144365233Y-92370059D01*
X144384363Y-92349036D01*
X144416826Y-92313359D01*
X144425055Y-92304733D01*
X144439509Y-92290279D01*
X144455172Y-92271546D01*
X144462119Y-92263583D01*
X144508833Y-92212245D01*
X144508835Y-92212243D01*
X144516416Y-92203911D01*
X144522403Y-92194367D01*
X144526307Y-92189223D01*
X144536585Y-92175076D01*
X144540290Y-92169745D01*
X144547522Y-92161096D01*
X144587491Y-92091023D01*
X144592903Y-92081980D01*
X144635787Y-92013617D01*
X144639991Y-92003160D01*
X144642906Y-91997439D01*
X144650559Y-91981609D01*
X144653240Y-91975753D01*
X144658820Y-91965970D01*
X144662578Y-91955357D01*
X144662582Y-91955349D01*
X144685751Y-91889924D01*
X144689495Y-91880016D01*
X144715371Y-91815646D01*
X144715372Y-91815642D01*
X144719573Y-91805192D01*
X144721857Y-91794166D01*
X144723739Y-91787931D01*
X144728438Y-91771100D01*
X144730045Y-91764841D01*
X144733806Y-91754220D01*
X144735627Y-91743097D01*
X144735629Y-91743091D01*
X144746846Y-91674596D01*
X144748776Y-91664179D01*
X144763246Y-91594303D01*
X144763247Y-91594299D01*
X144765126Y-91585223D01*
X144766345Y-91564077D01*
X144767663Y-91552146D01*
X144768287Y-91543653D01*
X144770107Y-91532536D01*
X144768531Y-91432200D01*
X144768500Y-91428228D01*
X144768500Y-91113976D01*
X144753531Y-90946253D01*
X144717443Y-90814336D01*
X144697230Y-90740449D01*
X144697229Y-90740446D01*
X144694256Y-90729579D01*
X144653810Y-90644781D01*
X144602399Y-90536995D01*
X144602396Y-90536989D01*
X144597548Y-90526826D01*
X144590977Y-90517682D01*
X144589558Y-90515282D01*
X144556852Y-90422142D01*
X144562279Y-90323575D01*
X144605013Y-90234589D01*
X144678547Y-90168729D01*
X144771687Y-90136023D01*
X144807329Y-90133500D01*
X144860000Y-90133500D01*
X144864510Y-90133177D01*
X144864522Y-90133177D01*
X144900215Y-90130624D01*
X144933079Y-90128273D01*
X144946084Y-90124454D01*
X144946086Y-90124454D01*
X145055955Y-90092194D01*
X145055957Y-90092193D01*
X145073316Y-90087096D01*
X145147048Y-90039711D01*
X145181049Y-90017860D01*
X145181051Y-90017859D01*
X145196271Y-90008077D01*
X145255614Y-89939592D01*
X145280133Y-89911296D01*
X145280134Y-89911295D01*
X145291984Y-89897619D01*
X145294128Y-89892925D01*
X145356121Y-89828679D01*
X145446634Y-89789281D01*
X145500411Y-89783500D01*
X146955393Y-89783500D01*
X147052212Y-89802758D01*
G37*
%TD.AperFunction*%
%TA.AperFunction,NonConductor*%
G36*
X133843319Y-97871611D02*
G01*
X133925398Y-97926455D01*
X133971925Y-97990493D01*
X134097983Y-98237895D01*
X134117653Y-98276500D01*
X134121258Y-98282051D01*
X134121259Y-98282053D01*
X134309285Y-98571588D01*
X134317923Y-98584890D01*
X134322092Y-98590039D01*
X134322094Y-98590041D01*
X134432261Y-98726086D01*
X134549332Y-98870656D01*
X134809344Y-99130668D01*
X134825545Y-99143787D01*
X135080562Y-99350296D01*
X135095110Y-99362077D01*
X135100666Y-99365685D01*
X135100670Y-99365688D01*
X135362652Y-99535820D01*
X135403500Y-99562347D01*
X135409390Y-99565348D01*
X135409395Y-99565351D01*
X135521665Y-99622555D01*
X135731134Y-99729285D01*
X135737321Y-99731660D01*
X136051607Y-99852304D01*
X136135094Y-99904981D01*
X136192067Y-99985596D01*
X136213853Y-100081878D01*
X136197136Y-100179167D01*
X136144459Y-100262654D01*
X136063844Y-100319627D01*
X135960940Y-100341500D01*
X135286084Y-100341500D01*
X135189265Y-100322242D01*
X135107186Y-100267398D01*
X133567602Y-98727814D01*
X133512758Y-98645735D01*
X133493500Y-98548916D01*
X133493500Y-98105353D01*
X133512758Y-98008534D01*
X133567602Y-97926455D01*
X133649681Y-97871611D01*
X133746500Y-97852353D01*
X133843319Y-97871611D01*
G37*
%TD.AperFunction*%
%TA.AperFunction,NonConductor*%
G36*
X150165319Y-100587758D02*
G01*
X150247398Y-100642602D01*
X150302242Y-100724681D01*
X150321500Y-100821500D01*
X150321500Y-101261164D01*
X150302242Y-101357983D01*
X150247398Y-101440062D01*
X150165319Y-101494906D01*
X150068500Y-101514164D01*
X149971681Y-101494906D01*
X149888978Y-101439436D01*
X149863812Y-101414093D01*
X149863808Y-101414089D01*
X149861742Y-101412009D01*
X149860877Y-101411460D01*
X149860636Y-101411244D01*
X149449790Y-101000398D01*
X149394946Y-100918319D01*
X149375688Y-100821500D01*
X149394946Y-100724681D01*
X149449790Y-100642602D01*
X149531869Y-100587758D01*
X149628688Y-100568500D01*
X150068500Y-100568500D01*
X150165319Y-100587758D01*
G37*
%TD.AperFunction*%
M02*
