%TF.GenerationSoftware,KiCad,Pcbnew,(5.99.0-11163-g08fb05e522)*%
%TF.CreationDate,2021-11-19T20:45:56+01:00*%
%TF.ProjectId,pumpBoard,70756d70-426f-4617-9264-2e6b69636164,rev?*%
%TF.SameCoordinates,Original*%
%TF.FileFunction,Copper,L2,Bot*%
%TF.FilePolarity,Positive*%
%FSLAX46Y46*%
G04 Gerber Fmt 4.6, Leading zero omitted, Abs format (unit mm)*
G04 Created by KiCad (PCBNEW (5.99.0-11163-g08fb05e522)) date 2021-11-19 20:45:56*
%MOMM*%
%LPD*%
G01*
G04 APERTURE LIST*
%TA.AperFunction,NonConductor*%
%ADD10C,0.150000*%
%TD*%
%TA.AperFunction,ComponentPad*%
%ADD11C,0.800000*%
%TD*%
%TA.AperFunction,ComponentPad*%
%ADD12C,6.400000*%
%TD*%
%TA.AperFunction,ComponentPad*%
%ADD13R,1.700000X1.700000*%
%TD*%
%TA.AperFunction,ComponentPad*%
%ADD14O,1.700000X1.700000*%
%TD*%
%TA.AperFunction,ComponentPad*%
%ADD15O,6.000000X3.500000*%
%TD*%
%TA.AperFunction,ComponentPad*%
%ADD16C,1.700000*%
%TD*%
%TA.AperFunction,SMDPad,CuDef*%
%ADD17R,13.000000X4.000000*%
%TD*%
%TA.AperFunction,ViaPad*%
%ADD18C,0.800000*%
%TD*%
%TA.AperFunction,ViaPad*%
%ADD19C,1.270000*%
%TD*%
%TA.AperFunction,Conductor*%
%ADD20C,1.500000*%
%TD*%
G04 APERTURE END LIST*
D10*
X176911000Y-89281000D02*
X176149000Y-88392000D01*
X176149000Y-88392000D02*
X175514000Y-87757000D01*
X175514000Y-87757000D02*
X174752000Y-87122000D01*
X174752000Y-87122000D02*
X173863000Y-86487000D01*
X173863000Y-86487000D02*
X173101000Y-85979000D01*
X173101000Y-85979000D02*
X172212000Y-85598000D01*
X172212000Y-85598000D02*
X171450000Y-85344000D01*
X171450000Y-85344000D02*
X171450000Y-84328000D01*
X171450000Y-84328000D02*
X176911000Y-84328000D01*
X176911000Y-84328000D02*
X176911000Y-89281000D01*
G36*
X176911000Y-89281000D02*
G01*
X176149000Y-88392000D01*
X175514000Y-87757000D01*
X174752000Y-87122000D01*
X173863000Y-86487000D01*
X173101000Y-85979000D01*
X172212000Y-85598000D01*
X171450000Y-85344000D01*
X171450000Y-84328000D01*
X176911000Y-84328000D01*
X176911000Y-89281000D01*
G37*
X176911000Y-89281000D02*
X176149000Y-88392000D01*
X175514000Y-87757000D01*
X174752000Y-87122000D01*
X173863000Y-86487000D01*
X173101000Y-85979000D01*
X172212000Y-85598000D01*
X171450000Y-85344000D01*
X171450000Y-84328000D01*
X176911000Y-84328000D01*
X176911000Y-89281000D01*
X181102000Y-93599000D02*
X181229000Y-94488000D01*
X181229000Y-94488000D02*
X181356000Y-95504000D01*
X181356000Y-95504000D02*
X181393036Y-96165143D01*
X181393036Y-96165143D02*
X181395215Y-96764263D01*
X181395215Y-96764263D02*
X181373428Y-97339419D01*
X181373428Y-97339419D02*
X181279748Y-98315441D01*
X181279748Y-98315441D02*
X181070165Y-99481767D01*
X181070165Y-99481767D02*
X180851322Y-100334805D01*
X180851322Y-100334805D02*
X177800000Y-100330000D01*
X177800000Y-100330000D02*
X177800000Y-92710000D01*
X177800000Y-92710000D02*
X180848000Y-92710000D01*
X180848000Y-92710000D02*
X181102000Y-93599000D01*
G36*
X181102000Y-93599000D02*
G01*
X181229000Y-94488000D01*
X181356000Y-95504000D01*
X181393036Y-96165143D01*
X181395215Y-96764263D01*
X181373428Y-97339419D01*
X181279748Y-98315441D01*
X181070165Y-99481767D01*
X180851322Y-100334805D01*
X177800000Y-100330000D01*
X177800000Y-92710000D01*
X180848000Y-92710000D01*
X181102000Y-93599000D01*
G37*
X181102000Y-93599000D02*
X181229000Y-94488000D01*
X181356000Y-95504000D01*
X181393036Y-96165143D01*
X181395215Y-96764263D01*
X181373428Y-97339419D01*
X181279748Y-98315441D01*
X181070165Y-99481767D01*
X180851322Y-100334805D01*
X177800000Y-100330000D01*
X177800000Y-92710000D01*
X180848000Y-92710000D01*
X181102000Y-93599000D01*
X160758070Y-106030296D02*
X161389810Y-106451456D01*
X161389810Y-106451456D02*
X162232130Y-106918394D01*
X162232130Y-106918394D02*
X163294185Y-107421955D01*
X163294185Y-107421955D02*
X164200594Y-107788181D01*
X164200594Y-107788181D02*
X164211000Y-108712000D01*
X164211000Y-108712000D02*
X160020000Y-108712000D01*
X160020000Y-108712000D02*
X160020000Y-105410000D01*
X160020000Y-105410000D02*
X160758070Y-106030296D01*
G36*
X160758070Y-106030296D02*
G01*
X161389810Y-106451456D01*
X162232130Y-106918394D01*
X163294185Y-107421955D01*
X164200594Y-107788181D01*
X164211000Y-108712000D01*
X160020000Y-108712000D01*
X160020000Y-105410000D01*
X160758070Y-106030296D01*
G37*
X160758070Y-106030296D02*
X161389810Y-106451456D01*
X162232130Y-106918394D01*
X163294185Y-107421955D01*
X164200594Y-107788181D01*
X164211000Y-108712000D01*
X160020000Y-108712000D01*
X160020000Y-105410000D01*
X160758070Y-106030296D01*
D11*
%TO.P,H2,1,1*%
%TO.N,GND*%
X179277944Y-85932944D03*
X180975000Y-85230000D03*
X183375000Y-87630000D03*
X178575000Y-87630000D03*
X182672056Y-89327056D03*
X179277944Y-89327056D03*
X182672056Y-85932944D03*
D12*
X180975000Y-87630000D03*
D11*
X180975000Y-90030000D03*
%TD*%
D13*
%TO.P,J2,1,Pin_1*%
%TO.N,Net-(J2-Pad1)*%
X146050000Y-106618000D03*
%TD*%
%TO.P,J1,1,Pin_1*%
%TO.N,GND*%
X156210000Y-106618000D03*
D14*
%TO.P,J1,2,Pin_2*%
%TO.N,+5V*%
X153670000Y-106618000D03*
%TO.P,J1,3,Pin_3*%
%TO.N,signal*%
X151130000Y-106618000D03*
%TO.P,J1,4,Pin_4*%
%TO.N,TX*%
X148590000Y-106618000D03*
%TD*%
D11*
%TO.P,H1,1,1*%
%TO.N,GND*%
X124032944Y-103712944D03*
X127427056Y-103712944D03*
D12*
X125730000Y-105410000D03*
D11*
X125730000Y-107810000D03*
X123330000Y-105410000D03*
X124032944Y-107107056D03*
X125730000Y-103010000D03*
X127427056Y-107107056D03*
X128130000Y-105410000D03*
%TD*%
%TO.P,H4,1,1*%
%TO.N,GND*%
X124032944Y-85932944D03*
X124032944Y-89327056D03*
D12*
X125730000Y-87630000D03*
D11*
X125730000Y-90030000D03*
X125730000Y-85230000D03*
X127427056Y-85932944D03*
X123330000Y-87630000D03*
X127427056Y-89327056D03*
X128130000Y-87630000D03*
%TD*%
%TO.P,H3,1,1*%
%TO.N,GND*%
X180975000Y-103010000D03*
D12*
X180975000Y-105410000D03*
D11*
X183375000Y-105410000D03*
X182672056Y-103712944D03*
X179277944Y-103712944D03*
X179277944Y-107107056D03*
X178575000Y-105410000D03*
X182672056Y-107107056D03*
X180975000Y-107810000D03*
%TD*%
D15*
%TO.P,J4,1,Pin_1*%
%TO.N,+5V*%
X166640000Y-87520000D03*
%TO.P,J4,2,Pin_2*%
%TO.N,Net-(D5-Pad2)*%
X168640000Y-105520000D03*
%TD*%
D16*
%TO.P,J3,1,Pin_1*%
%TO.N,Net-(D4-Pad2)*%
X127508000Y-95250000D03*
D13*
%TO.P,J3,2,Pin_2*%
%TO.N,+5V*%
X127508000Y-97790000D03*
D17*
%TO.P,J3,3*%
%TO.N,N/C*%
X137160000Y-89020000D03*
%TO.P,J3,4*%
X137160000Y-104020000D03*
%TD*%
D18*
%TO.N,+5V*%
X153670000Y-99760000D03*
D19*
X145415000Y-96585000D03*
%TD*%
D20*
%TO.N,+5V*%
X156320000Y-87520000D02*
X153655000Y-90185000D01*
X153640000Y-96585000D02*
X153655000Y-96570000D01*
X166640000Y-87520000D02*
X156320000Y-87520000D01*
X153655000Y-106680000D02*
X153655000Y-99680000D01*
X153655000Y-90185000D02*
X153655000Y-99680000D01*
X145415000Y-96585000D02*
X153640000Y-96585000D01*
%TD*%
%TA.AperFunction,Conductor*%
%TO.N,GND*%
G36*
X170809121Y-84348002D02*
G01*
X170855614Y-84401658D01*
X170867000Y-84454000D01*
X170867000Y-85276303D01*
X170864712Y-85300202D01*
X170863057Y-85308770D01*
X170863878Y-85320320D01*
X170866683Y-85359793D01*
X170867000Y-85368725D01*
X170867000Y-85381978D01*
X170869244Y-85399020D01*
X170870005Y-85406534D01*
X170873938Y-85461882D01*
X170876635Y-85469685D01*
X170878291Y-85477780D01*
X170878207Y-85477797D01*
X170878737Y-85480041D01*
X170878820Y-85480019D01*
X170880958Y-85487998D01*
X170882036Y-85496186D01*
X170903279Y-85547469D01*
X170905949Y-85554506D01*
X170924077Y-85606962D01*
X170928702Y-85613802D01*
X170932396Y-85621191D01*
X170932320Y-85621229D01*
X170933414Y-85623263D01*
X170933488Y-85623220D01*
X170937617Y-85630371D01*
X170940777Y-85638000D01*
X170945804Y-85644551D01*
X170945806Y-85644555D01*
X170974571Y-85682043D01*
X170978983Y-85688164D01*
X171010057Y-85734120D01*
X171016298Y-85739533D01*
X171021777Y-85745711D01*
X171021712Y-85745768D01*
X171023295Y-85747449D01*
X171023356Y-85747388D01*
X171029192Y-85753224D01*
X171034221Y-85759779D01*
X171040771Y-85764805D01*
X171040777Y-85764811D01*
X171078253Y-85793567D01*
X171084104Y-85798342D01*
X171119775Y-85829279D01*
X171119778Y-85829281D01*
X171126018Y-85834693D01*
X171133445Y-85838305D01*
X171140336Y-85842855D01*
X171140289Y-85842927D01*
X171142255Y-85844142D01*
X171142298Y-85844067D01*
X171149446Y-85848194D01*
X171156000Y-85853223D01*
X171207282Y-85874465D01*
X171214134Y-85877547D01*
X171229610Y-85885073D01*
X171242196Y-85889268D01*
X171250538Y-85892382D01*
X171297814Y-85911964D01*
X171306001Y-85913042D01*
X171306002Y-85913042D01*
X171306163Y-85913063D01*
X171306470Y-85913104D01*
X171329864Y-85918491D01*
X171641514Y-86022374D01*
X171999672Y-86141760D01*
X172009448Y-86145477D01*
X172271087Y-86257608D01*
X172811515Y-86489221D01*
X172831773Y-86500195D01*
X173530111Y-86965754D01*
X173533455Y-86968062D01*
X174335436Y-87540905D01*
X174391640Y-87581051D01*
X174399062Y-87586781D01*
X174621697Y-87772310D01*
X175116062Y-88184281D01*
X175124494Y-88191981D01*
X175717505Y-88784991D01*
X175724076Y-88792087D01*
X176456218Y-89646253D01*
X176460515Y-89651549D01*
X176495221Y-89696779D01*
X176527183Y-89721304D01*
X176534512Y-89726928D01*
X176541950Y-89733103D01*
X176572666Y-89760661D01*
X176578811Y-89766174D01*
X176588595Y-89771137D01*
X176608293Y-89783542D01*
X176610448Y-89785196D01*
X176610451Y-89785198D01*
X176617000Y-89790223D01*
X176624631Y-89793384D01*
X176624633Y-89793385D01*
X176662763Y-89809180D01*
X176671546Y-89813219D01*
X176715702Y-89835619D01*
X176726442Y-89837882D01*
X176748674Y-89844764D01*
X176758814Y-89848964D01*
X176767001Y-89850042D01*
X176767002Y-89850042D01*
X176807915Y-89855428D01*
X176817448Y-89857058D01*
X176865902Y-89867268D01*
X176876860Y-89866674D01*
X176900121Y-89867568D01*
X176911000Y-89869000D01*
X176919188Y-89867922D01*
X176960107Y-89862535D01*
X176969735Y-89861642D01*
X176978931Y-89861144D01*
X177019176Y-89858963D01*
X177029605Y-89855554D01*
X177052308Y-89850396D01*
X177054999Y-89850042D01*
X177055001Y-89850042D01*
X177063186Y-89848964D01*
X177070816Y-89845803D01*
X177070818Y-89845803D01*
X177108943Y-89830011D01*
X177117990Y-89826664D01*
X177165078Y-89811272D01*
X177174274Y-89805277D01*
X177194863Y-89794422D01*
X177197365Y-89793386D01*
X177197367Y-89793385D01*
X177205000Y-89790223D01*
X177211554Y-89785194D01*
X177211559Y-89785191D01*
X177244296Y-89760071D01*
X177252189Y-89754482D01*
X177286751Y-89731951D01*
X177286754Y-89731948D01*
X177293665Y-89727443D01*
X177300995Y-89719274D01*
X177318068Y-89703463D01*
X177326779Y-89696779D01*
X177356930Y-89657486D01*
X177363103Y-89650050D01*
X177390661Y-89619334D01*
X177390662Y-89619333D01*
X177396174Y-89613189D01*
X177401137Y-89603405D01*
X177413542Y-89583707D01*
X177415196Y-89581552D01*
X177415198Y-89581549D01*
X177420223Y-89575000D01*
X177434384Y-89540814D01*
X177439180Y-89529237D01*
X177443219Y-89520454D01*
X177445303Y-89516345D01*
X177465619Y-89476298D01*
X177467882Y-89465558D01*
X177474765Y-89443322D01*
X177475804Y-89440814D01*
X177478964Y-89433186D01*
X177480042Y-89424998D01*
X177480582Y-89422983D01*
X177517534Y-89362361D01*
X177581396Y-89331340D01*
X177651890Y-89339770D01*
X177706636Y-89384974D01*
X177714555Y-89398393D01*
X177757949Y-89483559D01*
X177761246Y-89489269D01*
X177969318Y-89809672D01*
X177973206Y-89815023D01*
X178074152Y-89939680D01*
X178086410Y-89948148D01*
X178097500Y-89941815D01*
X180396503Y-87642812D01*
X180404117Y-87628868D01*
X180403986Y-87627035D01*
X180399735Y-87620420D01*
X178098366Y-85319051D01*
X178085290Y-85311911D01*
X178074921Y-85319370D01*
X177973206Y-85444977D01*
X177969318Y-85450328D01*
X177761246Y-85770731D01*
X177757949Y-85776441D01*
X177732267Y-85826846D01*
X177683519Y-85878461D01*
X177614604Y-85895527D01*
X177547402Y-85872626D01*
X177503250Y-85817029D01*
X177494000Y-85769643D01*
X177494000Y-84454000D01*
X177514002Y-84385879D01*
X177567658Y-84339386D01*
X177620000Y-84328000D01*
X178826249Y-84328000D01*
X178894370Y-84348002D01*
X178940863Y-84401658D01*
X178950967Y-84471932D01*
X178921473Y-84536512D01*
X178894873Y-84559673D01*
X178795328Y-84624318D01*
X178789977Y-84628206D01*
X178665320Y-84729152D01*
X178656852Y-84741410D01*
X178663185Y-84752500D01*
X181451590Y-87540905D01*
X181485616Y-87603217D01*
X181480551Y-87674032D01*
X181451590Y-87719095D01*
X178664051Y-90506634D01*
X178656911Y-90519710D01*
X178664370Y-90530079D01*
X178789977Y-90631794D01*
X178795328Y-90635682D01*
X179115731Y-90843754D01*
X179121441Y-90847051D01*
X179461847Y-91020496D01*
X179467872Y-91023178D01*
X179824530Y-91160087D01*
X179830812Y-91162128D01*
X180199835Y-91261007D01*
X180206285Y-91262378D01*
X180361257Y-91286924D01*
X180425410Y-91317337D01*
X180462937Y-91377605D01*
X180467192Y-91420809D01*
X180463833Y-91465533D01*
X180463161Y-91474485D01*
X180465028Y-91483265D01*
X180465405Y-91488861D01*
X180466099Y-91494430D01*
X180465934Y-91503408D01*
X180468296Y-91512070D01*
X180468296Y-91512073D01*
X180480338Y-91556243D01*
X180482020Y-91563179D01*
X180493412Y-91616756D01*
X180496114Y-91621774D01*
X180496267Y-91622375D01*
X180495608Y-91622626D01*
X180497871Y-91628674D01*
X180497871Y-91628676D01*
X180619915Y-91954922D01*
X180621812Y-91960369D01*
X180622439Y-91962314D01*
X180624319Y-92033284D01*
X180587531Y-92094006D01*
X180523754Y-92125199D01*
X180502525Y-92127000D01*
X177846237Y-92127000D01*
X177829790Y-92125922D01*
X177808188Y-92123078D01*
X177800000Y-92122000D01*
X177762022Y-92127000D01*
X177647814Y-92142036D01*
X177506000Y-92200777D01*
X177384221Y-92294221D01*
X177290777Y-92416000D01*
X177232036Y-92557814D01*
X177212000Y-92710000D01*
X177213078Y-92718188D01*
X177215922Y-92739790D01*
X177217000Y-92756237D01*
X177217000Y-100283201D01*
X177215896Y-100299844D01*
X177212001Y-100329074D01*
X177216967Y-100367258D01*
X177217000Y-100367599D01*
X177217000Y-100367978D01*
X177221969Y-100405718D01*
X177231797Y-100481291D01*
X177231975Y-100481723D01*
X177232036Y-100482186D01*
X177235146Y-100489695D01*
X177235147Y-100489698D01*
X177248220Y-100521259D01*
X177261270Y-100552765D01*
X177290315Y-100623198D01*
X177290598Y-100623568D01*
X177290777Y-100624000D01*
X177337246Y-100684559D01*
X177383567Y-100745124D01*
X177383937Y-100745409D01*
X177384221Y-100745779D01*
X177444737Y-100792214D01*
X177505198Y-100838759D01*
X177505629Y-100838938D01*
X177506000Y-100839223D01*
X177552460Y-100858467D01*
X177576280Y-100868334D01*
X177576464Y-100868410D01*
X177646920Y-100897724D01*
X177647384Y-100897786D01*
X177647814Y-100897964D01*
X177723393Y-100907914D01*
X177723590Y-100907940D01*
X177760035Y-100912797D01*
X177760048Y-100912798D01*
X177761104Y-100912939D01*
X177761479Y-100912940D01*
X177761814Y-100912973D01*
X177800000Y-100918000D01*
X177829242Y-100914150D01*
X177845883Y-100913072D01*
X178830928Y-100914624D01*
X180501231Y-100917255D01*
X180569321Y-100937364D01*
X180615729Y-100991093D01*
X180625722Y-101061383D01*
X180619047Y-101087398D01*
X180495608Y-101417374D01*
X180495024Y-101417156D01*
X180494958Y-101417334D01*
X180496408Y-101417680D01*
X180485173Y-101464823D01*
X180483326Y-101471708D01*
X180467635Y-101524174D01*
X180467580Y-101533153D01*
X180466751Y-101538702D01*
X180466237Y-101544288D01*
X180464156Y-101553020D01*
X180464609Y-101561980D01*
X180464609Y-101561983D01*
X180466922Y-101607699D01*
X180467081Y-101614830D01*
X180467007Y-101627051D01*
X180466992Y-101629480D01*
X180446576Y-101697478D01*
X180392639Y-101743644D01*
X180360705Y-101753164D01*
X180206285Y-101777622D01*
X180199835Y-101778993D01*
X179830812Y-101877872D01*
X179824530Y-101879913D01*
X179467872Y-102016822D01*
X179461847Y-102019504D01*
X179121441Y-102192949D01*
X179115731Y-102196246D01*
X178795328Y-102404318D01*
X178789977Y-102408206D01*
X178665320Y-102509152D01*
X178656852Y-102521410D01*
X178663185Y-102532500D01*
X181451590Y-105320905D01*
X181485616Y-105383217D01*
X181480551Y-105454032D01*
X181451590Y-105499095D01*
X178664051Y-108286634D01*
X178656911Y-108299710D01*
X178664370Y-108310079D01*
X178789977Y-108411794D01*
X178795328Y-108415682D01*
X178894873Y-108480327D01*
X178941110Y-108534204D01*
X178950880Y-108604525D01*
X178921080Y-108668965D01*
X178861172Y-108707064D01*
X178826249Y-108712000D01*
X164918626Y-108712000D01*
X164850505Y-108691998D01*
X164804012Y-108638342D01*
X164792634Y-108587419D01*
X164789381Y-108298590D01*
X164783430Y-107770336D01*
X164782872Y-107706354D01*
X164778031Y-107688895D01*
X164774538Y-107676300D01*
X164771226Y-107660478D01*
X164770555Y-107655785D01*
X164770232Y-107653532D01*
X164767978Y-107637779D01*
X164767977Y-107637776D01*
X164766808Y-107629607D01*
X164763563Y-107622016D01*
X164763562Y-107622012D01*
X164755263Y-107602596D01*
X164749705Y-107586744D01*
X164744063Y-107566398D01*
X164744059Y-107566389D01*
X164741854Y-107558437D01*
X164726022Y-107531559D01*
X164718732Y-107517139D01*
X164709721Y-107496061D01*
X164709719Y-107496058D01*
X164706473Y-107488464D01*
X164695249Y-107474172D01*
X164689941Y-107467414D01*
X164688325Y-107465356D01*
X164678852Y-107451480D01*
X164668142Y-107433297D01*
X164668139Y-107433294D01*
X164663948Y-107426178D01*
X164641711Y-107404325D01*
X164630935Y-107392282D01*
X164616765Y-107374239D01*
X164616761Y-107374236D01*
X164611664Y-107367745D01*
X164598390Y-107357795D01*
X164588154Y-107350122D01*
X164575412Y-107339171D01*
X164560359Y-107324378D01*
X164560358Y-107324377D01*
X164554467Y-107318588D01*
X164527323Y-107303230D01*
X164513802Y-107294390D01*
X164495449Y-107280633D01*
X164488840Y-107275679D01*
X164429245Y-107251777D01*
X164219321Y-107166959D01*
X163531897Y-106889211D01*
X163525118Y-106886237D01*
X162502221Y-106401242D01*
X162495113Y-106397591D01*
X161899816Y-106067590D01*
X161697851Y-105955631D01*
X161689054Y-105950273D01*
X161680410Y-105944510D01*
X161114749Y-105567403D01*
X165126996Y-105567403D01*
X165127359Y-105571551D01*
X165127359Y-105571555D01*
X165138748Y-105701731D01*
X165153145Y-105866283D01*
X165154055Y-105870355D01*
X165154056Y-105870360D01*
X165203840Y-106093079D01*
X165218593Y-106159080D01*
X165220037Y-106163003D01*
X165220037Y-106163005D01*
X165225772Y-106178591D01*
X165322190Y-106440648D01*
X165324134Y-106444336D01*
X165324138Y-106444344D01*
X165422270Y-106630467D01*
X165462116Y-106706042D01*
X165635913Y-106950598D01*
X165638757Y-106953647D01*
X165638762Y-106953654D01*
X165711400Y-107031548D01*
X165840528Y-107170020D01*
X165843757Y-107172673D01*
X165843762Y-107172677D01*
X165975190Y-107280633D01*
X166072365Y-107360454D01*
X166075922Y-107362660D01*
X166075927Y-107362663D01*
X166178367Y-107426178D01*
X166327351Y-107518552D01*
X166601007Y-107641538D01*
X166648798Y-107655785D01*
X166884528Y-107726060D01*
X166884536Y-107726062D01*
X166888525Y-107727251D01*
X166892642Y-107727903D01*
X166892646Y-107727904D01*
X167181385Y-107773635D01*
X167181390Y-107773635D01*
X167184853Y-107774184D01*
X167235677Y-107776492D01*
X167278476Y-107778436D01*
X167278495Y-107778436D01*
X167279895Y-107778500D01*
X169965277Y-107778500D01*
X170189362Y-107763616D01*
X170483465Y-107704315D01*
X170767142Y-107606637D01*
X170770875Y-107604768D01*
X170770879Y-107604766D01*
X171031669Y-107474172D01*
X171031671Y-107474171D01*
X171035407Y-107472300D01*
X171283550Y-107303662D01*
X171341459Y-107251886D01*
X171504092Y-107106475D01*
X171504093Y-107106474D01*
X171507209Y-107103688D01*
X171702455Y-106875890D01*
X171786583Y-106746345D01*
X171863580Y-106627780D01*
X171863583Y-106627775D01*
X171865859Y-106624270D01*
X171899137Y-106554188D01*
X171974580Y-106395305D01*
X171994549Y-106353250D01*
X172086264Y-106067590D01*
X172139394Y-105772310D01*
X172149096Y-105558662D01*
X172152815Y-105476767D01*
X172152815Y-105476762D01*
X172153004Y-105472597D01*
X172152543Y-105467321D01*
X172147239Y-105406699D01*
X177262173Y-105406699D01*
X177262173Y-105413301D01*
X177282168Y-105794824D01*
X177282854Y-105801362D01*
X177342622Y-106178715D01*
X177343993Y-106185165D01*
X177442872Y-106554188D01*
X177444913Y-106560470D01*
X177581822Y-106917128D01*
X177584504Y-106923153D01*
X177757949Y-107263559D01*
X177761246Y-107269269D01*
X177969318Y-107589672D01*
X177973206Y-107595023D01*
X178074152Y-107719680D01*
X178086410Y-107728148D01*
X178097500Y-107721815D01*
X180396503Y-105422812D01*
X180404117Y-105408868D01*
X180403986Y-105407035D01*
X180399735Y-105400420D01*
X178098366Y-103099051D01*
X178085290Y-103091911D01*
X178074921Y-103099370D01*
X177973206Y-103224977D01*
X177969318Y-103230328D01*
X177761246Y-103550731D01*
X177757949Y-103556441D01*
X177584504Y-103896847D01*
X177581822Y-103902872D01*
X177444913Y-104259530D01*
X177442872Y-104265812D01*
X177343993Y-104634835D01*
X177342622Y-104641285D01*
X177282854Y-105018638D01*
X177282168Y-105025176D01*
X177262173Y-105406699D01*
X172147239Y-105406699D01*
X172127219Y-105177879D01*
X172126855Y-105173717D01*
X172124032Y-105161085D01*
X172062319Y-104884999D01*
X172062318Y-104884996D01*
X172061407Y-104880920D01*
X172059154Y-104874795D01*
X172029689Y-104794714D01*
X171957810Y-104599352D01*
X171955866Y-104595664D01*
X171955862Y-104595656D01*
X171819831Y-104337651D01*
X171817884Y-104333958D01*
X171644087Y-104089402D01*
X171641243Y-104086353D01*
X171641238Y-104086346D01*
X171470144Y-103902872D01*
X171439472Y-103869980D01*
X171436243Y-103867327D01*
X171436238Y-103867323D01*
X171210872Y-103682205D01*
X171207635Y-103679546D01*
X171204078Y-103677340D01*
X171204073Y-103677337D01*
X171027246Y-103567700D01*
X170952649Y-103521448D01*
X170678993Y-103398462D01*
X170584807Y-103370384D01*
X170395472Y-103313940D01*
X170395464Y-103313938D01*
X170391475Y-103312749D01*
X170387358Y-103312097D01*
X170387354Y-103312096D01*
X170098615Y-103266365D01*
X170098610Y-103266365D01*
X170095147Y-103265816D01*
X170044323Y-103263508D01*
X170001524Y-103261564D01*
X170001505Y-103261564D01*
X170000105Y-103261500D01*
X167314723Y-103261500D01*
X167090638Y-103276384D01*
X166796535Y-103335685D01*
X166512858Y-103433363D01*
X166509125Y-103435232D01*
X166509121Y-103435234D01*
X166248331Y-103565828D01*
X166244593Y-103567700D01*
X165996450Y-103736338D01*
X165772791Y-103936312D01*
X165577545Y-104164110D01*
X165575271Y-104167612D01*
X165469456Y-104330553D01*
X165414141Y-104415730D01*
X165285451Y-104686750D01*
X165193736Y-104972410D01*
X165140606Y-105267690D01*
X165134701Y-105397728D01*
X165127189Y-105563160D01*
X165126996Y-105567403D01*
X161114749Y-105567403D01*
X161114207Y-105567042D01*
X161103032Y-105558662D01*
X160453340Y-105012640D01*
X160445314Y-105005279D01*
X160440804Y-105000769D01*
X160435779Y-104994221D01*
X160387936Y-104957509D01*
X160383577Y-104954009D01*
X160369170Y-104941901D01*
X160369167Y-104941899D01*
X160366020Y-104939254D01*
X160359469Y-104935074D01*
X160350554Y-104928825D01*
X160320556Y-104905807D01*
X160320553Y-104905805D01*
X160314000Y-104900777D01*
X160306373Y-104897618D01*
X160306368Y-104897615D01*
X160300655Y-104895249D01*
X160281090Y-104885055D01*
X160268915Y-104877285D01*
X160224987Y-104863397D01*
X160214751Y-104859667D01*
X160179813Y-104845195D01*
X160179812Y-104845195D01*
X160172186Y-104842036D01*
X160164003Y-104840959D01*
X160164001Y-104840958D01*
X160157863Y-104840150D01*
X160136333Y-104835368D01*
X160122557Y-104831013D01*
X160076523Y-104828967D01*
X160065672Y-104828013D01*
X160028188Y-104823078D01*
X160020000Y-104822000D01*
X160005678Y-104823885D01*
X159983649Y-104824839D01*
X159969209Y-104824197D01*
X159924201Y-104834139D01*
X159913490Y-104836023D01*
X159895174Y-104838434D01*
X159876000Y-104840958D01*
X159875998Y-104840959D01*
X159867814Y-104842036D01*
X159860186Y-104845196D01*
X159860185Y-104845196D01*
X159854475Y-104847561D01*
X159833425Y-104854189D01*
X159827390Y-104855522D01*
X159827389Y-104855523D01*
X159819323Y-104857304D01*
X159778427Y-104878553D01*
X159768569Y-104883145D01*
X159726000Y-104900777D01*
X159719446Y-104905806D01*
X159714538Y-104909572D01*
X159695929Y-104921417D01*
X159690441Y-104924268D01*
X159690438Y-104924270D01*
X159683113Y-104928076D01*
X159677019Y-104933651D01*
X159677018Y-104933652D01*
X159649117Y-104959178D01*
X159640777Y-104966171D01*
X159604221Y-104994221D01*
X159599195Y-105000771D01*
X159599193Y-105000773D01*
X159595425Y-105005684D01*
X159580515Y-105021943D01*
X159569861Y-105031690D01*
X159565419Y-105038651D01*
X159565418Y-105038652D01*
X159545080Y-105070522D01*
X159538827Y-105079445D01*
X159510777Y-105116000D01*
X159507618Y-105123626D01*
X159507616Y-105123630D01*
X159505249Y-105129345D01*
X159495056Y-105148907D01*
X159487285Y-105161085D01*
X159481976Y-105177879D01*
X159473397Y-105205013D01*
X159469667Y-105215249D01*
X159452036Y-105257814D01*
X159450959Y-105265997D01*
X159450958Y-105265999D01*
X159450150Y-105272137D01*
X159445368Y-105293667D01*
X159441013Y-105307443D01*
X159439891Y-105332693D01*
X159438967Y-105353476D01*
X159438013Y-105364328D01*
X159437000Y-105372022D01*
X159437000Y-105394923D01*
X159436876Y-105400518D01*
X159434197Y-105460791D01*
X159435979Y-105468859D01*
X159436529Y-105475201D01*
X159437000Y-105486087D01*
X159437000Y-108586000D01*
X159416998Y-108654121D01*
X159363342Y-108700614D01*
X159311000Y-108712000D01*
X127878751Y-108712000D01*
X127810630Y-108691998D01*
X127764137Y-108638342D01*
X127754033Y-108568068D01*
X127783527Y-108503488D01*
X127810127Y-108480327D01*
X127909672Y-108415682D01*
X127915023Y-108411794D01*
X128039680Y-108310848D01*
X128048148Y-108298590D01*
X128041815Y-108287500D01*
X125253410Y-105499095D01*
X125219384Y-105436783D01*
X125221219Y-105411132D01*
X126300883Y-105411132D01*
X126301014Y-105412965D01*
X126305265Y-105419580D01*
X128606634Y-107720949D01*
X128619710Y-107728089D01*
X128630079Y-107720630D01*
X128731794Y-107595023D01*
X128735682Y-107589672D01*
X128943754Y-107269269D01*
X128947051Y-107263559D01*
X129120496Y-106923153D01*
X129123178Y-106917128D01*
X129260087Y-106560470D01*
X129262128Y-106554188D01*
X129361007Y-106185165D01*
X129362378Y-106178715D01*
X129422146Y-105801362D01*
X129422832Y-105794824D01*
X129442827Y-105413301D01*
X129442827Y-105406699D01*
X129422832Y-105025176D01*
X129422146Y-105018638D01*
X129362378Y-104641285D01*
X129361007Y-104634835D01*
X129262128Y-104265812D01*
X129260087Y-104259530D01*
X129123178Y-103902872D01*
X129120496Y-103896847D01*
X128947051Y-103556441D01*
X128943754Y-103550731D01*
X128735682Y-103230328D01*
X128731794Y-103224977D01*
X128630848Y-103100320D01*
X128618590Y-103091852D01*
X128607500Y-103098185D01*
X126308497Y-105397188D01*
X126300883Y-105411132D01*
X125221219Y-105411132D01*
X125224449Y-105365968D01*
X125253410Y-105320905D01*
X128040949Y-102533366D01*
X128048089Y-102520290D01*
X128040630Y-102509921D01*
X127915023Y-102408206D01*
X127909672Y-102404318D01*
X127589269Y-102196246D01*
X127583559Y-102192949D01*
X127244126Y-102020000D01*
X130146500Y-102020000D01*
X130146500Y-106020000D01*
X130151727Y-106093079D01*
X130153631Y-106099562D01*
X130187236Y-106214011D01*
X130192904Y-106233316D01*
X130197775Y-106240895D01*
X130267051Y-106348691D01*
X130267053Y-106348694D01*
X130271923Y-106356271D01*
X130278733Y-106362172D01*
X130375569Y-106446082D01*
X130375572Y-106446084D01*
X130382381Y-106451984D01*
X130515330Y-106512700D01*
X130524245Y-106513982D01*
X130524246Y-106513982D01*
X130655552Y-106532861D01*
X130655559Y-106532862D01*
X130660000Y-106533500D01*
X143660000Y-106533500D01*
X143733079Y-106528273D01*
X143811165Y-106505345D01*
X143864670Y-106489635D01*
X143864672Y-106489634D01*
X143873316Y-106487096D01*
X143951690Y-106436728D01*
X143988691Y-106412949D01*
X143988694Y-106412947D01*
X143996271Y-106408077D01*
X144040504Y-106357030D01*
X144086082Y-106304431D01*
X144086084Y-106304428D01*
X144091984Y-106297619D01*
X144146286Y-106178715D01*
X144148958Y-106172864D01*
X144148958Y-106172863D01*
X144152700Y-106164670D01*
X144166085Y-106071576D01*
X144172861Y-106024448D01*
X144172862Y-106024441D01*
X144173500Y-106020000D01*
X144173500Y-102020000D01*
X144168273Y-101946921D01*
X144134830Y-101833023D01*
X144129635Y-101815330D01*
X144129634Y-101815328D01*
X144127096Y-101806684D01*
X144091039Y-101750579D01*
X144052949Y-101691309D01*
X144052947Y-101691306D01*
X144048077Y-101683729D01*
X144025317Y-101664007D01*
X143944431Y-101593918D01*
X143944428Y-101593916D01*
X143937619Y-101588016D01*
X143804670Y-101527300D01*
X143795755Y-101526018D01*
X143795754Y-101526018D01*
X143664448Y-101507139D01*
X143664441Y-101507138D01*
X143660000Y-101506500D01*
X130660000Y-101506500D01*
X130586921Y-101511727D01*
X130521140Y-101531042D01*
X130455330Y-101550365D01*
X130455328Y-101550366D01*
X130446684Y-101552904D01*
X130439105Y-101557775D01*
X130331309Y-101627051D01*
X130331306Y-101627053D01*
X130323729Y-101631923D01*
X130317828Y-101638733D01*
X130233918Y-101735569D01*
X130233916Y-101735572D01*
X130228016Y-101742381D01*
X130224272Y-101750579D01*
X130197376Y-101809474D01*
X130167300Y-101875330D01*
X130166018Y-101884245D01*
X130166018Y-101884246D01*
X130147139Y-102015552D01*
X130147138Y-102015559D01*
X130146500Y-102020000D01*
X127244126Y-102020000D01*
X127243153Y-102019504D01*
X127237128Y-102016822D01*
X126880470Y-101879913D01*
X126874188Y-101877872D01*
X126505165Y-101778993D01*
X126498715Y-101777622D01*
X126343743Y-101753076D01*
X126279590Y-101722663D01*
X126242063Y-101662395D01*
X126237808Y-101619191D01*
X126241167Y-101574467D01*
X126241167Y-101574464D01*
X126241839Y-101565515D01*
X126239972Y-101556735D01*
X126239595Y-101551139D01*
X126238901Y-101545570D01*
X126239066Y-101536592D01*
X126236533Y-101527300D01*
X126224662Y-101483757D01*
X126222980Y-101476821D01*
X126213454Y-101432018D01*
X126213453Y-101432015D01*
X126211588Y-101423244D01*
X126208886Y-101418226D01*
X126208733Y-101417625D01*
X126209392Y-101417374D01*
X126085083Y-101085073D01*
X126083180Y-101079606D01*
X126030907Y-100917527D01*
X125865492Y-100404635D01*
X125863647Y-100398360D01*
X125859881Y-100384200D01*
X125681435Y-99713365D01*
X125679918Y-99707002D01*
X125636356Y-99500582D01*
X125562973Y-99152861D01*
X125533552Y-99013450D01*
X125532367Y-99007007D01*
X125422248Y-98306815D01*
X125421399Y-98300320D01*
X125368395Y-97792477D01*
X125347820Y-97595339D01*
X125347310Y-97588819D01*
X125337956Y-97409074D01*
X125313543Y-96940000D01*
X126144500Y-96940000D01*
X126144500Y-98640000D01*
X126149727Y-98713079D01*
X126190904Y-98853316D01*
X126195775Y-98860895D01*
X126265051Y-98968691D01*
X126265053Y-98968694D01*
X126269923Y-98976271D01*
X126276733Y-98982172D01*
X126373569Y-99066082D01*
X126373572Y-99066084D01*
X126380381Y-99071984D01*
X126513330Y-99132700D01*
X126522245Y-99133982D01*
X126522246Y-99133982D01*
X126653552Y-99152861D01*
X126653559Y-99152862D01*
X126658000Y-99153500D01*
X128358000Y-99153500D01*
X128431079Y-99148273D01*
X128509165Y-99125345D01*
X128562670Y-99109635D01*
X128562672Y-99109634D01*
X128571316Y-99107096D01*
X128659457Y-99050451D01*
X128686691Y-99032949D01*
X128686694Y-99032947D01*
X128694271Y-99028077D01*
X128705619Y-99014981D01*
X128784082Y-98924431D01*
X128784084Y-98924428D01*
X128789984Y-98917619D01*
X128850700Y-98784670D01*
X128864137Y-98691214D01*
X128870861Y-98644448D01*
X128870862Y-98644441D01*
X128871500Y-98640000D01*
X128871500Y-96940000D01*
X128866273Y-96866921D01*
X128825096Y-96726684D01*
X128779393Y-96655569D01*
X128750949Y-96611309D01*
X128750947Y-96611306D01*
X128746077Y-96603729D01*
X128694798Y-96559295D01*
X128649450Y-96520000D01*
X133647000Y-96520000D01*
X133647173Y-96523301D01*
X133665746Y-96877682D01*
X133666245Y-96887208D01*
X133666760Y-96890459D01*
X133722339Y-97241376D01*
X133723767Y-97250394D01*
X133818938Y-97605577D01*
X133863989Y-97722939D01*
X133909076Y-97840392D01*
X133950715Y-97948866D01*
X133952207Y-97951794D01*
X133952210Y-97951801D01*
X134093611Y-98229314D01*
X134117653Y-98276500D01*
X134119449Y-98279266D01*
X134119451Y-98279269D01*
X134221608Y-98436577D01*
X134317923Y-98584890D01*
X134549332Y-98870656D01*
X134809344Y-99130668D01*
X135095110Y-99362077D01*
X135403500Y-99562347D01*
X135406434Y-99563842D01*
X135406441Y-99563846D01*
X135728199Y-99727790D01*
X135728206Y-99727793D01*
X135731134Y-99729285D01*
X135734206Y-99730464D01*
X135734210Y-99730466D01*
X135858715Y-99778259D01*
X136074423Y-99861062D01*
X136429606Y-99956233D01*
X136432856Y-99956748D01*
X136432862Y-99956749D01*
X136701591Y-99999310D01*
X136792792Y-100013755D01*
X136796077Y-100013927D01*
X136796085Y-100013928D01*
X137156699Y-100032827D01*
X137160000Y-100033000D01*
X137163301Y-100032827D01*
X137523915Y-100013928D01*
X137523923Y-100013927D01*
X137527208Y-100013755D01*
X137618409Y-99999310D01*
X137887138Y-99956749D01*
X137887144Y-99956748D01*
X137890394Y-99956233D01*
X138245577Y-99861062D01*
X138461285Y-99778259D01*
X138585790Y-99730466D01*
X138585794Y-99730464D01*
X138588866Y-99729285D01*
X138591794Y-99727793D01*
X138591801Y-99727790D01*
X138913559Y-99563846D01*
X138913566Y-99563842D01*
X138916500Y-99562347D01*
X139224890Y-99362077D01*
X139510656Y-99130668D01*
X139770668Y-98870656D01*
X140002077Y-98584890D01*
X140098392Y-98436577D01*
X140200549Y-98279269D01*
X140200551Y-98279266D01*
X140202347Y-98276500D01*
X140226390Y-98229314D01*
X140367790Y-97951801D01*
X140367793Y-97951794D01*
X140369285Y-97948866D01*
X140410925Y-97840392D01*
X140456011Y-97722939D01*
X140501062Y-97605577D01*
X140596233Y-97250394D01*
X140597662Y-97241376D01*
X140653240Y-96890459D01*
X140653755Y-96887208D01*
X140654255Y-96877682D01*
X140667514Y-96624687D01*
X144152123Y-96624687D01*
X144179111Y-96847696D01*
X144180761Y-96853058D01*
X144180761Y-96853060D01*
X144196541Y-96904354D01*
X144245163Y-97062402D01*
X144247733Y-97067382D01*
X144247735Y-97067386D01*
X144337538Y-97241376D01*
X144348192Y-97262017D01*
X144484941Y-97440233D01*
X144651089Y-97591416D01*
X144668577Y-97602386D01*
X144836627Y-97707804D01*
X144836631Y-97707806D01*
X144841383Y-97710787D01*
X145049808Y-97794573D01*
X145140589Y-97813373D01*
X145265251Y-97839189D01*
X145265255Y-97839189D01*
X145269777Y-97840126D01*
X145274390Y-97840392D01*
X145326467Y-97843395D01*
X145326469Y-97843395D01*
X145328289Y-97843500D01*
X152270500Y-97843500D01*
X152338621Y-97863502D01*
X152385114Y-97917158D01*
X152396500Y-97969500D01*
X152396500Y-105665022D01*
X152376498Y-105733143D01*
X152322842Y-105779636D01*
X152252568Y-105789740D01*
X152187988Y-105760246D01*
X152177312Y-105749828D01*
X152059905Y-105620799D01*
X152055854Y-105617600D01*
X152055850Y-105617596D01*
X151888607Y-105485517D01*
X151884549Y-105482312D01*
X151688930Y-105374324D01*
X151554156Y-105326598D01*
X151483175Y-105301462D01*
X151483171Y-105301461D01*
X151478300Y-105299736D01*
X151473207Y-105298829D01*
X151473204Y-105298828D01*
X151263406Y-105261457D01*
X151263400Y-105261456D01*
X151258317Y-105260551D01*
X151172160Y-105259498D01*
X151040056Y-105257884D01*
X151040054Y-105257884D01*
X151034887Y-105257821D01*
X150814012Y-105291620D01*
X150601622Y-105361040D01*
X150552266Y-105386733D01*
X150477166Y-105425828D01*
X150403423Y-105464216D01*
X150399290Y-105467319D01*
X150399287Y-105467321D01*
X150228872Y-105595272D01*
X150224737Y-105598377D01*
X150199657Y-105624622D01*
X150095952Y-105733143D01*
X150070361Y-105759922D01*
X150067447Y-105764194D01*
X150067446Y-105764195D01*
X149963211Y-105916998D01*
X149908300Y-105962001D01*
X149837775Y-105970172D01*
X149774028Y-105938918D01*
X149753331Y-105914434D01*
X149673097Y-105790411D01*
X149670287Y-105786067D01*
X149664436Y-105779636D01*
X149593547Y-105701731D01*
X149519905Y-105620799D01*
X149515854Y-105617600D01*
X149515850Y-105617596D01*
X149348607Y-105485517D01*
X149344549Y-105482312D01*
X149148930Y-105374324D01*
X149014156Y-105326598D01*
X148943175Y-105301462D01*
X148943171Y-105301461D01*
X148938300Y-105299736D01*
X148933207Y-105298829D01*
X148933204Y-105298828D01*
X148723406Y-105261457D01*
X148723400Y-105261456D01*
X148718317Y-105260551D01*
X148632160Y-105259498D01*
X148500056Y-105257884D01*
X148500054Y-105257884D01*
X148494887Y-105257821D01*
X148274012Y-105291620D01*
X148061622Y-105361040D01*
X148012266Y-105386733D01*
X147937166Y-105425828D01*
X147863423Y-105464216D01*
X147859290Y-105467319D01*
X147859287Y-105467321D01*
X147688872Y-105595272D01*
X147684737Y-105598377D01*
X147681165Y-105602115D01*
X147602153Y-105684796D01*
X147540628Y-105720226D01*
X147469716Y-105716769D01*
X147411930Y-105675523D01*
X147390163Y-105633243D01*
X147369635Y-105563330D01*
X147369634Y-105563328D01*
X147367096Y-105554684D01*
X147320585Y-105482312D01*
X147292949Y-105439309D01*
X147292947Y-105439306D01*
X147288077Y-105431729D01*
X147277786Y-105422812D01*
X147184431Y-105341918D01*
X147184428Y-105341916D01*
X147177619Y-105336016D01*
X147098177Y-105299736D01*
X147052864Y-105279042D01*
X147052863Y-105279042D01*
X147044670Y-105275300D01*
X147035755Y-105274018D01*
X147035754Y-105274018D01*
X146904448Y-105255139D01*
X146904441Y-105255138D01*
X146900000Y-105254500D01*
X145200000Y-105254500D01*
X145126921Y-105259727D01*
X145073884Y-105275300D01*
X144995330Y-105298365D01*
X144995328Y-105298366D01*
X144986684Y-105300904D01*
X144963680Y-105315688D01*
X144871309Y-105375051D01*
X144871306Y-105375053D01*
X144863729Y-105379923D01*
X144857828Y-105386733D01*
X144773918Y-105483569D01*
X144773916Y-105483572D01*
X144768016Y-105490381D01*
X144707300Y-105623330D01*
X144706018Y-105632245D01*
X144706018Y-105632246D01*
X144687139Y-105763552D01*
X144687138Y-105763559D01*
X144686500Y-105768000D01*
X144686500Y-107468000D01*
X144691727Y-107541079D01*
X144711344Y-107607888D01*
X144730304Y-107672460D01*
X144732904Y-107681316D01*
X144746809Y-107702952D01*
X144807051Y-107796691D01*
X144807053Y-107796694D01*
X144811923Y-107804271D01*
X144818733Y-107810172D01*
X144915569Y-107894082D01*
X144915572Y-107894084D01*
X144922381Y-107899984D01*
X144930579Y-107903728D01*
X145035632Y-107951704D01*
X145055330Y-107960700D01*
X145064245Y-107961982D01*
X145064246Y-107961982D01*
X145195552Y-107980861D01*
X145195559Y-107980862D01*
X145200000Y-107981500D01*
X146900000Y-107981500D01*
X146973079Y-107976273D01*
X147062901Y-107949899D01*
X147104670Y-107937635D01*
X147104672Y-107937634D01*
X147113316Y-107935096D01*
X147177788Y-107893662D01*
X147228691Y-107860949D01*
X147228694Y-107860947D01*
X147236271Y-107856077D01*
X147276330Y-107809847D01*
X147326082Y-107752431D01*
X147326084Y-107752428D01*
X147331984Y-107745619D01*
X147340074Y-107727904D01*
X147388958Y-107620864D01*
X147388958Y-107620863D01*
X147392700Y-107612670D01*
X147393566Y-107606646D01*
X147431152Y-107548161D01*
X147495733Y-107518668D01*
X147566006Y-107528772D01*
X147608899Y-107560887D01*
X147636009Y-107592183D01*
X147639984Y-107595483D01*
X147639988Y-107595487D01*
X147693390Y-107639822D01*
X147807929Y-107734914D01*
X147812381Y-107737516D01*
X147812386Y-107737519D01*
X147936161Y-107809847D01*
X148000851Y-107847649D01*
X148209596Y-107927360D01*
X148214662Y-107928391D01*
X148214663Y-107928391D01*
X148256732Y-107936950D01*
X148428556Y-107971908D01*
X148554395Y-107976522D01*
X148646688Y-107979907D01*
X148646692Y-107979907D01*
X148651852Y-107980096D01*
X148656972Y-107979440D01*
X148656974Y-107979440D01*
X148725002Y-107970725D01*
X148873488Y-107951704D01*
X148878437Y-107950219D01*
X148878443Y-107950218D01*
X149082559Y-107888980D01*
X149082558Y-107888980D01*
X149087509Y-107887495D01*
X149288170Y-107789192D01*
X149292375Y-107786192D01*
X149292381Y-107786189D01*
X149446439Y-107676300D01*
X149470082Y-107659436D01*
X149473746Y-107655785D01*
X149624688Y-107505368D01*
X149624692Y-107505363D01*
X149628357Y-107501711D01*
X149654480Y-107465358D01*
X149758748Y-107320254D01*
X149760202Y-107321299D01*
X149806652Y-107278516D01*
X149876587Y-107266286D01*
X149942033Y-107293807D01*
X149969878Y-107325655D01*
X150029710Y-107423291D01*
X150176009Y-107592183D01*
X150179984Y-107595483D01*
X150179988Y-107595487D01*
X150233390Y-107639822D01*
X150347929Y-107734914D01*
X150352381Y-107737516D01*
X150352386Y-107737519D01*
X150476161Y-107809847D01*
X150540851Y-107847649D01*
X150749596Y-107927360D01*
X150754662Y-107928391D01*
X150754663Y-107928391D01*
X150796732Y-107936950D01*
X150968556Y-107971908D01*
X151094395Y-107976522D01*
X151186688Y-107979907D01*
X151186692Y-107979907D01*
X151191852Y-107980096D01*
X151196972Y-107979440D01*
X151196974Y-107979440D01*
X151265002Y-107970725D01*
X151413488Y-107951704D01*
X151418437Y-107950219D01*
X151418443Y-107950218D01*
X151622559Y-107888980D01*
X151622558Y-107888980D01*
X151627509Y-107887495D01*
X151828170Y-107789192D01*
X151832375Y-107786192D01*
X151832381Y-107786189D01*
X151986439Y-107676300D01*
X152010082Y-107659436D01*
X152013746Y-107655785D01*
X152164688Y-107505368D01*
X152164692Y-107505363D01*
X152168357Y-107501711D01*
X152194480Y-107465358D01*
X152298748Y-107320254D01*
X152300202Y-107321299D01*
X152346652Y-107278516D01*
X152416587Y-107266286D01*
X152482033Y-107293807D01*
X152509878Y-107325655D01*
X152569710Y-107423291D01*
X152716009Y-107592183D01*
X152719984Y-107595483D01*
X152719988Y-107595487D01*
X152773390Y-107639822D01*
X152887929Y-107734914D01*
X152892381Y-107737516D01*
X152892386Y-107737519D01*
X153016161Y-107809847D01*
X153080851Y-107847649D01*
X153289596Y-107927360D01*
X153294662Y-107928391D01*
X153294663Y-107928391D01*
X153336732Y-107936950D01*
X153508556Y-107971908D01*
X153634395Y-107976522D01*
X153726688Y-107979907D01*
X153726692Y-107979907D01*
X153731852Y-107980096D01*
X153736972Y-107979440D01*
X153736974Y-107979440D01*
X153805002Y-107970725D01*
X153953488Y-107951704D01*
X153958437Y-107950219D01*
X153958443Y-107950218D01*
X154162559Y-107888980D01*
X154162558Y-107888980D01*
X154167509Y-107887495D01*
X154368170Y-107789192D01*
X154372375Y-107786192D01*
X154372381Y-107786189D01*
X154526439Y-107676300D01*
X154550082Y-107659436D01*
X154568043Y-107641538D01*
X154660603Y-107549299D01*
X154722974Y-107515382D01*
X154793781Y-107520570D01*
X154850542Y-107563216D01*
X154870439Y-107603050D01*
X154890820Y-107672460D01*
X154898233Y-107688692D01*
X154967426Y-107796360D01*
X154979112Y-107809847D01*
X155075840Y-107893662D01*
X155090848Y-107903307D01*
X155207275Y-107956477D01*
X155224388Y-107961502D01*
X155355554Y-107980361D01*
X155364495Y-107981000D01*
X155791885Y-107981000D01*
X155807124Y-107976525D01*
X155808329Y-107975135D01*
X155810000Y-107967452D01*
X155810000Y-107031548D01*
X156610000Y-107031548D01*
X156610000Y-107962885D01*
X156614475Y-107978124D01*
X156615865Y-107979329D01*
X156623548Y-107981000D01*
X157057743Y-107981000D01*
X157062250Y-107980839D01*
X157126269Y-107976260D01*
X157139491Y-107973874D01*
X157264458Y-107937181D01*
X157280692Y-107929767D01*
X157388360Y-107860574D01*
X157401847Y-107848888D01*
X157485662Y-107752160D01*
X157495307Y-107737152D01*
X157548477Y-107620725D01*
X157553502Y-107603612D01*
X157572361Y-107472446D01*
X157573000Y-107463503D01*
X157573000Y-107036115D01*
X157568525Y-107020876D01*
X157567135Y-107019671D01*
X157559452Y-107018000D01*
X156628115Y-107018000D01*
X156612876Y-107022475D01*
X156611671Y-107023865D01*
X156610000Y-107031548D01*
X155810000Y-107031548D01*
X155810000Y-105273115D01*
X155808659Y-105268548D01*
X156610000Y-105268548D01*
X156610000Y-106199885D01*
X156614475Y-106215124D01*
X156615865Y-106216329D01*
X156623548Y-106218000D01*
X157554885Y-106218000D01*
X157570124Y-106213525D01*
X157571329Y-106212135D01*
X157573000Y-106204452D01*
X157573000Y-105770257D01*
X157572839Y-105765750D01*
X157568260Y-105701731D01*
X157565874Y-105688509D01*
X157529181Y-105563542D01*
X157521767Y-105547308D01*
X157452574Y-105439640D01*
X157440888Y-105426153D01*
X157344160Y-105342338D01*
X157329152Y-105332693D01*
X157212725Y-105279523D01*
X157195612Y-105274498D01*
X157064446Y-105255639D01*
X157055505Y-105255000D01*
X156628115Y-105255000D01*
X156612876Y-105259475D01*
X156611671Y-105260865D01*
X156610000Y-105268548D01*
X155808659Y-105268548D01*
X155805525Y-105257876D01*
X155804135Y-105256671D01*
X155796452Y-105255000D01*
X155362257Y-105255000D01*
X155357750Y-105255161D01*
X155293731Y-105259740D01*
X155280509Y-105262126D01*
X155155542Y-105298819D01*
X155139313Y-105306231D01*
X155107620Y-105326598D01*
X155039499Y-105346599D01*
X154971378Y-105326596D01*
X154924886Y-105272940D01*
X154913500Y-105220599D01*
X154913500Y-96682231D01*
X154913838Y-96673007D01*
X154914200Y-96668073D01*
X154915107Y-96662536D01*
X154913516Y-96561274D01*
X154913500Y-96559295D01*
X154913500Y-96463970D01*
X163627391Y-96463970D01*
X163627499Y-96467059D01*
X163639274Y-96804246D01*
X163641074Y-96855799D01*
X163641480Y-96858843D01*
X163641481Y-96858853D01*
X163668641Y-97062402D01*
X163692928Y-97244423D01*
X163693628Y-97247407D01*
X163693629Y-97247413D01*
X163731546Y-97409074D01*
X163782457Y-97626133D01*
X163908807Y-97997284D01*
X164070772Y-98354334D01*
X164266806Y-98693875D01*
X164268589Y-98696366D01*
X164268590Y-98696367D01*
X164380955Y-98853316D01*
X164495038Y-99012666D01*
X164753289Y-99307664D01*
X164755537Y-99309775D01*
X165036840Y-99573936D01*
X165036847Y-99573942D01*
X165039095Y-99576053D01*
X165041545Y-99577940D01*
X165041550Y-99577944D01*
X165347283Y-99813391D01*
X165349726Y-99815272D01*
X165352325Y-99816896D01*
X165352335Y-99816903D01*
X165495744Y-99906514D01*
X165682219Y-100023036D01*
X166033399Y-100197364D01*
X166399915Y-100336590D01*
X166778267Y-100439386D01*
X166781310Y-100439901D01*
X166781316Y-100439902D01*
X167161804Y-100504257D01*
X167161811Y-100504258D01*
X167164845Y-100504771D01*
X167167916Y-100504986D01*
X167167918Y-100504986D01*
X167552892Y-100531906D01*
X167552900Y-100531906D01*
X167555958Y-100532120D01*
X167807843Y-100525084D01*
X167944799Y-100521259D01*
X167944802Y-100521259D01*
X167947873Y-100521173D01*
X167950926Y-100520787D01*
X167950930Y-100520787D01*
X168197024Y-100489698D01*
X168336850Y-100472034D01*
X168339853Y-100471352D01*
X168339857Y-100471351D01*
X168716179Y-100385852D01*
X168716185Y-100385850D01*
X168719175Y-100385171D01*
X168722094Y-100384200D01*
X169088275Y-100262388D01*
X169088281Y-100262386D01*
X169091199Y-100261415D01*
X169449372Y-100101947D01*
X169452041Y-100100431D01*
X169787600Y-99909807D01*
X169787608Y-99909802D01*
X169790273Y-99908288D01*
X170110650Y-99682287D01*
X170231533Y-99577944D01*
X170329515Y-99493368D01*
X170407443Y-99426102D01*
X170409564Y-99423875D01*
X170409570Y-99423869D01*
X170675704Y-99144400D01*
X170677821Y-99142177D01*
X170685226Y-99132700D01*
X170917292Y-98835668D01*
X170917294Y-98835665D01*
X170919202Y-98833223D01*
X170920858Y-98830613D01*
X170920864Y-98830605D01*
X171127629Y-98504796D01*
X171127633Y-98504789D01*
X171129283Y-98502189D01*
X171306058Y-98152234D01*
X171307165Y-98149380D01*
X171307169Y-98149371D01*
X171446724Y-97789576D01*
X171446727Y-97789567D01*
X171447839Y-97786700D01*
X171531200Y-97488136D01*
X171552446Y-97412040D01*
X171552447Y-97412038D01*
X171553274Y-97409074D01*
X171621356Y-97022962D01*
X171644153Y-96726684D01*
X171651285Y-96634002D01*
X171651285Y-96633996D01*
X171651435Y-96632050D01*
X171653000Y-96520000D01*
X171650573Y-96470365D01*
X171634882Y-96149541D01*
X171633848Y-96128400D01*
X171625170Y-96069633D01*
X171577023Y-95743584D01*
X171577022Y-95743580D01*
X171576573Y-95740538D01*
X171481723Y-95360115D01*
X171475084Y-95341469D01*
X171417654Y-95180188D01*
X171350203Y-94990765D01*
X171183269Y-94636011D01*
X171165187Y-94605677D01*
X171040310Y-94396195D01*
X170982513Y-94299240D01*
X170756763Y-93993040D01*
X170751674Y-93986137D01*
X170751672Y-93986134D01*
X170749852Y-93983666D01*
X170747801Y-93981388D01*
X170747796Y-93981382D01*
X170489568Y-93694592D01*
X170487507Y-93692303D01*
X170197982Y-93427930D01*
X169884041Y-93193072D01*
X169835833Y-93163876D01*
X169551308Y-92991561D01*
X169551299Y-92991556D01*
X169548680Y-92989970D01*
X169195100Y-92820563D01*
X169192210Y-92819511D01*
X169192205Y-92819509D01*
X168829575Y-92687523D01*
X168829572Y-92687522D01*
X168826676Y-92686468D01*
X168622177Y-92633962D01*
X168449910Y-92589731D01*
X168449907Y-92589730D01*
X168446926Y-92588965D01*
X168059473Y-92528984D01*
X168056416Y-92528813D01*
X168056415Y-92528813D01*
X168026672Y-92527150D01*
X167668016Y-92507098D01*
X167664938Y-92507227D01*
X167664934Y-92507227D01*
X167410495Y-92517891D01*
X167276291Y-92523516D01*
X167273247Y-92523944D01*
X167273245Y-92523944D01*
X167062105Y-92553618D01*
X166888039Y-92578081D01*
X166506964Y-92670273D01*
X166136704Y-92799211D01*
X166133906Y-92800504D01*
X165783590Y-92962372D01*
X165783580Y-92962377D01*
X165780793Y-92963665D01*
X165442629Y-93162065D01*
X165282642Y-93278302D01*
X165127920Y-93390714D01*
X165127914Y-93390719D01*
X165125439Y-93392517D01*
X164832251Y-93652821D01*
X164830172Y-93655066D01*
X164830165Y-93655073D01*
X164567950Y-93938240D01*
X164565864Y-93940493D01*
X164328820Y-94252787D01*
X164327209Y-94255405D01*
X164327206Y-94255410D01*
X164243223Y-94391922D01*
X164123381Y-94586723D01*
X163951510Y-94939111D01*
X163950439Y-94941992D01*
X163950436Y-94941998D01*
X163909415Y-95052300D01*
X163814846Y-95306590D01*
X163714694Y-95685650D01*
X163652009Y-96072675D01*
X163651816Y-96075748D01*
X163651815Y-96075754D01*
X163630083Y-96421192D01*
X163629789Y-96425862D01*
X163627391Y-96463970D01*
X154913500Y-96463970D01*
X154913500Y-90758478D01*
X154933502Y-90690357D01*
X154950405Y-90669383D01*
X156804383Y-88815405D01*
X156866695Y-88781379D01*
X156893478Y-88778500D01*
X163448575Y-88778500D01*
X163516696Y-88798502D01*
X163551281Y-88831510D01*
X163635913Y-88950598D01*
X163840528Y-89170020D01*
X163843757Y-89172673D01*
X163843762Y-89172677D01*
X163957112Y-89265784D01*
X164072365Y-89360454D01*
X164075922Y-89362660D01*
X164075927Y-89362663D01*
X164201972Y-89440814D01*
X164327351Y-89518552D01*
X164601007Y-89641538D01*
X164677428Y-89664320D01*
X164884528Y-89726060D01*
X164884536Y-89726062D01*
X164888525Y-89727251D01*
X164892642Y-89727903D01*
X164892646Y-89727904D01*
X165181385Y-89773635D01*
X165181390Y-89773635D01*
X165184853Y-89774184D01*
X165234202Y-89776425D01*
X165278476Y-89778436D01*
X165278495Y-89778436D01*
X165279895Y-89778500D01*
X167965277Y-89778500D01*
X168189362Y-89763616D01*
X168483465Y-89704315D01*
X168767142Y-89606637D01*
X168770875Y-89604768D01*
X168770879Y-89604766D01*
X169031669Y-89474172D01*
X169031671Y-89474171D01*
X169035407Y-89472300D01*
X169283550Y-89303662D01*
X169352725Y-89241813D01*
X169504092Y-89106475D01*
X169504093Y-89106474D01*
X169507209Y-89103688D01*
X169702455Y-88875890D01*
X169763831Y-88781379D01*
X169863580Y-88627780D01*
X169863583Y-88627775D01*
X169865859Y-88624270D01*
X169994549Y-88353250D01*
X170086264Y-88067590D01*
X170139394Y-87772310D01*
X170153004Y-87472597D01*
X170126855Y-87173717D01*
X170077667Y-86953660D01*
X170062319Y-86884999D01*
X170062318Y-86884996D01*
X170061407Y-86880920D01*
X170056336Y-86867136D01*
X170013451Y-86750579D01*
X169957810Y-86599352D01*
X169955866Y-86595664D01*
X169955862Y-86595656D01*
X169819831Y-86337651D01*
X169817884Y-86333958D01*
X169644087Y-86089402D01*
X169641243Y-86086353D01*
X169641238Y-86086346D01*
X169458773Y-85890678D01*
X169439472Y-85869980D01*
X169436243Y-85867327D01*
X169436238Y-85867323D01*
X169241096Y-85707032D01*
X169207635Y-85679546D01*
X169204078Y-85677340D01*
X169204073Y-85677337D01*
X169027246Y-85567700D01*
X168952649Y-85521448D01*
X168678993Y-85398462D01*
X168590438Y-85372063D01*
X168395472Y-85313940D01*
X168395464Y-85313938D01*
X168391475Y-85312749D01*
X168387358Y-85312097D01*
X168387354Y-85312096D01*
X168098615Y-85266365D01*
X168098610Y-85266365D01*
X168095147Y-85265816D01*
X168044323Y-85263508D01*
X168001524Y-85261564D01*
X168001505Y-85261564D01*
X168000105Y-85261500D01*
X165314723Y-85261500D01*
X165090638Y-85276384D01*
X164796535Y-85335685D01*
X164512858Y-85433363D01*
X164509125Y-85435232D01*
X164509121Y-85435234D01*
X164286956Y-85546486D01*
X164244593Y-85567700D01*
X163996450Y-85736338D01*
X163993336Y-85739122D01*
X163993335Y-85739123D01*
X163803557Y-85908804D01*
X163772791Y-85936312D01*
X163577545Y-86164110D01*
X163551560Y-86204124D01*
X163497683Y-86250361D01*
X163445887Y-86261500D01*
X156410731Y-86261500D01*
X156394284Y-86260422D01*
X156378480Y-86258341D01*
X156378476Y-86258341D01*
X156372910Y-86257608D01*
X156293351Y-86261360D01*
X156287415Y-86261500D01*
X156263976Y-86261500D01*
X156261192Y-86261749D01*
X156261181Y-86261749D01*
X156237014Y-86263906D01*
X156231750Y-86264265D01*
X156182600Y-86266583D01*
X156148523Y-86268190D01*
X156143056Y-86269442D01*
X156131039Y-86272194D01*
X156114119Y-86274874D01*
X156101839Y-86275970D01*
X156101835Y-86275971D01*
X156096253Y-86276469D01*
X156090842Y-86277949D01*
X156090838Y-86277950D01*
X156015894Y-86298452D01*
X156010777Y-86299738D01*
X155966936Y-86309779D01*
X155929557Y-86318340D01*
X155924399Y-86320540D01*
X155924396Y-86320541D01*
X155913063Y-86325375D01*
X155896883Y-86331010D01*
X155879579Y-86335744D01*
X155874515Y-86338159D01*
X155874516Y-86338159D01*
X155804365Y-86371618D01*
X155799557Y-86373789D01*
X155722932Y-86406473D01*
X155718244Y-86409552D01*
X155718243Y-86409553D01*
X155707946Y-86416317D01*
X155693017Y-86424729D01*
X155676826Y-86432452D01*
X155672267Y-86435728D01*
X155609160Y-86481076D01*
X155604809Y-86484066D01*
X155539044Y-86527265D01*
X155539036Y-86527271D01*
X155535180Y-86529804D01*
X155514393Y-86548324D01*
X155504114Y-86556560D01*
X155494403Y-86563537D01*
X155490502Y-86567563D01*
X155490498Y-86567566D01*
X155423884Y-86636307D01*
X155422495Y-86637717D01*
X152829267Y-89230945D01*
X152816875Y-89241813D01*
X152804216Y-89251526D01*
X152804208Y-89251533D01*
X152799767Y-89254941D01*
X152755434Y-89303662D01*
X152746143Y-89313873D01*
X152742044Y-89318168D01*
X152725491Y-89334721D01*
X152708110Y-89355509D01*
X152704666Y-89359456D01*
X152648584Y-89421089D01*
X152639048Y-89436292D01*
X152628979Y-89450150D01*
X152617478Y-89463904D01*
X152582759Y-89524773D01*
X152576192Y-89536286D01*
X152573481Y-89540814D01*
X152529213Y-89611383D01*
X152522524Y-89628024D01*
X152515067Y-89643449D01*
X152506180Y-89659029D01*
X152504308Y-89664316D01*
X152504306Y-89664320D01*
X152492812Y-89696779D01*
X152479950Y-89733103D01*
X152478367Y-89737572D01*
X152476506Y-89742498D01*
X152445427Y-89819808D01*
X152441788Y-89837378D01*
X152437184Y-89853868D01*
X152431195Y-89870780D01*
X152424600Y-89911056D01*
X152417727Y-89953022D01*
X152416765Y-89958209D01*
X152400811Y-90035249D01*
X152400810Y-90035258D01*
X152399874Y-90039777D01*
X152399608Y-90044388D01*
X152399608Y-90044389D01*
X152398272Y-90067556D01*
X152396825Y-90080660D01*
X152395801Y-90086917D01*
X152394893Y-90092464D01*
X152394981Y-90098077D01*
X152394981Y-90098079D01*
X152396484Y-90193726D01*
X152396500Y-90195705D01*
X152396500Y-95200500D01*
X152376498Y-95268621D01*
X152322842Y-95315114D01*
X152270500Y-95326500D01*
X145358976Y-95326500D01*
X145356189Y-95326749D01*
X145356183Y-95326749D01*
X145286082Y-95333006D01*
X145191253Y-95341469D01*
X144974579Y-95400744D01*
X144969521Y-95403156D01*
X144969517Y-95403158D01*
X144875672Y-95447920D01*
X144771826Y-95497452D01*
X144767265Y-95500729D01*
X144767264Y-95500730D01*
X144628013Y-95600793D01*
X144589403Y-95628537D01*
X144517423Y-95702814D01*
X144465322Y-95756579D01*
X144433076Y-95789854D01*
X144307787Y-95976304D01*
X144305528Y-95981450D01*
X144305527Y-95981452D01*
X144220332Y-96175533D01*
X144217495Y-96181995D01*
X144216185Y-96187450D01*
X144216184Y-96187454D01*
X144195508Y-96273578D01*
X144165054Y-96400424D01*
X144164731Y-96406027D01*
X144153672Y-96597828D01*
X144152123Y-96624687D01*
X140667514Y-96624687D01*
X140672827Y-96523301D01*
X140673000Y-96520000D01*
X140669386Y-96451044D01*
X140653928Y-96156085D01*
X140653927Y-96156077D01*
X140653755Y-96152792D01*
X140622659Y-95956458D01*
X140596749Y-95792862D01*
X140596748Y-95792856D01*
X140596233Y-95789606D01*
X140501062Y-95434423D01*
X140369285Y-95091134D01*
X140367790Y-95088199D01*
X140203846Y-94766441D01*
X140203842Y-94766434D01*
X140202347Y-94763500D01*
X140002077Y-94455110D01*
X139770668Y-94169344D01*
X139510656Y-93909332D01*
X139224890Y-93677923D01*
X138916500Y-93477653D01*
X138913566Y-93476158D01*
X138913559Y-93476154D01*
X138591801Y-93312210D01*
X138591794Y-93312207D01*
X138588866Y-93310715D01*
X138585794Y-93309536D01*
X138585790Y-93309534D01*
X138461285Y-93261741D01*
X138245577Y-93178938D01*
X137890394Y-93083767D01*
X137887144Y-93083252D01*
X137887138Y-93083251D01*
X137618409Y-93040690D01*
X137527208Y-93026245D01*
X137523923Y-93026073D01*
X137523915Y-93026072D01*
X137163301Y-93007173D01*
X137160000Y-93007000D01*
X137156699Y-93007173D01*
X136796085Y-93026072D01*
X136796077Y-93026073D01*
X136792792Y-93026245D01*
X136701591Y-93040690D01*
X136432862Y-93083251D01*
X136432856Y-93083252D01*
X136429606Y-93083767D01*
X136074423Y-93178938D01*
X135858715Y-93261741D01*
X135734210Y-93309534D01*
X135734206Y-93309536D01*
X135731134Y-93310715D01*
X135728206Y-93312207D01*
X135728199Y-93312210D01*
X135406441Y-93476154D01*
X135406434Y-93476158D01*
X135403500Y-93477653D01*
X135095110Y-93677923D01*
X134809344Y-93909332D01*
X134549332Y-94169344D01*
X134317923Y-94455110D01*
X134117653Y-94763500D01*
X134116158Y-94766434D01*
X134116154Y-94766441D01*
X133952210Y-95088199D01*
X133950715Y-95091134D01*
X133818938Y-95434423D01*
X133723767Y-95789606D01*
X133723252Y-95792856D01*
X133723251Y-95792862D01*
X133697341Y-95956458D01*
X133666245Y-96152792D01*
X133666073Y-96156077D01*
X133666072Y-96156085D01*
X133650614Y-96451044D01*
X133647000Y-96520000D01*
X128649450Y-96520000D01*
X128642431Y-96513918D01*
X128642428Y-96513916D01*
X128635619Y-96508016D01*
X128502670Y-96447300D01*
X128495658Y-96446292D01*
X128436752Y-96408433D01*
X128407259Y-96343852D01*
X128417364Y-96273578D01*
X128443037Y-96236672D01*
X128542688Y-96137368D01*
X128542692Y-96137363D01*
X128546357Y-96133711D01*
X128676748Y-95952254D01*
X128775750Y-95751938D01*
X128790776Y-95702482D01*
X128839203Y-95543093D01*
X128839204Y-95543087D01*
X128840707Y-95538141D01*
X128853015Y-95444650D01*
X128869435Y-95319929D01*
X128869435Y-95319923D01*
X128869872Y-95316607D01*
X128871500Y-95250000D01*
X128853191Y-95027305D01*
X128798756Y-94810591D01*
X128709657Y-94605677D01*
X128588287Y-94418067D01*
X128582506Y-94411713D01*
X128474298Y-94292795D01*
X128437905Y-94252799D01*
X128433854Y-94249600D01*
X128433850Y-94249596D01*
X128266607Y-94117517D01*
X128262549Y-94114312D01*
X128066930Y-94006324D01*
X127887945Y-93942942D01*
X127861175Y-93933462D01*
X127861171Y-93933461D01*
X127856300Y-93931736D01*
X127851207Y-93930829D01*
X127851204Y-93930828D01*
X127641406Y-93893457D01*
X127641400Y-93893456D01*
X127636317Y-93892551D01*
X127550160Y-93891498D01*
X127418056Y-93889884D01*
X127418054Y-93889884D01*
X127412887Y-93889821D01*
X127192012Y-93923620D01*
X126979622Y-93993040D01*
X126781423Y-94096216D01*
X126777290Y-94099319D01*
X126777287Y-94099321D01*
X126606872Y-94227272D01*
X126602737Y-94230377D01*
X126448361Y-94391922D01*
X126445447Y-94396194D01*
X126445446Y-94396195D01*
X126325363Y-94572230D01*
X126325360Y-94572235D01*
X126322444Y-94576510D01*
X126320268Y-94581199D01*
X126320264Y-94581205D01*
X126235646Y-94763500D01*
X126228365Y-94779186D01*
X126168651Y-94994506D01*
X126144907Y-95216687D01*
X126145204Y-95221840D01*
X126145204Y-95221843D01*
X126152187Y-95342952D01*
X126157769Y-95439763D01*
X126158906Y-95444809D01*
X126158907Y-95444815D01*
X126189800Y-95581894D01*
X126206893Y-95657742D01*
X126208835Y-95662524D01*
X126208836Y-95662528D01*
X126240513Y-95740538D01*
X126290959Y-95864772D01*
X126407710Y-96055291D01*
X126554009Y-96224183D01*
X126564677Y-96233039D01*
X126604312Y-96291939D01*
X126605812Y-96362919D01*
X126568699Y-96423443D01*
X126519691Y-96450880D01*
X126453330Y-96470365D01*
X126453328Y-96470366D01*
X126444684Y-96472904D01*
X126437105Y-96477775D01*
X126329309Y-96547051D01*
X126329306Y-96547053D01*
X126321729Y-96551923D01*
X126315828Y-96558733D01*
X126231918Y-96655569D01*
X126231916Y-96655572D01*
X126226016Y-96662381D01*
X126165300Y-96795330D01*
X126164018Y-96804245D01*
X126164018Y-96804246D01*
X126145139Y-96935552D01*
X126145138Y-96935559D01*
X126144500Y-96940000D01*
X125313543Y-96940000D01*
X125310470Y-96880948D01*
X125310300Y-96874399D01*
X125310300Y-96165601D01*
X125310470Y-96159052D01*
X125321014Y-95956458D01*
X125347311Y-95451170D01*
X125347821Y-95444650D01*
X125348556Y-95437614D01*
X125414104Y-94809571D01*
X125421399Y-94739680D01*
X125422248Y-94733185D01*
X125532367Y-94032993D01*
X125533552Y-94026550D01*
X125628617Y-93576085D01*
X125679920Y-93332989D01*
X125681437Y-93326626D01*
X125685272Y-93312210D01*
X125863650Y-92641629D01*
X125865495Y-92635355D01*
X125880210Y-92589731D01*
X126083182Y-91960389D01*
X126085085Y-91954922D01*
X126209392Y-91622626D01*
X126209976Y-91622844D01*
X126210042Y-91622666D01*
X126208592Y-91622320D01*
X126219827Y-91575177D01*
X126221676Y-91568286D01*
X126237365Y-91515826D01*
X126237420Y-91506847D01*
X126238249Y-91501298D01*
X126238763Y-91495712D01*
X126240844Y-91486980D01*
X126238078Y-91432301D01*
X126237919Y-91425170D01*
X126237973Y-91416316D01*
X126238008Y-91410519D01*
X126258424Y-91342522D01*
X126312361Y-91296356D01*
X126344295Y-91286836D01*
X126498715Y-91262378D01*
X126505165Y-91261007D01*
X126874188Y-91162128D01*
X126880470Y-91160087D01*
X127237128Y-91023178D01*
X127243153Y-91020496D01*
X127583559Y-90847051D01*
X127589269Y-90843754D01*
X127909672Y-90635682D01*
X127915023Y-90631794D01*
X128039680Y-90530848D01*
X128048148Y-90518590D01*
X128041815Y-90507500D01*
X125253410Y-87719095D01*
X125219384Y-87656783D01*
X125221219Y-87631132D01*
X126300883Y-87631132D01*
X126301014Y-87632965D01*
X126305265Y-87639580D01*
X128606634Y-89940949D01*
X128619710Y-89948089D01*
X128630079Y-89940630D01*
X128731794Y-89815023D01*
X128735682Y-89809672D01*
X128943754Y-89489269D01*
X128947051Y-89483559D01*
X129120496Y-89143153D01*
X129123178Y-89137128D01*
X129260087Y-88780470D01*
X129262128Y-88774188D01*
X129361007Y-88405165D01*
X129362378Y-88398715D01*
X129422146Y-88021362D01*
X129422832Y-88014824D01*
X129442827Y-87633301D01*
X129442827Y-87626699D01*
X129422832Y-87245176D01*
X129422146Y-87238638D01*
X129387516Y-87020000D01*
X130146500Y-87020000D01*
X130146500Y-91020000D01*
X130151727Y-91093079D01*
X130172748Y-91164670D01*
X130188453Y-91218156D01*
X130192904Y-91233316D01*
X130197775Y-91240895D01*
X130267051Y-91348691D01*
X130267053Y-91348694D01*
X130271923Y-91356271D01*
X130278733Y-91362172D01*
X130375569Y-91446082D01*
X130375572Y-91446084D01*
X130382381Y-91451984D01*
X130515330Y-91512700D01*
X130524245Y-91513982D01*
X130524246Y-91513982D01*
X130655552Y-91532861D01*
X130655559Y-91532862D01*
X130660000Y-91533500D01*
X143660000Y-91533500D01*
X143733079Y-91528273D01*
X143824948Y-91501298D01*
X143864670Y-91489635D01*
X143864672Y-91489634D01*
X143873316Y-91487096D01*
X143937135Y-91446082D01*
X143988691Y-91412949D01*
X143988694Y-91412947D01*
X143996271Y-91408077D01*
X144002172Y-91401267D01*
X144086082Y-91304431D01*
X144086084Y-91304428D01*
X144091984Y-91297619D01*
X144096868Y-91286924D01*
X144148958Y-91172864D01*
X144148958Y-91172863D01*
X144152700Y-91164670D01*
X144153982Y-91155754D01*
X144172861Y-91024448D01*
X144172862Y-91024441D01*
X144173500Y-91020000D01*
X144173500Y-87020000D01*
X144168273Y-86946921D01*
X144134252Y-86831054D01*
X144129635Y-86815330D01*
X144129634Y-86815328D01*
X144127096Y-86806684D01*
X144081393Y-86735569D01*
X144052949Y-86691309D01*
X144052947Y-86691306D01*
X144048077Y-86683729D01*
X144041267Y-86677828D01*
X143944431Y-86593918D01*
X143944428Y-86593916D01*
X143937619Y-86588016D01*
X143804670Y-86527300D01*
X143795755Y-86526018D01*
X143795754Y-86526018D01*
X143664448Y-86507139D01*
X143664441Y-86507138D01*
X143660000Y-86506500D01*
X130660000Y-86506500D01*
X130586921Y-86511727D01*
X130533884Y-86527300D01*
X130455330Y-86550365D01*
X130455328Y-86550366D01*
X130446684Y-86552904D01*
X130439105Y-86557775D01*
X130331309Y-86627051D01*
X130331306Y-86627053D01*
X130323729Y-86631923D01*
X130317828Y-86638733D01*
X130233918Y-86735569D01*
X130233916Y-86735572D01*
X130228016Y-86742381D01*
X130167300Y-86875330D01*
X130166018Y-86884245D01*
X130166018Y-86884246D01*
X130147139Y-87015552D01*
X130147138Y-87015559D01*
X130146500Y-87020000D01*
X129387516Y-87020000D01*
X129362378Y-86861285D01*
X129361007Y-86854835D01*
X129262128Y-86485812D01*
X129260087Y-86479530D01*
X129123178Y-86122872D01*
X129120496Y-86116847D01*
X128947051Y-85776441D01*
X128943754Y-85770731D01*
X128735682Y-85450328D01*
X128731794Y-85444977D01*
X128630848Y-85320320D01*
X128618590Y-85311852D01*
X128607500Y-85318185D01*
X126308497Y-87617188D01*
X126300883Y-87631132D01*
X125221219Y-87631132D01*
X125224449Y-87585968D01*
X125253410Y-87540905D01*
X128040949Y-84753366D01*
X128048089Y-84740290D01*
X128040630Y-84729921D01*
X127915023Y-84628206D01*
X127909672Y-84624318D01*
X127810127Y-84559673D01*
X127763890Y-84505796D01*
X127754120Y-84435475D01*
X127783920Y-84371035D01*
X127843828Y-84332936D01*
X127878751Y-84328000D01*
X170741000Y-84328000D01*
X170809121Y-84348002D01*
G37*
%TD.AperFunction*%
%TA.AperFunction,Conductor*%
G36*
X182328594Y-106214011D02*
G01*
X182373657Y-106242972D01*
X183491072Y-107360387D01*
X183525098Y-107422699D01*
X183520033Y-107493514D01*
X183497202Y-107531993D01*
X183412619Y-107629607D01*
X183366893Y-107682378D01*
X183358619Y-107691056D01*
X183140056Y-107899454D01*
X183130993Y-107907307D01*
X183093298Y-107936950D01*
X183027387Y-107963336D01*
X182957673Y-107949899D01*
X182926316Y-107927001D01*
X181807972Y-106808657D01*
X181773946Y-106746345D01*
X181779011Y-106675530D01*
X181807972Y-106630467D01*
X182195467Y-106242972D01*
X182257779Y-106208946D01*
X182328594Y-106214011D01*
G37*
%TD.AperFunction*%
%TA.AperFunction,Conductor*%
G36*
X124464470Y-106214011D02*
G01*
X124509533Y-106242972D01*
X124897028Y-106630467D01*
X124931054Y-106692779D01*
X124925989Y-106763594D01*
X124897028Y-106808657D01*
X123778684Y-107927001D01*
X123716372Y-107961027D01*
X123645557Y-107955962D01*
X123611702Y-107936950D01*
X123574007Y-107907307D01*
X123564944Y-107899454D01*
X123346381Y-107691056D01*
X123338107Y-107682378D01*
X123292381Y-107629607D01*
X123207798Y-107531994D01*
X123178306Y-107467414D01*
X123188409Y-107397140D01*
X123213928Y-107360387D01*
X124331343Y-106242972D01*
X124393655Y-106208946D01*
X124464470Y-106214011D01*
G37*
%TD.AperFunction*%
%TA.AperFunction,Conductor*%
G36*
X183059443Y-102864038D02*
G01*
X183093298Y-102883050D01*
X183130993Y-102912693D01*
X183140056Y-102920546D01*
X183358619Y-103128944D01*
X183366893Y-103137622D01*
X183497202Y-103288006D01*
X183526694Y-103352586D01*
X183516591Y-103422860D01*
X183491072Y-103459613D01*
X182373657Y-104577028D01*
X182311345Y-104611054D01*
X182240530Y-104605989D01*
X182195467Y-104577028D01*
X181807972Y-104189533D01*
X181773946Y-104127221D01*
X181779011Y-104056406D01*
X181807972Y-104011343D01*
X182926316Y-102892999D01*
X182988628Y-102858973D01*
X183059443Y-102864038D01*
G37*
%TD.AperFunction*%
%TA.AperFunction,Conductor*%
G36*
X123747327Y-102870101D02*
G01*
X123778684Y-102892999D01*
X124897028Y-104011343D01*
X124931054Y-104073655D01*
X124925989Y-104144470D01*
X124897028Y-104189533D01*
X124509533Y-104577028D01*
X124447221Y-104611054D01*
X124376406Y-104605989D01*
X124331343Y-104577028D01*
X123213928Y-103459613D01*
X123179902Y-103397301D01*
X123184967Y-103326486D01*
X123207798Y-103288007D01*
X123338107Y-103137622D01*
X123346381Y-103128944D01*
X123564944Y-102920546D01*
X123574007Y-102912693D01*
X123611702Y-102883050D01*
X123677613Y-102856664D01*
X123747327Y-102870101D01*
G37*
%TD.AperFunction*%
%TA.AperFunction,Conductor*%
G36*
X182328594Y-88434011D02*
G01*
X182373657Y-88462972D01*
X183491072Y-89580387D01*
X183525098Y-89642699D01*
X183520033Y-89713514D01*
X183497202Y-89751993D01*
X183407466Y-89855554D01*
X183366893Y-89902378D01*
X183358619Y-89911056D01*
X183140056Y-90119454D01*
X183130993Y-90127307D01*
X183093298Y-90156950D01*
X183027387Y-90183336D01*
X182957673Y-90169899D01*
X182926316Y-90147001D01*
X181807972Y-89028657D01*
X181773946Y-88966345D01*
X181779011Y-88895530D01*
X181807972Y-88850467D01*
X182195467Y-88462972D01*
X182257779Y-88428946D01*
X182328594Y-88434011D01*
G37*
%TD.AperFunction*%
%TA.AperFunction,Conductor*%
G36*
X124464470Y-88434011D02*
G01*
X124509533Y-88462972D01*
X124897028Y-88850467D01*
X124931054Y-88912779D01*
X124925989Y-88983594D01*
X124897028Y-89028657D01*
X123778684Y-90147001D01*
X123716372Y-90181027D01*
X123645557Y-90175962D01*
X123611702Y-90156950D01*
X123574007Y-90127307D01*
X123564944Y-90119454D01*
X123346381Y-89911056D01*
X123338107Y-89902378D01*
X123297534Y-89855554D01*
X123207798Y-89751994D01*
X123178306Y-89687414D01*
X123188409Y-89617140D01*
X123213928Y-89580387D01*
X124331343Y-88462972D01*
X124393655Y-88428946D01*
X124464470Y-88434011D01*
G37*
%TD.AperFunction*%
%TA.AperFunction,Conductor*%
G36*
X123747327Y-85090101D02*
G01*
X123778684Y-85112999D01*
X124897028Y-86231343D01*
X124931054Y-86293655D01*
X124925989Y-86364470D01*
X124897028Y-86409533D01*
X124509533Y-86797028D01*
X124447221Y-86831054D01*
X124376406Y-86825989D01*
X124331343Y-86797028D01*
X123213928Y-85679613D01*
X123179902Y-85617301D01*
X123184967Y-85546486D01*
X123207798Y-85508007D01*
X123306858Y-85393685D01*
X123338107Y-85357622D01*
X123346381Y-85348944D01*
X123564944Y-85140546D01*
X123574007Y-85132693D01*
X123611702Y-85103050D01*
X123677613Y-85076664D01*
X123747327Y-85090101D01*
G37*
%TD.AperFunction*%
%TA.AperFunction,Conductor*%
G36*
X183059443Y-85084038D02*
G01*
X183093298Y-85103050D01*
X183130993Y-85132693D01*
X183140056Y-85140546D01*
X183358619Y-85348944D01*
X183366893Y-85357622D01*
X183398142Y-85393685D01*
X183497202Y-85508006D01*
X183526694Y-85572586D01*
X183516591Y-85642860D01*
X183491072Y-85679613D01*
X182373657Y-86797028D01*
X182311345Y-86831054D01*
X182240530Y-86825989D01*
X182195467Y-86797028D01*
X181807972Y-86409533D01*
X181773946Y-86347221D01*
X181779011Y-86276406D01*
X181807972Y-86231343D01*
X182926316Y-85112999D01*
X182988628Y-85078973D01*
X183059443Y-85084038D01*
G37*
%TD.AperFunction*%
%TD*%
M02*
