%TF.GenerationSoftware,KiCad,Pcbnew,(5.99.0-11163-g08fb05e522)*%
%TF.CreationDate,2021-11-19T20:45:56+01:00*%
%TF.ProjectId,pumpBoard,70756d70-426f-4617-9264-2e6b69636164,rev?*%
%TF.SameCoordinates,Original*%
%TF.FileFunction,Soldermask,Bot*%
%TF.FilePolarity,Negative*%
%FSLAX46Y46*%
G04 Gerber Fmt 4.6, Leading zero omitted, Abs format (unit mm)*
G04 Created by KiCad (PCBNEW (5.99.0-11163-g08fb05e522)) date 2021-11-19 20:45:56*
%MOMM*%
%LPD*%
G01*
G04 APERTURE LIST*
%ADD10C,0.150000*%
%ADD11C,0.800000*%
%ADD12C,6.400000*%
%ADD13R,1.700000X1.700000*%
%ADD14O,1.700000X1.700000*%
%ADD15O,6.000000X3.500000*%
%ADD16C,1.700000*%
%ADD17R,13.000000X4.000000*%
G04 APERTURE END LIST*
D10*
X176911000Y-89281000D02*
X176149000Y-88392000D01*
X176149000Y-88392000D02*
X175514000Y-87757000D01*
X175514000Y-87757000D02*
X174752000Y-87122000D01*
X174752000Y-87122000D02*
X173863000Y-86487000D01*
X173863000Y-86487000D02*
X173101000Y-85979000D01*
X173101000Y-85979000D02*
X172212000Y-85598000D01*
X172212000Y-85598000D02*
X171450000Y-85344000D01*
X171450000Y-85344000D02*
X171450000Y-84328000D01*
X171450000Y-84328000D02*
X176911000Y-84328000D01*
X176911000Y-84328000D02*
X176911000Y-89281000D01*
G36*
X176911000Y-89281000D02*
G01*
X176149000Y-88392000D01*
X175514000Y-87757000D01*
X174752000Y-87122000D01*
X173863000Y-86487000D01*
X173101000Y-85979000D01*
X172212000Y-85598000D01*
X171450000Y-85344000D01*
X171450000Y-84328000D01*
X176911000Y-84328000D01*
X176911000Y-89281000D01*
G37*
X176911000Y-89281000D02*
X176149000Y-88392000D01*
X175514000Y-87757000D01*
X174752000Y-87122000D01*
X173863000Y-86487000D01*
X173101000Y-85979000D01*
X172212000Y-85598000D01*
X171450000Y-85344000D01*
X171450000Y-84328000D01*
X176911000Y-84328000D01*
X176911000Y-89281000D01*
X160758070Y-106030296D02*
X161389810Y-106451456D01*
X161389810Y-106451456D02*
X162232130Y-106918394D01*
X162232130Y-106918394D02*
X163294185Y-107421955D01*
X163294185Y-107421955D02*
X164200594Y-107788181D01*
X164200594Y-107788181D02*
X164211000Y-108712000D01*
X164211000Y-108712000D02*
X160020000Y-108712000D01*
X160020000Y-108712000D02*
X160020000Y-105410000D01*
X160020000Y-105410000D02*
X160758070Y-106030296D01*
G36*
X160758070Y-106030296D02*
G01*
X161389810Y-106451456D01*
X162232130Y-106918394D01*
X163294185Y-107421955D01*
X164200594Y-107788181D01*
X164211000Y-108712000D01*
X160020000Y-108712000D01*
X160020000Y-105410000D01*
X160758070Y-106030296D01*
G37*
X160758070Y-106030296D02*
X161389810Y-106451456D01*
X162232130Y-106918394D01*
X163294185Y-107421955D01*
X164200594Y-107788181D01*
X164211000Y-108712000D01*
X160020000Y-108712000D01*
X160020000Y-105410000D01*
X160758070Y-106030296D01*
X181102000Y-93599000D02*
X181229000Y-94488000D01*
X181229000Y-94488000D02*
X181356000Y-95504000D01*
X181356000Y-95504000D02*
X181393036Y-96165143D01*
X181393036Y-96165143D02*
X181395215Y-96764263D01*
X181395215Y-96764263D02*
X181373428Y-97339419D01*
X181373428Y-97339419D02*
X181279748Y-98315441D01*
X181279748Y-98315441D02*
X181070165Y-99481767D01*
X181070165Y-99481767D02*
X180851322Y-100334805D01*
X180851322Y-100334805D02*
X177800000Y-100330000D01*
X177800000Y-100330000D02*
X177800000Y-92710000D01*
X177800000Y-92710000D02*
X180848000Y-92710000D01*
X180848000Y-92710000D02*
X181102000Y-93599000D01*
G36*
X181102000Y-93599000D02*
G01*
X181229000Y-94488000D01*
X181356000Y-95504000D01*
X181393036Y-96165143D01*
X181395215Y-96764263D01*
X181373428Y-97339419D01*
X181279748Y-98315441D01*
X181070165Y-99481767D01*
X180851322Y-100334805D01*
X177800000Y-100330000D01*
X177800000Y-92710000D01*
X180848000Y-92710000D01*
X181102000Y-93599000D01*
G37*
X181102000Y-93599000D02*
X181229000Y-94488000D01*
X181356000Y-95504000D01*
X181393036Y-96165143D01*
X181395215Y-96764263D01*
X181373428Y-97339419D01*
X181279748Y-98315441D01*
X181070165Y-99481767D01*
X180851322Y-100334805D01*
X177800000Y-100330000D01*
X177800000Y-92710000D01*
X180848000Y-92710000D01*
X181102000Y-93599000D01*
D11*
%TO.C,H2*%
X179277944Y-85932944D03*
X180975000Y-85230000D03*
X183375000Y-87630000D03*
X178575000Y-87630000D03*
X182672056Y-89327056D03*
X179277944Y-89327056D03*
X182672056Y-85932944D03*
D12*
X180975000Y-87630000D03*
D11*
X180975000Y-90030000D03*
%TD*%
D13*
%TO.C,J2*%
X146050000Y-106618000D03*
%TD*%
%TO.C,J1*%
X156210000Y-106618000D03*
D14*
X153670000Y-106618000D03*
X151130000Y-106618000D03*
X148590000Y-106618000D03*
%TD*%
D11*
%TO.C,H1*%
X124032944Y-103712944D03*
X127427056Y-103712944D03*
D12*
X125730000Y-105410000D03*
D11*
X125730000Y-107810000D03*
X123330000Y-105410000D03*
X124032944Y-107107056D03*
X125730000Y-103010000D03*
X127427056Y-107107056D03*
X128130000Y-105410000D03*
%TD*%
%TO.C,H4*%
X124032944Y-85932944D03*
X124032944Y-89327056D03*
D12*
X125730000Y-87630000D03*
D11*
X125730000Y-90030000D03*
X125730000Y-85230000D03*
X127427056Y-85932944D03*
X123330000Y-87630000D03*
X127427056Y-89327056D03*
X128130000Y-87630000D03*
%TD*%
%TO.C,H3*%
X180975000Y-103010000D03*
D12*
X180975000Y-105410000D03*
D11*
X183375000Y-105410000D03*
X182672056Y-103712944D03*
X179277944Y-103712944D03*
X179277944Y-107107056D03*
X178575000Y-105410000D03*
X182672056Y-107107056D03*
X180975000Y-107810000D03*
%TD*%
D15*
%TO.C,J4*%
X166640000Y-87520000D03*
X168640000Y-105520000D03*
%TD*%
D16*
%TO.C,J3*%
X127508000Y-95250000D03*
D13*
X127508000Y-97790000D03*
D17*
X137160000Y-89020000D03*
X137160000Y-104020000D03*
%TD*%
M02*
